<svg width="32" height="32" viewBox="0 0 32 32" fill="none" xmlns="http://www.w3.org/2000/svg">
<path d="M14.7074 21.2923C14.8004 21.3852 14.8742 21.4955 14.9245 21.6169C14.9748 21.7383 15.0007 21.8684 15.0007 21.9998C15.0007 22.1312 14.9748 22.2614 14.9245 22.3828C14.8742 22.5042 14.8004 22.6144 14.7074 22.7073L10.7074 26.7073C10.6146 26.8003 10.5043 26.874 10.3829 26.9244C10.2615 26.9747 10.1314 27.0006 9.99995 27.0006C9.86853 27.0006 9.7384 26.9747 9.61701 26.9244C9.49561 26.874 9.38532 26.8003 9.29245 26.7073L5.29245 22.7073C5.19954 22.6144 5.12584 22.5041 5.07555 22.3827C5.02527 22.2613 4.99939 22.1312 4.99939 21.9998C4.99939 21.8684 5.02527 21.7383 5.07555 21.6169C5.12584 21.4955 5.19954 21.3852 5.29245 21.2923C5.48009 21.1047 5.73458 20.9993 5.99995 20.9993C6.13134 20.9993 6.26145 21.0251 6.38284 21.0754C6.50424 21.1257 6.61454 21.1994 6.70745 21.2923L8.99995 23.5861V5.99981C8.99995 5.73459 9.1053 5.48024 9.29284 5.2927C9.48038 5.10517 9.73473 4.99981 9.99995 4.99981C10.2652 4.99981 10.5195 5.10517 10.7071 5.2927C10.8946 5.48024 10.9999 5.73459 10.9999 5.99981V23.5861L13.2924 21.2923C13.3853 21.1993 13.4956 21.1256 13.617 21.0752C13.7384 21.0249 13.8685 20.999 13.9999 20.999C14.1314 20.999 14.2615 21.0249 14.3829 21.0752C14.5043 21.1256 14.6146 21.1993 14.7074 21.2923ZM26.7074 9.29231L22.7074 5.29231C22.6146 5.19933 22.5043 5.12557 22.3829 5.07525C22.2615 5.02493 22.1314 4.99902 21.9999 4.99902C21.8685 4.99902 21.7384 5.02493 21.617 5.07525C21.4956 5.12557 21.3853 5.19933 21.2924 5.29231L17.2924 9.29231C17.1048 9.47995 16.9994 9.73445 16.9994 9.99981C16.9994 10.2652 17.1048 10.5197 17.2924 10.7073C17.4801 10.895 17.7346 11.0004 17.9999 11.0004C18.2653 11.0004 18.5198 10.895 18.7074 10.7073L20.9999 8.41356V25.9998C20.9999 26.265 21.1053 26.5194 21.2928 26.7069C21.4804 26.8945 21.7347 26.9998 21.9999 26.9998C22.2652 26.9998 22.5195 26.8945 22.7071 26.7069C22.8946 26.5194 22.9999 26.265 22.9999 25.9998V8.41356L25.2924 10.7073C25.4801 10.895 25.7346 11.0004 25.9999 11.0004C26.2653 11.0004 26.5198 10.895 26.7074 10.7073C26.8951 10.5197 27.0005 10.2652 27.0005 9.99981C27.0005 9.73445 26.8951 9.47995 26.7074 9.29231Z" fill="#1C1C1C"/>
</svg>
