<svg width="100%" height="100%" style="overflow:visible;" preserveAspectRatio="none" viewBox="0 0 44 43.7" fill="none" xmlns="http://www.w3.org/2000/svg">
<path d="M14.778 17.3307C20.5389 14.5943 25.0474 9.95066 27.6357 4.14611C25.9659 2.40474 23.7951 1.16091 21.4573 0.414611L20.2049 0C20.1214 0.165844 20.038 0.414621 20.038 0.580466C18.0342 6.21918 13.9431 10.7799 8.43264 13.3505C4.59204 15.1748 1.75332 18.4917 0.417457 22.4719L0 23.7158C0.166983 23.7987 0.417461 23.8816 0.584444 23.8816C2.17078 24.462 3.75712 25.2084 5.25996 26.1205C7.34725 22.389 10.6869 19.2379 14.778 17.3307Z" fill="#0560FD"/>
<path d="M38.9905 17.6624C35.9013 22.306 31.6432 26.0375 26.3833 28.5252C22.1252 30.5153 18.869 34.2468 17.3662 38.7246L16.9487 40.1343C18.5351 41.544 20.4554 42.622 22.5427 43.2853L23.795 43.6999C23.8785 43.5341 23.962 43.2853 23.962 43.1195C25.9658 37.4808 30.0569 32.9201 35.5673 30.3495C39.4079 28.5252 42.3301 25.2083 43.5825 21.228L44 19.9842C42.2466 19.4867 40.5768 18.6574 38.9905 17.6624Z" fill="#0560FD"/>
<path d="M13.6091 35.8224C15.6964 30.8471 19.537 26.7839 24.463 24.4621C28.9715 22.3061 32.7287 18.9892 35.3169 14.926C33.3966 13.1017 31.8102 11.0287 30.6414 8.54102C27.5522 14.1797 22.7097 18.7405 16.7818 21.5598C13.3586 23.1353 10.6034 25.8718 8.93359 29.1887C10.7704 30.93 12.2733 33.086 13.4421 35.4907C13.4421 35.4907 13.5256 35.6566 13.6091 35.8224Z" fill="#0560FD"/>
</svg>
