<svg width="100%" height="100%" style="overflow:visible;" preserveAspectRatio="none" viewBox="0 0 50.04 8.57" fill="none" xmlns="http://www.w3.org/2000/svg">
<path d="M41.8381 5.71429L41.8381 0.714287H40.4286V5.71429C40.4286 7.68673 42.0063 9.28571 43.9524 9.28572C45.8985 9.28572 47.4762 7.68673 47.4762 5.71429L47.4762 0.714287H46.0667L46.0667 5.71429C46.0667 6.89775 45.1201 7.85714 43.9524 7.85714C42.7847 7.85714 41.8381 6.89775 41.8381 5.71429Z" fill="#4F507F"/>
<path d="M41.8381 5.71429L41.8381 0.714287H40.4286V5.71429C40.4286 7.68673 42.0063 9.28571 43.9524 9.28572C45.8985 9.28572 47.4762 7.68673 47.4762 5.71429L47.4762 0.714287H46.0667L46.0667 5.71429C46.0667 6.89775 45.1201 7.85714 43.9524 7.85714C42.7847 7.85714 41.8381 6.89775 41.8381 5.71429Z" fill="white" fill-opacity="0.4" style="mix-blend-mode:hard-light"/>
<path d="M49.5905 0.714287V9.28572H51V0.714287H49.5905Z" fill="#4F507F"/>
<path d="M49.5905 0.714287V9.28572H51V0.714287H49.5905Z" fill="white" fill-opacity="0.4" style="mix-blend-mode:hard-light"/>
<path d="M6.42484 8.64112C5.83821 9.07666 5.04994 9.28572 4.06001 9.28572C3.45506 9.28572 2.9051 9.19861 2.41014 9.04181C1.91518 8.88502 1.42021 8.67596 0.961914 8.39721L1.5302 7.16028C1.9885 7.45645 2.41014 7.64808 2.81344 7.77004C3.21674 7.89199 3.62005 7.96167 4.00502 7.96167C4.57331 7.96167 4.99495 7.87457 5.30659 7.68293C5.5999 7.49129 5.74655 7.22997 5.74655 6.88153C5.74655 6.49826 5.58157 6.20209 5.23326 6.01045C4.88495 5.81882 4.44499 5.62718 3.91336 5.43554C3.12509 5.1568 2.5018 4.84321 2.0435 4.49477C1.56687 4.14634 1.32855 3.64112 1.31022 2.97909C1.29189 2.26481 1.56687 1.70732 2.13516 1.30662C2.70345 0.905925 3.43673 0.714287 4.35333 0.714287C4.81163 0.714287 5.25159 0.766551 5.69156 0.888503C6.13153 1.01045 6.55316 1.18467 6.93813 1.42857L6.36984 2.61324C6.02153 2.4216 5.69156 2.28223 5.37992 2.1777C5.04994 2.07317 4.70163 2.02091 4.35333 2.02091C3.89503 2.02091 3.52839 2.09059 3.25341 2.24739C2.97843 2.40418 2.85011 2.64808 2.85011 2.96167C2.85011 3.31011 3.03343 3.57143 3.38173 3.74565C3.73004 3.91986 4.18834 4.1115 4.71997 4.32056C5.50824 4.5993 6.13153 4.91289 6.60816 5.27875C7.06646 5.6446 7.30477 6.14983 7.30477 6.82927C7.30477 7.61324 7.01146 8.20557 6.42484 8.64112Z" fill="#4F507F"/>
<path d="M15.0572 4.28572V9.28572H16.4667V4.28572C16.4667 2.31327 14.889 0.714287 12.9429 0.714287C10.9967 0.714287 9.41906 2.31327 9.41906 4.28572V9.28572H10.8286V4.28572C10.8286 3.10225 11.7752 2.14286 12.9429 2.14286C14.1106 2.14286 15.0572 3.10225 15.0572 4.28572Z" fill="#4F507F"/>
<path fill-rule="evenodd" clip-rule="evenodd" d="M27.0381 5C27.0381 7.36694 25.1449 9.28572 22.8095 9.28572C20.4742 9.28572 18.581 7.36694 18.581 5C18.581 2.63307 20.4742 0.714287 22.8095 0.714287C25.1449 0.714287 27.0381 2.63307 27.0381 5ZM25.6286 5C25.6286 6.57796 24.3664 7.85714 22.8095 7.85714C21.2526 7.85714 19.9905 6.57796 19.9905 5C19.9905 3.42204 21.2526 2.14286 22.8095 2.14286C24.3664 2.14286 25.6286 3.42204 25.6286 5Z" fill="#4F507F"/>
<path d="M28.4476 0.714287L29.776 8.10825C30.0516 9.642 32.0722 9.69171 32.4125 8.17311L33.1999 3.95844C33.2289 3.80361 33.4336 3.80677 33.4585 3.96243L34.1211 8.1105C34.4152 9.64183 36.4389 9.66152 36.7587 8.13617L38.3143 0.714287H36.9462L35.5774 7.82886C35.548 7.98181 35.3462 7.9798 35.3194 7.82629L34.076 0.714287H32.699L31.2429 7.84979C31.2118 8.00221 31.0103 7.99773 30.985 7.84406L29.8092 0.714287H28.4476Z" fill="#4F507F"/>
</svg>
