<svg width="477" height="490" viewBox="0 0 477 490" fill="none" xmlns="http://www.w3.org/2000/svg">
<g filter="url(#filter0_d_2310_17141)">
<rect x="60" y="50" width="357" height="370" rx="13" fill="white"/>
<g clip-path="url(#clip0_2310_17141)">
<path d="M82.783 95.255C79.264 95.255 76.544 92.535 76.544 88.88C76.544 85.225 79.264 82.539 82.783 82.539C86.319 82.539 89.056 85.225 89.056 88.88C89.056 92.535 86.319 95.255 82.783 95.255ZM82.783 92.943C85.027 92.943 86.387 91.124 86.387 88.88C86.387 86.636 85.027 84.851 82.783 84.851C80.556 84.851 79.196 86.636 79.196 88.88C79.196 91.124 80.556 92.943 82.783 92.943ZM94.0511 95.17C91.4331 95.17 89.6311 93.232 89.6311 90.461C89.6311 87.741 91.5011 85.752 94.0511 85.752C96.4141 85.752 98.1651 87.35 98.4541 89.798H95.9721C95.8531 88.591 95.1221 87.843 94.0511 87.843C92.8271 87.843 92.0451 88.846 92.0451 90.461C92.0451 92.093 92.8101 93.079 94.0511 93.079C95.1391 93.079 95.8361 92.365 95.9721 91.124H98.4541C98.1821 93.623 96.4821 95.17 94.0511 95.17ZM105.207 92.705V94.762C104.629 95.051 104.085 95.17 103.388 95.17C101.518 95.17 100.345 94.099 100.345 92.059V87.945H98.5092V85.922H100.345V83.236H102.691V85.922H105.292V87.945H102.691V91.515C102.691 92.569 103.167 92.994 104.017 92.994C104.459 92.994 104.867 92.892 105.207 92.705ZM110.14 95.17C107.505 95.17 105.533 93.096 105.533 90.461C105.533 87.809 107.505 85.752 110.14 85.752C112.775 85.752 114.747 87.809 114.747 90.461C114.747 93.096 112.775 95.17 110.14 95.17ZM110.14 93.079C111.313 93.079 112.316 92.144 112.316 90.461C112.316 88.778 111.313 87.86 110.14 87.86C108.967 87.86 107.964 88.778 107.964 90.461C107.964 92.144 108.967 93.079 110.14 93.079ZM124.908 90.461C124.908 93.113 123.327 95.17 120.879 95.17C119.706 95.17 118.72 94.643 118.023 93.691V95H115.847V82.794H118.21V87.095C118.873 86.211 119.791 85.752 120.879 85.752C123.327 85.752 124.908 87.775 124.908 90.461ZM122.477 90.461C122.477 88.727 121.508 87.843 120.352 87.843C119.213 87.843 118.227 88.71 118.227 90.427C118.227 92.144 119.179 93.062 120.352 93.062C121.508 93.062 122.477 92.161 122.477 90.461ZM129.958 95.153C127.238 95.153 125.419 93.266 125.419 90.427C125.419 87.724 127.306 85.752 129.924 85.752C132.797 85.752 134.701 88.081 134.276 91.039H127.833C127.986 92.518 128.7 93.334 129.907 93.334C130.944 93.334 131.641 92.824 131.913 91.923H134.259C133.749 93.98 132.168 95.153 129.958 95.153ZM129.873 87.486C128.768 87.486 128.071 88.2 127.867 89.543H131.777C131.709 88.285 130.995 87.486 129.873 87.486ZM137.814 90.597V95H135.451V85.922H137.627V87.673C138.29 86.517 139.701 85.82 141.163 85.82V88.268C139.157 88.115 137.814 88.591 137.814 90.597ZM153.525 92.892V95H144.923V93.657L148.799 89.798C150.04 88.557 150.89 87.69 150.89 86.517C150.89 85.531 150.159 84.732 148.901 84.732C147.643 84.732 146.861 85.463 146.861 86.738H144.566C144.583 84.307 146.47 82.641 149.071 82.641C151.757 82.641 153.338 84.358 153.338 86.194C153.338 87.945 152.301 89.067 150.601 90.75L148.544 92.892H153.525ZM159.52 82.641C162.58 82.641 164.331 84.885 164.331 88.931C164.331 92.943 162.631 95.187 159.52 95.187C156.392 95.187 154.709 92.943 154.709 88.931C154.709 84.885 156.443 82.641 159.52 82.641ZM159.52 84.732C157.973 84.732 157.123 86.211 157.123 88.931C157.123 91.634 157.939 93.079 159.52 93.079C161.067 93.079 161.917 91.634 161.917 88.931C161.917 86.211 161.067 84.732 159.52 84.732ZM174.241 92.892V95H165.639V93.657L169.515 89.798C170.756 88.557 171.606 87.69 171.606 86.517C171.606 85.531 170.875 84.732 169.617 84.732C168.359 84.732 167.577 85.463 167.577 86.738H165.282C165.299 84.307 167.186 82.641 169.787 82.641C172.473 82.641 174.054 84.358 174.054 86.194C174.054 87.945 173.017 89.067 171.317 90.75L169.26 92.892H174.241ZM179.578 95.187C176.96 95.187 174.988 93.555 174.903 91.328H177.266C177.402 92.433 178.303 93.079 179.561 93.079C181.193 93.079 181.873 92.11 181.873 91.039C181.873 90.019 181.091 89.016 179.51 89.016C178.473 89.016 177.691 89.424 177.249 90.257L175.328 89.645L176.45 82.794H183.539V84.902H178.15L177.708 87.622C178.371 87.197 179.102 87.01 179.918 87.01C182.825 87.01 184.287 88.965 184.287 91.039C184.287 93.13 182.689 95.187 179.578 95.187Z" fill="black"/>
<path d="M199.69 88C199.69 87.7271 199.595 87.5049 199.373 87.2954L194.504 82.5347C194.339 82.3633 194.136 82.2808 193.889 82.2808C193.4 82.2808 193 82.6743 193 83.1631C193 83.4043 193.102 83.6265 193.279 83.8042L197.596 87.9937L193.279 92.1958C193.102 92.3672 193 92.5894 193 92.8369C193 93.3257 193.4 93.7192 193.889 93.7192C194.13 93.7192 194.339 93.6367 194.504 93.4653L199.373 88.7046C199.595 88.4951 199.69 88.2666 199.69 88Z" fill="#FF3B30"/>
</g>
<path d="M350 88C350 88.3418 350.127 88.6348 350.4 88.8887L357.998 96.3301C358.213 96.5449 358.486 96.6621 358.809 96.6621C359.453 96.6621 359.971 96.1543 359.971 95.5C359.971 95.1777 359.834 94.8945 359.619 94.6699L352.773 88L359.619 81.3301C359.834 81.1055 359.971 80.8125 359.971 80.5C359.971 79.8457 359.453 79.3379 358.809 79.3379C358.486 79.3379 358.213 79.4551 357.998 79.6699L350.4 87.1016C350.127 87.3652 350 87.6582 350 88Z" fill="#FF3B30"/>
<path d="M401 88C400.99 87.6582 400.863 87.3652 400.6 87.1016L393.002 79.6699C392.777 79.4551 392.514 79.3379 392.191 79.3379C391.537 79.3379 391.029 79.8457 391.029 80.5C391.029 80.8125 391.156 81.1055 391.381 81.3301L398.217 88L391.381 94.6699C391.156 94.8945 391.029 95.1777 391.029 95.5C391.029 96.1543 391.537 96.6621 392.191 96.6621C392.504 96.6621 392.777 96.5449 393.002 96.3301L400.6 88.8887C400.873 88.6348 401 88.3418 401 88Z" fill="#FF3B30"/>
<path d="M86.1493 123.101C86.1493 124.882 84.7193 126.13 82.3793 126.13C80.0263 126.13 78.5573 124.869 78.4143 122.893H80.4163C80.4683 123.92 81.1313 124.583 82.3403 124.583C83.3413 124.583 84.0563 124.141 84.0563 123.387C84.0563 122.802 83.6013 122.451 82.8083 122.295L81.2743 121.996C79.8573 121.723 78.7653 120.956 78.7653 119.409C78.7653 117.745 80.2343 116.549 82.2493 116.549C84.3423 116.549 85.8763 117.771 86.0063 119.721H84.0043C83.9393 118.746 83.2633 118.083 82.2753 118.083C81.3133 118.083 80.7673 118.629 80.7673 119.279C80.7673 119.916 81.3523 120.189 82.0283 120.319L83.6273 120.644C85.2653 120.969 86.1493 121.723 86.1493 123.101ZM95.1854 116.666V122.451C95.1854 124.661 93.7814 126.195 91.3504 126.195C88.8804 126.195 87.5024 124.661 87.5024 122.451V116.666H89.4784V122.49C89.4784 123.647 90.0374 124.427 91.3504 124.427C92.6504 124.427 93.2094 123.647 93.2094 122.49V116.666H95.1854ZM103.081 126L98.8043 119.487V126H96.9973V116.666H99.1293L103.198 122.854V116.666H105.018V126H103.081Z" fill="#3C3C43" fill-opacity="0.3"/>
<path d="M129.866 126L127.422 119.799V126H125.628V116.666H127.994L130.698 123.582L133.415 116.666H135.781V126H133.987V119.747L131.517 126H129.866ZM141.836 126.195C139.145 126.195 137.065 124.115 137.065 121.32C137.065 118.525 139.145 116.471 141.836 116.471C144.54 116.471 146.633 118.525 146.633 121.32C146.633 124.115 144.54 126.195 141.836 126.195ZM141.836 124.427C143.552 124.427 144.592 123.036 144.592 121.32C144.592 119.604 143.552 118.239 141.836 118.239C140.133 118.239 139.093 119.604 139.093 121.32C139.093 123.036 140.133 124.427 141.836 124.427ZM154.001 126L149.724 119.487V126H147.917V116.666H150.049L154.118 122.854V116.666H155.938V126H154.001Z" fill="#3C3C43" fill-opacity="0.3"/>
<path d="M182.718 126H180.742V118.447H177.804V116.666H185.669V118.447H182.718V126ZM194.427 116.666V122.451C194.427 124.661 193.023 126.195 190.592 126.195C188.122 126.195 186.744 124.661 186.744 122.451V116.666H188.72V122.49C188.72 123.647 189.279 124.427 190.592 124.427C191.892 124.427 192.451 123.647 192.451 122.49V116.666H194.427ZM202.518 124.284V126H196.239V116.666H202.427V118.382H198.215V120.345H202.037V122.048H198.215V124.284H202.518Z" fill="#3C3C43" fill-opacity="0.3"/>
<path d="M232.195 126L230.453 119.474L228.711 126H226.709L224.317 116.666H226.241L227.749 122.997L229.465 116.666H231.48L233.144 123.023L234.665 116.666H236.602L234.197 126H232.195ZM243.918 124.284V126H237.639V116.666H243.827V118.382H239.615V120.345H243.437V122.048H239.615V124.284H243.918ZM248.683 126H245.368V116.666H248.683C251.647 116.666 253.441 118.564 253.441 121.281C253.441 123.998 251.582 126 248.683 126ZM247.344 118.369V124.297H248.579C250.438 124.297 251.413 123.218 251.413 121.281C251.413 119.422 250.438 118.369 248.579 118.369H247.344Z" fill="#3C3C43" fill-opacity="0.3"/>
<path d="M278.997 126H277.021V118.447H274.083V116.666H281.948V118.447H278.997V126ZM285.024 126H283.048V116.666H285.024V120.345H289.067V116.666H291.043V126H289.067V122.048H285.024V126ZM300.542 116.666V122.451C300.542 124.661 299.138 126.195 296.707 126.195C294.237 126.195 292.859 124.661 292.859 122.451V116.666H294.835V122.49C294.835 123.647 295.394 124.427 296.707 124.427C298.007 124.427 298.566 123.647 298.566 122.49V116.666H300.542Z" fill="#3C3C43" fill-opacity="0.3"/>
<path d="M329.264 126H327.288V116.666H333.32V118.382H329.264V120.735H332.683V122.438H329.264V126ZM336.574 126H334.598V116.666H338.251C340.604 116.666 341.969 117.758 341.969 119.695C341.969 120.956 341.189 121.957 339.863 122.399L342.268 126H339.915L337.809 122.698H336.574V126ZM336.574 118.304V121.073H338.16C339.356 121.073 339.993 120.605 339.993 119.695C339.993 118.772 339.356 118.304 338.16 118.304H336.574ZM345.396 126H343.42V116.666H345.396V126Z" fill="#3C3C43" fill-opacity="0.3"/>
<path d="M380.52 123.101C380.52 124.882 379.09 126.13 376.75 126.13C374.397 126.13 372.928 124.869 372.785 122.893H374.787C374.839 123.92 375.502 124.583 376.711 124.583C377.712 124.583 378.427 124.141 378.427 123.387C378.427 122.802 377.972 122.451 377.179 122.295L375.645 121.996C374.228 121.723 373.136 120.956 373.136 119.409C373.136 117.745 374.605 116.549 376.62 116.549C378.713 116.549 380.247 117.771 380.377 119.721H378.375C378.31 118.746 377.634 118.083 376.646 118.083C375.684 118.083 375.138 118.629 375.138 119.279C375.138 119.916 375.723 120.189 376.399 120.319L377.998 120.644C379.636 120.969 380.52 121.723 380.52 123.101ZM387.886 126L387.184 123.998H383.557L382.842 126H380.853L384.363 116.666H386.521L390.005 126H387.886ZM385.39 118.824L384.116 122.425H386.638L385.39 118.824ZM394.437 126H392.461V118.447H389.523V116.666H397.388V118.447H394.437V126Z" fill="#3C3C43" fill-opacity="0.3"/>
<path d="M239.303 163H241.002V148.908H239.283L235.533 151.604V153.371L239.264 150.773H239.303V163Z" fill="black"/>
<path d="M281.145 163H290.441V161.438H283.557V161.398L286.906 157.961C289.494 155.314 290.207 154.152 290.207 152.609V152.59C290.207 150.383 288.342 148.674 285.793 148.674C283.166 148.674 281.057 150.48 281.057 152.922V152.98H282.756V152.932C282.756 151.418 284.064 150.207 285.822 150.207C287.355 150.207 288.439 151.242 288.449 152.678V152.697C288.449 153.869 288.01 154.631 286.105 156.613L281.145 161.789V163Z" fill="black"/>
<path d="M334.305 162.234C337.127 162.234 339.197 160.496 339.197 158.143V158.123C339.197 156.121 337.801 154.842 335.75 154.666V154.627C337.508 154.256 338.738 153.064 338.738 151.326V151.307C338.738 149.168 336.971 147.674 334.285 147.674C331.648 147.674 329.832 149.207 329.607 151.502L329.598 151.6H331.287L331.297 151.502C331.443 150.076 332.625 149.197 334.285 149.197C336.004 149.197 336.971 150.047 336.971 151.521V151.541C336.971 152.947 335.799 153.982 334.119 153.982H332.43V155.467H334.197C336.17 155.467 337.41 156.434 337.41 158.162V158.182C337.41 159.676 336.15 160.711 334.305 160.711C332.43 160.711 331.16 159.754 331.014 158.367L331.004 158.27H329.314L329.324 158.387C329.51 160.613 331.395 162.234 334.305 162.234Z" fill="black"/>
<path d="M382.797 163H384.496V160.07H386.488V158.527H384.496V148.908H381.898L375.717 158.479V160.07H382.797V163ZM377.455 158.527V158.488L382.738 150.412H382.797V158.527H377.455Z" fill="black"/>
<path d="M96.1367 209.234C99.0664 209.234 101.146 207.262 101.156 204.439V204.42C101.156 201.715 99.2031 199.752 96.498 199.752C95.1309 199.752 93.959 200.26 93.2949 201.207H93.2559L93.7344 196.471H100.355V194.908H92.2891L91.5664 202.945H93.1191C93.3047 202.623 93.5293 202.35 93.7832 202.115C94.4082 201.549 95.2285 201.266 96.1855 201.266C98.0508 201.266 99.3887 202.594 99.3984 204.449V204.469C99.3984 206.363 98.0703 207.691 96.1562 207.691C94.4668 207.691 93.2168 206.627 93.041 205.23L93.0312 205.152H91.3027L91.3125 205.26C91.5176 207.555 93.4414 209.234 96.1367 209.234Z" fill="black"/>
<rect x="123.5" y="181" width="40" height="40" rx="20" fill="#FF3B30"/>
<path d="M143.793 209.244C146.83 209.244 149.057 207.203 149.057 204.361V204.342C149.057 201.695 147.152 199.742 144.438 199.742C142.523 199.742 141.117 200.719 140.561 202.008H140.512C140.512 201.852 140.512 201.705 140.521 201.559C140.619 198.893 141.566 196.725 143.832 196.725C145.092 196.725 145.961 197.35 146.332 198.316L146.371 198.404H148.871L148.852 198.297C148.402 196.168 146.459 194.664 143.852 194.664C140.258 194.664 138.1 197.447 138.1 202.105V202.125C138.1 207.066 140.678 209.244 143.793 209.244ZM140.941 204.4V204.391C140.941 202.818 142.172 201.686 143.783 201.686C145.395 201.686 146.576 202.828 146.576 204.43V204.449C146.576 205.973 145.326 207.184 143.754 207.184C142.182 207.184 140.941 205.963 140.941 204.4Z" fill="white"/>
<path d="M187.818 209H189.664L195.934 196.539V194.908H186.607V196.471H194.195V196.51L187.818 209Z" fill="black"/>
<path d="M239 209.234C241.988 209.234 244.117 207.555 244.117 205.191V205.172C244.117 203.434 242.896 201.988 241.09 201.568V201.529C242.633 201.051 243.609 199.879 243.609 198.395V198.375C243.609 196.246 241.666 194.674 239 194.674C236.334 194.674 234.391 196.246 234.391 198.375V198.395C234.391 199.879 235.367 201.051 236.91 201.529V201.568C235.104 201.988 233.883 203.434 233.883 205.172V205.191C233.883 207.555 236.012 209.234 239 209.234ZM239 200.875C237.301 200.875 236.139 199.908 236.139 198.541V198.521C236.139 197.154 237.301 196.188 239 196.188C240.699 196.188 241.861 197.154 241.861 198.521V198.541C241.861 199.908 240.699 200.875 239 200.875ZM239 207.701C237.057 207.701 235.67 206.607 235.67 205.084V205.064C235.67 203.521 237.047 202.418 239 202.418C240.953 202.418 242.33 203.521 242.33 205.064V205.084C242.33 206.607 240.943 207.701 239 207.701Z" fill="black"/>
<path d="M285.598 194.674C282.717 194.674 280.607 196.686 280.607 199.459V199.479C280.607 202.154 282.6 204.137 285.285 204.137C287.199 204.137 288.645 203.121 289.211 201.871H289.25C289.25 201.979 289.25 202.076 289.24 202.174C289.162 205.133 288.127 207.682 285.5 207.682C284.055 207.682 283.049 206.959 282.629 205.797L282.59 205.689H280.803L280.832 205.816C281.301 207.867 283.088 209.234 285.48 209.234C288.928 209.234 290.949 206.461 290.949 201.715V201.695C290.949 196.471 288.195 194.674 285.598 194.674ZM285.588 202.594C283.732 202.594 282.395 201.275 282.395 199.439V199.42C282.395 197.643 283.82 196.236 285.617 196.236C287.424 196.236 288.83 197.672 288.83 199.479V199.488C288.83 201.285 287.434 202.594 285.588 202.594Z" fill="black"/>
<path d="M328.382 208H330.081V193.908H328.363L324.613 196.604V198.371L328.343 195.773H328.382V208ZM338.948 208.234C342.19 208.234 344.133 205.432 344.133 200.959V200.939C344.133 196.467 342.19 193.674 338.948 193.674C335.706 193.674 333.782 196.467 333.782 200.939V200.959C333.782 205.432 335.706 208.234 338.948 208.234ZM338.948 206.701C336.799 206.701 335.549 204.494 335.549 200.959V200.939C335.549 197.404 336.799 195.217 338.948 195.217C341.096 195.217 342.366 197.404 342.366 200.939V200.959C342.366 204.494 341.096 206.701 338.948 206.701Z" fill="black"/>
<path d="M376.679 209H378.378V194.908H376.66L372.91 197.604V199.371L376.64 196.773H376.679V209ZM385.926 209H387.626V194.908H385.907L382.157 197.604V199.371L385.887 196.773H385.926V209Z" fill="black"/>
<path d="M90.4487 255H92.1479V240.908H90.4291L86.6791 243.604V245.371L90.4096 242.773H90.4487V255ZM96.1021 255H105.399V253.438H98.5142V253.398L101.864 249.961C104.452 247.314 105.165 246.152 105.165 244.609V244.59C105.165 242.383 103.299 240.674 100.751 240.674C98.1236 240.674 96.0142 242.48 96.0142 244.922V244.98H97.7134V244.932C97.7134 243.418 99.022 242.207 100.78 242.207C102.313 242.207 103.397 243.242 103.407 244.678V244.697C103.407 245.869 102.967 246.631 101.063 248.613L96.1021 253.789V255Z" fill="black"/>
<path d="M137.861 255H139.56V240.908H137.841L134.091 243.604V245.371L137.822 242.773H137.861V255ZM148.26 255.234C151.083 255.234 153.153 253.496 153.153 251.143V251.123C153.153 249.121 151.756 247.842 149.706 247.666V247.627C151.463 247.256 152.694 246.064 152.694 244.326V244.307C152.694 242.168 150.926 240.674 148.241 240.674C145.604 240.674 143.788 242.207 143.563 244.502L143.553 244.6H145.243L145.253 244.502C145.399 243.076 146.581 242.197 148.241 242.197C149.96 242.197 150.926 243.047 150.926 244.521V244.541C150.926 245.947 149.754 246.982 148.075 246.982H146.385V248.467H148.153C150.126 248.467 151.366 249.434 151.366 251.162V251.182C151.366 252.676 150.106 253.711 148.26 253.711C146.385 253.711 145.116 252.754 144.969 251.367L144.96 251.27H143.27L143.28 251.387C143.465 253.613 145.35 255.234 148.26 255.234Z" fill="black"/>
<path d="M185.402 255H187.101V240.908H185.382L181.632 243.604V245.371L185.363 242.773H185.402V255ZM197.754 255H199.454V252.07H201.446V250.527H199.454V240.908H196.856L190.674 250.479V252.07H197.754V255ZM192.413 250.527V250.488L197.696 242.412H197.754V250.527H192.413Z" fill="black"/>
<path d="M233.263 255H234.962V240.908H233.244L229.494 243.604V245.371L233.224 242.773H233.263V255ZM243.76 255.234C246.69 255.234 248.77 253.262 248.78 250.439V250.42C248.78 247.715 246.827 245.752 244.122 245.752C242.754 245.752 241.583 246.26 240.919 247.207H240.879L241.358 242.471H247.979V240.908H239.913L239.19 248.945H240.743C240.928 248.623 241.153 248.35 241.407 248.115C242.032 247.549 242.852 247.266 243.809 247.266C245.674 247.266 247.012 248.594 247.022 250.449V250.469C247.022 252.363 245.694 253.691 243.78 253.691C242.09 253.691 240.84 252.627 240.665 251.23L240.655 251.152H238.926L238.936 251.26C239.141 253.555 241.065 255.234 243.76 255.234Z" fill="black"/>
<path d="M279.607 255H281.306V240.908H279.587L275.837 243.604V245.371L279.568 242.773H279.607V255ZM290.358 255.234C293.239 255.234 295.348 253.223 295.348 250.449V250.43C295.348 247.754 293.356 245.771 290.67 245.771C288.756 245.771 287.311 246.787 286.745 248.037H286.706C286.706 247.93 286.706 247.832 286.715 247.734C286.794 244.775 287.829 242.227 290.456 242.227C291.901 242.227 292.907 242.949 293.327 244.111L293.366 244.219H295.153L295.124 244.092C294.655 242.041 292.868 240.674 290.475 240.674C287.028 240.674 285.006 243.447 285.006 248.193V248.213C285.006 253.438 287.76 255.234 290.358 255.234ZM287.126 250.43V250.42C287.126 248.623 288.522 247.314 290.368 247.314C292.223 247.314 293.561 248.633 293.561 250.469V250.488C293.561 252.266 292.135 253.672 290.338 253.672C288.532 253.672 287.126 252.236 287.126 250.43Z" fill="black"/>
<path d="M328.978 254H330.677V239.908H328.958L325.208 242.604V244.371L328.939 241.773H328.978V254ZM335.442 254H337.288L343.557 241.539V239.908H334.231V241.471H341.819V241.51L335.442 254Z" fill="black"/>
<path d="M375.117 255H376.816V240.908H375.097L371.347 243.604V245.371L375.078 242.773H375.117V255ZM385.624 255.234C388.612 255.234 390.741 253.555 390.741 251.191V251.172C390.741 249.434 389.52 247.988 387.713 247.568V247.529C389.256 247.051 390.233 245.879 390.233 244.395V244.375C390.233 242.246 388.29 240.674 385.624 240.674C382.958 240.674 381.014 242.246 381.014 244.375V244.395C381.014 245.879 381.991 247.051 383.534 247.529V247.568C381.727 247.988 380.506 249.434 380.506 251.172V251.191C380.506 253.555 382.635 255.234 385.624 255.234ZM385.624 246.875C383.924 246.875 382.762 245.908 382.762 244.541V244.521C382.762 243.154 383.924 242.188 385.624 242.188C387.323 242.188 388.485 243.154 388.485 244.521V244.541C388.485 245.908 387.323 246.875 385.624 246.875ZM385.624 253.701C383.68 253.701 382.294 252.607 382.294 251.084V251.064C382.294 249.521 383.67 248.418 385.624 248.418C387.577 248.418 388.954 249.521 388.954 251.064V251.084C388.954 252.607 387.567 253.701 385.624 253.701Z" fill="black"/>
<path d="M89.9409 301H91.6401V286.908H89.9213L86.1713 289.604V291.371L89.9018 288.773H89.9409V301ZM100.555 286.674C97.6744 286.674 95.565 288.686 95.565 291.459V291.479C95.565 294.154 97.5572 296.137 100.243 296.137C102.157 296.137 103.602 295.121 104.169 293.871H104.208C104.208 293.979 104.208 294.076 104.198 294.174C104.12 297.133 103.085 299.682 100.458 299.682C99.0123 299.682 98.0064 298.959 97.5865 297.797L97.5474 297.689H95.7603L95.7896 297.816C96.2584 299.867 98.0455 301.234 100.438 301.234C103.885 301.234 105.907 298.461 105.907 293.715V293.695C105.907 288.471 103.153 286.674 100.555 286.674ZM100.545 294.594C98.69 294.594 97.3521 293.275 97.3521 291.439V291.42C97.3521 289.643 98.7779 288.236 100.575 288.236C102.381 288.236 103.788 289.672 103.788 291.479V291.488C103.788 293.285 102.391 294.594 100.545 294.594Z" fill="black"/>
<path d="M132.89 301H142.187V299.438H135.302V299.398L138.652 295.961C141.24 293.314 141.953 292.152 141.953 290.609V290.59C141.953 288.383 140.087 286.674 137.539 286.674C134.912 286.674 132.802 288.48 132.802 290.922V290.98H134.501V290.932C134.501 289.418 135.81 288.207 137.568 288.207C139.101 288.207 140.185 289.242 140.195 290.678V290.697C140.195 291.869 139.755 292.631 137.851 294.613L132.89 299.789V301ZM149.51 301.234C152.753 301.234 154.696 298.432 154.696 293.959V293.939C154.696 289.467 152.753 286.674 149.51 286.674C146.268 286.674 144.344 289.467 144.344 293.939V293.959C144.344 298.432 146.268 301.234 149.51 301.234ZM149.51 299.701C147.362 299.701 146.112 297.494 146.112 293.959V293.939C146.112 290.404 147.362 288.217 149.51 288.217C151.659 288.217 152.928 290.404 152.928 293.939V293.959C152.928 297.494 151.659 299.701 149.51 299.701Z" fill="black"/>
<path d="M182.189 301H191.486V299.438H184.601V299.398L187.951 295.961C190.539 293.314 191.251 292.152 191.251 290.609V290.59C191.251 288.383 189.386 286.674 186.837 286.674C184.21 286.674 182.101 288.48 182.101 290.922V290.98H183.8V290.932C183.8 289.418 185.109 288.207 186.867 288.207C188.4 288.207 189.484 289.242 189.494 290.678V290.697C189.494 291.869 189.054 292.631 187.15 294.613L182.189 299.789V301ZM197.491 301H199.19V286.908H197.471L193.721 289.604V291.371L197.452 288.773H197.491V301Z" fill="black"/>
<path d="M228.624 301H237.921V299.438H231.037V299.398L234.386 295.961C236.974 293.314 237.687 292.152 237.687 290.609V290.59C237.687 288.383 235.822 286.674 233.273 286.674C230.646 286.674 228.537 288.48 228.537 290.922V290.98H230.236V290.932C230.236 289.418 231.544 288.207 233.302 288.207C234.835 288.207 235.919 289.242 235.929 290.678V290.697C235.929 291.869 235.49 292.631 233.585 294.613L228.624 299.789V301ZM240.333 301H249.629V299.438H242.745V299.398L246.094 295.961C248.682 293.314 249.395 292.152 249.395 290.609V290.59C249.395 288.383 247.53 286.674 244.981 286.674C242.354 286.674 240.245 288.48 240.245 290.922V290.98H241.944V290.932C241.944 289.418 243.253 288.207 245.01 288.207C246.544 288.207 247.628 289.242 247.637 290.678V290.697C247.637 291.869 247.198 292.631 245.294 294.613L240.333 299.789V301Z" fill="black"/>
<path d="M275.037 301H284.333V299.438H277.449V299.398L280.798 295.961C283.386 293.314 284.099 292.152 284.099 290.609V290.59C284.099 288.383 282.234 286.674 279.685 286.674C277.058 286.674 274.949 288.48 274.949 290.922V290.98H276.648V290.932C276.648 289.418 277.956 288.207 279.714 288.207C281.248 288.207 282.331 289.242 282.341 290.678V290.697C282.341 291.869 281.902 292.631 279.998 294.613L275.037 299.789V301ZM291.491 301.234C294.313 301.234 296.383 299.496 296.383 297.143V297.123C296.383 295.121 294.987 293.842 292.936 293.666V293.627C294.694 293.256 295.924 292.064 295.924 290.326V290.307C295.924 288.168 294.157 286.674 291.471 286.674C288.835 286.674 287.018 288.207 286.794 290.502L286.784 290.6H288.473L288.483 290.502C288.629 289.076 289.811 288.197 291.471 288.197C293.19 288.197 294.157 289.047 294.157 290.521V290.541C294.157 291.947 292.985 292.982 291.305 292.982H289.616V294.467H291.383C293.356 294.467 294.596 295.434 294.596 297.162V297.182C294.596 298.676 293.336 299.711 291.491 299.711C289.616 299.711 288.346 298.754 288.2 297.367L288.19 297.27H286.501L286.51 297.387C286.696 299.613 288.581 301.234 291.491 301.234Z" fill="black"/>
<path d="M323.822 300H333.119V298.438H326.234V298.398L329.583 294.961C332.171 292.314 332.884 291.152 332.884 289.609V289.59C332.884 287.383 331.019 285.674 328.47 285.674C325.843 285.674 323.734 287.48 323.734 289.922V289.98H325.433V289.932C325.433 288.418 326.742 287.207 328.499 287.207C330.033 287.207 331.117 288.242 331.126 289.678V289.697C331.126 290.869 330.687 291.631 328.783 293.613L323.822 298.789V300ZM341.741 300H343.44V297.07H345.432V295.527H343.44V285.908H340.842L334.661 295.479V297.07H341.741V300ZM336.399 295.527V295.488L341.682 287.412H341.741V295.527H336.399Z" fill="black"/>
<path d="M370.439 301H379.736V299.438H372.851V299.398L376.201 295.961C378.789 293.314 379.501 292.152 379.501 290.609V290.59C379.501 288.383 377.636 286.674 375.087 286.674C372.46 286.674 370.351 288.48 370.351 290.922V290.98H372.05V290.932C372.05 289.418 373.359 288.207 375.117 288.207C376.65 288.207 377.734 289.242 377.744 290.678V290.697C377.744 291.869 377.304 292.631 375.4 294.613L370.439 299.789V301ZM386.991 301.234C389.92 301.234 392.001 299.262 392.01 296.439V296.42C392.01 293.715 390.057 291.752 387.352 291.752C385.985 291.752 384.813 292.26 384.149 293.207H384.11L384.588 288.471H391.21V286.908H383.143L382.42 294.945H383.973C384.159 294.623 384.383 294.35 384.637 294.115C385.262 293.549 386.083 293.266 387.04 293.266C388.905 293.266 390.243 294.594 390.253 296.449V296.469C390.253 298.363 388.924 299.691 387.01 299.691C385.321 299.691 384.071 298.627 383.895 297.23L383.885 297.152H382.157L382.167 297.26C382.372 299.555 384.295 301.234 386.991 301.234Z" fill="black"/>
<path d="M85.1166 347H94.4135V345.438H87.5288V345.398L90.8784 341.961C93.4663 339.314 94.1791 338.152 94.1791 336.609V336.59C94.1791 334.383 92.3139 332.674 89.7651 332.674C87.1381 332.674 85.0288 334.48 85.0288 336.922V336.98H86.728V336.932C86.728 335.418 88.0366 334.207 89.7944 334.207C91.3276 334.207 92.4116 335.242 92.4213 336.678V336.697C92.4213 337.869 91.9819 338.631 90.0776 340.613L85.1166 345.789V347ZM101.922 347.234C104.803 347.234 106.913 345.223 106.913 342.449V342.43C106.913 339.754 104.92 337.771 102.235 337.771C100.321 337.771 98.8755 338.787 98.3091 340.037H98.2701C98.2701 339.93 98.2701 339.832 98.2798 339.734C98.358 336.775 99.3931 334.227 102.02 334.227C103.465 334.227 104.471 334.949 104.891 336.111L104.93 336.219H106.717L106.688 336.092C106.219 334.041 104.432 332.674 102.04 332.674C98.5923 332.674 96.5709 335.447 96.5709 340.193V340.213C96.5709 345.438 99.3248 347.234 101.922 347.234ZM98.69 342.43V342.42C98.69 340.623 100.086 339.314 101.932 339.314C103.788 339.314 105.126 340.633 105.126 342.469V342.488C105.126 344.266 103.7 345.672 101.903 345.672C100.096 345.672 98.69 344.236 98.69 342.43Z" fill="black"/>
<path d="M133.486 347H142.783V345.438H135.898V345.398L139.248 341.961C141.835 339.314 142.548 338.152 142.548 336.609V336.59C142.548 334.383 140.683 332.674 138.134 332.674C135.507 332.674 133.398 334.48 133.398 336.922V336.98H135.097V336.932C135.097 335.418 136.406 334.207 138.164 334.207C139.697 334.207 140.781 335.242 140.79 336.678V336.697C140.79 337.869 140.351 338.631 138.447 340.613L133.486 345.789V347ZM146.004 347H147.85L154.12 334.539V332.908H144.794V334.471H152.381V334.51L146.004 347Z" fill="black"/>
<path d="M180.626 347H189.923V345.438H183.039V345.398L186.388 341.961C188.976 339.314 189.689 338.152 189.689 336.609V336.59C189.689 334.383 187.824 332.674 185.275 332.674C182.648 332.674 180.539 334.48 180.539 336.922V336.98H182.238V336.932C182.238 335.418 183.546 334.207 185.304 334.207C186.837 334.207 187.921 335.242 187.931 336.678V336.697C187.931 337.869 187.492 338.631 185.587 340.613L180.626 345.789V347ZM197.188 347.234C200.176 347.234 202.305 345.555 202.305 343.191V343.172C202.305 341.434 201.085 339.988 199.278 339.568V339.529C200.821 339.051 201.797 337.879 201.797 336.395V336.375C201.797 334.246 199.854 332.674 197.188 332.674C194.522 332.674 192.579 334.246 192.579 336.375V336.395C192.579 337.879 193.555 339.051 195.098 339.529V339.568C193.292 339.988 192.071 341.434 192.071 343.172V343.191C192.071 345.555 194.2 347.234 197.188 347.234ZM197.188 338.875C195.489 338.875 194.327 337.908 194.327 336.541V336.521C194.327 335.154 195.489 334.188 197.188 334.188C198.887 334.188 200.049 335.154 200.049 336.521V336.541C200.049 337.908 198.887 338.875 197.188 338.875ZM197.188 345.701C195.245 345.701 193.858 344.607 193.858 343.084V343.064C193.858 341.521 195.235 340.418 197.188 340.418C199.141 340.418 200.518 341.521 200.518 343.064V343.084C200.518 344.607 199.131 345.701 197.188 345.701Z" fill="black"/>
<path d="M228.117 347H237.414V345.438H230.529V345.398L233.878 341.961C236.466 339.314 237.179 338.152 237.179 336.609V336.59C237.179 334.383 235.314 332.674 232.765 332.674C230.138 332.674 228.029 334.48 228.029 336.922V336.98H229.728V336.932C229.728 335.418 231.037 334.207 232.794 334.207C234.328 334.207 235.412 335.242 235.421 336.678V336.697C235.421 337.869 234.982 338.631 233.078 340.613L228.117 345.789V347ZM244.786 332.674C241.905 332.674 239.795 334.686 239.795 337.459V337.479C239.795 340.154 241.788 342.137 244.473 342.137C246.387 342.137 247.833 341.121 248.399 339.871H248.438C248.438 339.979 248.438 340.076 248.428 340.174C248.35 343.133 247.315 345.682 244.688 345.682C243.243 345.682 242.237 344.959 241.817 343.797L241.778 343.689H239.991L240.02 343.816C240.489 345.867 242.276 347.234 244.669 347.234C248.116 347.234 250.137 344.461 250.137 339.715V339.695C250.137 334.471 247.383 332.674 244.786 332.674ZM244.776 340.594C242.92 340.594 241.583 339.275 241.583 337.439V337.42C241.583 335.643 243.008 334.236 244.805 334.236C246.612 334.236 248.018 335.672 248.018 337.479V337.488C248.018 339.285 246.622 340.594 244.776 340.594Z" fill="black"/>
<path d="M279.382 347.234C282.205 347.234 284.275 345.496 284.275 343.143V343.123C284.275 341.121 282.878 339.842 280.828 339.666V339.627C282.585 339.256 283.816 338.064 283.816 336.326V336.307C283.816 334.168 282.048 332.674 279.363 332.674C276.726 332.674 274.91 334.207 274.685 336.502L274.675 336.6H276.365L276.374 336.502C276.521 335.076 277.703 334.197 279.363 334.197C281.081 334.197 282.048 335.047 282.048 336.521V336.541C282.048 337.947 280.876 338.982 279.197 338.982H277.507V340.467H279.275C281.248 340.467 282.488 341.434 282.488 343.162V343.182C282.488 344.676 281.228 345.711 279.382 345.711C277.507 345.711 276.238 344.754 276.091 343.367L276.081 343.27H274.392L274.402 343.387C274.587 345.613 276.472 347.234 279.382 347.234ZM291.764 347.234C295.006 347.234 296.95 344.432 296.95 339.959V339.939C296.95 335.467 295.006 332.674 291.764 332.674C288.522 332.674 286.598 335.467 286.598 339.939V339.959C286.598 344.432 288.522 347.234 291.764 347.234ZM291.764 345.701C289.616 345.701 288.366 343.494 288.366 339.959V339.939C288.366 336.404 289.616 334.217 291.764 334.217C293.913 334.217 295.182 336.404 295.182 339.939V339.959C295.182 343.494 293.913 345.701 291.764 345.701Z" fill="black"/>
<path d="M329.681 346.234C332.503 346.234 334.574 344.496 334.574 342.143V342.123C334.574 340.121 333.177 338.842 331.126 338.666V338.627C332.884 338.256 334.115 337.064 334.115 335.326V335.307C334.115 333.168 332.347 331.674 329.662 331.674C327.025 331.674 325.208 333.207 324.984 335.502L324.974 335.6H326.664L326.673 335.502C326.82 334.076 328.001 333.197 329.662 333.197C331.38 333.197 332.347 334.047 332.347 335.521V335.541C332.347 336.947 331.175 337.982 329.496 337.982H327.806V339.467H329.574C331.546 339.467 332.787 340.434 332.787 342.162V342.182C332.787 343.676 331.527 344.711 329.681 344.711C327.806 344.711 326.537 343.754 326.39 342.367L326.38 342.27H324.691L324.701 342.387C324.886 344.613 326.771 346.234 329.681 346.234ZM340.745 346H342.444V331.908H340.725L336.975 334.604V336.371L340.706 333.773H340.745V346Z" fill="black"/>
<path d="M82.715 394H80.131V384.123H76.289V381.794H86.574V384.123H82.715V394ZM90.4894 382.814C90.4894 383.613 89.8434 384.208 88.9084 384.208C87.9904 384.208 87.3444 383.613 87.3444 382.814C87.3444 381.981 87.9904 381.386 88.9084 381.386C89.8434 381.386 90.4894 381.981 90.4894 382.814ZM90.1154 394H87.7524V384.922H90.1154V394ZM94.1733 394H91.8103V384.922H93.9863V386.214C94.6493 385.296 95.4993 384.752 96.7063 384.752C97.9473 384.752 98.8993 385.33 99.3583 386.367C100.072 385.364 100.99 384.752 102.35 384.752C104.186 384.752 105.427 385.959 105.427 388.135V394H103.081V388.883C103.081 387.608 102.537 386.843 101.5 386.843C100.565 386.843 99.8003 387.574 99.8003 388.934V394H97.4543V388.883C97.4543 387.608 96.9103 386.843 95.8733 386.843C94.9213 386.843 94.1733 387.574 94.1733 388.934V394ZM110.985 394.153C108.265 394.153 106.446 392.266 106.446 389.427C106.446 386.724 108.333 384.752 110.951 384.752C113.824 384.752 115.728 387.081 115.303 390.039H108.86C109.013 391.518 109.727 392.334 110.934 392.334C111.971 392.334 112.668 391.824 112.94 390.923H115.286C114.776 392.98 113.195 394.153 110.985 394.153ZM110.9 386.486C109.795 386.486 109.098 387.2 108.894 388.543H112.804C112.736 387.285 112.022 386.486 110.9 386.486Z" fill="black"/>
<rect x="318" y="370" width="83" height="34" rx="8" fill="#767680" fill-opacity="0.12"/>
<path d="M335.287 381.641C337.786 381.641 339.622 383.375 339.622 385.636C339.622 387.132 339.01 388.067 337.956 389.342L334.165 394H332.822L336.613 389.325C336.086 389.512 335.559 389.614 335.049 389.614C332.72 389.614 330.918 388.05 330.918 385.653C330.918 383.375 332.771 381.641 335.287 381.641ZM335.287 382.627C333.451 382.627 332.125 383.919 332.125 385.636C332.125 387.455 333.451 388.696 335.287 388.696C337.072 388.696 338.432 387.625 338.432 385.653C338.432 383.919 337.072 382.627 335.287 382.627ZM343.415 386.095C343.415 386.724 342.973 387.166 342.344 387.166C341.732 387.166 341.273 386.724 341.273 386.095C341.273 385.466 341.732 385.007 342.344 385.007C342.973 385.007 343.415 385.466 343.415 386.095ZM343.415 393.014C343.415 393.626 342.973 394.085 342.344 394.085C341.732 394.085 341.273 393.626 341.273 393.014C341.273 392.368 341.732 391.926 342.344 391.926C342.973 391.926 343.415 392.368 343.415 393.014ZM353.747 391.059H352.064V394H350.891V391.059H344.737V390.277L351.248 381.794H352.064V390.039H353.747V391.059ZM346.131 390.039H350.891V383.749L346.131 390.039ZM357.79 394H356.634V382.814H354.135V381.794H357.79V394ZM372.055 394L370.78 390.617H365.085L363.793 394H362.535L367.278 381.794H368.672L373.398 394H372.055ZM367.941 383.154L365.476 389.58H370.372L367.941 383.154ZM380.442 394L376.022 383.647V394H374.832V381.794H376.481L381.003 392.436L385.559 381.794H387.191V394H386.018V383.647L381.564 394H380.442Z" fill="black"/>
</g>
<defs>
<filter id="filter0_d_2310_17141" x="0" y="0" width="477" height="490" filterUnits="userSpaceOnUse" color-interpolation-filters="sRGB">
<feFlood flood-opacity="0" result="BackgroundImageFix"/>
<feColorMatrix in="SourceAlpha" type="matrix" values="0 0 0 0 0 0 0 0 0 0 0 0 0 0 0 0 0 0 127 0" result="hardAlpha"/>
<feOffset dy="10"/>
<feGaussianBlur stdDeviation="30"/>
<feColorMatrix type="matrix" values="0 0 0 0 0 0 0 0 0 0 0 0 0 0 0 0 0 0 0.1 0"/>
<feBlend mode="normal" in2="BackgroundImageFix" result="effect1_dropShadow_2310_17141"/>
<feBlend mode="normal" in="SourceGraphic" in2="effect1_dropShadow_2310_17141" result="shape"/>
</filter>
<clipPath id="clip0_2310_17141">
<rect width="123.69" height="22" fill="white" transform="translate(76 77)"/>
</clipPath>
</defs>
</svg>
