<svg width="92" height="92" viewBox="0 0 92 92" fill="none" xmlns="http://www.w3.org/2000/svg">
<rect y="0.0751953" width="91.5618" height="91.5618" rx="20" fill="#E74D89"/>
<path d="M46 71.0752C32.2177 71.0752 21 59.8575 21 46.0752C21 32.2929 32.2177 21.0752 46 21.0752C59.7823 21.0752 71 32.2929 71 46.0752C71 59.8575 59.7823 71.0752 46 71.0752ZM46 25.1075C34.4355 25.1075 25.0323 34.5107 25.0323 46.0752C25.0323 57.6397 34.4355 67.0429 46 67.0429C57.5645 67.0429 66.9677 57.6397 66.9677 46.0752C66.9677 34.5107 57.5645 25.1075 46 25.1075Z" fill="white"/>
<path d="M38.7435 43.6155C34.0177 43.6155 28.9048 42.9138 23.4532 41.4945C22.3725 41.2122 21.7274 40.1155 22.0096 39.0348C22.2919 37.9542 23.3887 37.309 24.4693 37.5913C40.9854 41.8816 53.9129 39.1638 61.8484 29.7445C62.5661 28.8977 63.8403 28.7848 64.6871 29.5025C65.5419 30.2203 65.6467 31.4945 64.929 32.3413C58.6306 39.8171 49.7274 43.6155 38.7435 43.6155Z" fill="white"/>
<path d="M28.6646 63.1796C28.1969 63.1796 27.7372 63.0183 27.3582 62.6958C26.5114 61.97 26.4146 60.6958 27.1324 59.849C38.9227 46.0667 54.1807 42.7925 68.9953 50.8813C69.9711 51.4135 70.334 52.6393 69.8017 53.6151C69.2695 54.5909 68.0437 54.9538 67.0678 54.4216C49.2775 44.72 36.334 55.3006 30.1969 62.478C29.8017 62.9377 29.2372 63.1796 28.6646 63.1796Z" fill="white"/>
<path d="M52.6061 70.1082C52.5335 70.1082 52.4609 70.1082 52.3883 70.1002C51.2835 69.9792 50.4851 68.9873 50.6061 67.8744C52.1786 53.455 48.469 38.9147 39.5899 24.6405C39.0012 23.697 39.2916 22.455 40.2351 21.8663C41.1786 21.2776 42.4206 21.5679 43.0093 22.5115C52.3803 37.5679 56.2835 52.9792 54.6141 68.3179C54.4932 69.3502 53.6222 70.1082 52.6061 70.1082Z" fill="white"/>
</svg>
