<svg width="324" height="472" viewBox="0 0 324 472" fill="none" xmlns="http://www.w3.org/2000/svg">
<rect x="0.5" y="0.5" width="323" height="471" rx="15.5" stroke="#999999" stroke-dasharray="10 5"/>
<rect x="32" y="32" width="192" height="56" rx="12" fill="#F5E3C7"/>
<path d="M72 61C72.5523 61 73 60.5523 73 60C73 59.4477 72.5523 59 72 59C71.4477 59 71 59.4477 71 60C71 60.5523 71.4477 61 72 61Z" fill="#A96D25"/>
<path fill-rule="evenodd" clip-rule="evenodd" d="M80 60C80 64.4183 76.4183 68 72 68C67.5817 68 64 64.4183 64 60C64 55.5817 67.5817 52 72 52C76.4183 52 80 55.5817 80 60ZM75 56L70 58L68 63L69 64L74 62L76 57L75 56Z" fill="#A96D25"/>
<path d="M92.8311 52.4545H96.7587L99.834 58.5412H99.9618L103.037 52.4545H106.965L101.645 62.142V67H98.1507V62.142L92.8311 52.4545ZM121.41 59.7273C121.41 61.3277 121.102 62.6842 120.487 63.7969C119.871 64.9096 119.038 65.7547 117.987 66.3324C116.94 66.91 115.766 67.1989 114.464 67.1989C113.157 67.1989 111.981 66.9077 110.934 66.3253C109.888 65.7429 109.057 64.8977 108.441 63.7898C107.83 62.6771 107.525 61.3229 107.525 59.7273C107.525 58.1269 107.83 56.7704 108.441 55.6577C109.057 54.545 109.888 53.6998 110.934 53.1222C111.981 52.5445 113.157 52.2557 114.464 52.2557C115.766 52.2557 116.94 52.5445 117.987 53.1222C119.038 53.6998 119.871 54.545 120.487 55.6577C121.102 56.7704 121.41 58.1269 121.41 59.7273ZM117.816 59.7273C117.816 58.7803 117.681 57.9801 117.411 57.3267C117.146 56.6733 116.763 56.1785 116.261 55.8423C115.764 55.5062 115.165 55.3381 114.464 55.3381C113.768 55.3381 113.169 55.5062 112.667 55.8423C112.165 56.1785 111.779 56.6733 111.509 57.3267C111.244 57.9801 111.112 58.7803 111.112 59.7273C111.112 60.6742 111.244 61.4744 111.509 62.1278C111.779 62.7812 112.165 63.276 112.667 63.6122C113.169 63.9484 113.768 64.1165 114.464 64.1165C115.165 64.1165 115.764 63.9484 116.261 63.6122C116.763 63.276 117.146 62.7812 117.411 62.1278C117.681 61.4744 117.816 60.6742 117.816 59.7273ZM132.462 52.4545H135.971V61.8366C135.971 62.9209 135.713 63.8655 135.197 64.6705C134.681 65.4706 133.961 66.0909 133.038 66.5312C132.114 66.9669 131.042 67.1847 129.82 67.1847C128.584 67.1847 127.505 66.9669 126.582 66.5312C125.658 66.0909 124.941 65.4706 124.43 64.6705C123.918 63.8655 123.663 62.9209 123.663 61.8366V52.4545H127.178V61.5312C127.178 62.0331 127.287 62.4806 127.505 62.8736C127.727 63.2666 128.038 63.5743 128.435 63.7969C128.833 64.0194 129.295 64.1307 129.82 64.1307C130.346 64.1307 130.805 64.0194 131.198 63.7969C131.596 63.5743 131.906 63.2666 132.128 62.8736C132.351 62.4806 132.462 62.0331 132.462 61.5312V52.4545ZM137.898 55.3097V52.4545H150.192V55.3097H145.782V67H142.316V55.3097H137.898ZM160.909 52.4545H164.418V61.8366C164.418 62.9209 164.16 63.8655 163.644 64.6705C163.127 65.4706 162.408 66.0909 161.484 66.5312C160.561 66.9669 159.489 67.1847 158.267 67.1847C157.031 67.1847 155.952 66.9669 155.028 66.5312C154.105 66.0909 153.388 65.4706 152.876 64.6705C152.365 63.8655 152.109 62.9209 152.109 61.8366V52.4545H155.625V61.5312C155.625 62.0331 155.734 62.4806 155.952 62.8736C156.174 63.2666 156.484 63.5743 156.882 63.7969C157.28 64.0194 157.742 64.1307 158.267 64.1307C158.793 64.1307 159.252 64.0194 159.645 63.7969C160.043 63.5743 160.353 63.2666 160.575 62.8736C160.798 62.4806 160.909 62.0331 160.909 61.5312V52.4545ZM166.821 67V52.4545H172.887C173.976 52.4545 174.887 52.6084 175.621 52.9162C176.36 53.224 176.913 53.6548 177.283 54.2088C177.657 54.7628 177.844 55.4044 177.844 56.1335C177.844 56.6875 177.728 57.1823 177.496 57.6179C177.264 58.0488 176.944 58.4062 176.537 58.6903C176.13 58.9744 175.659 59.1733 175.124 59.2869V59.429C175.711 59.4574 176.253 59.616 176.75 59.9048C177.252 60.1937 177.655 60.5961 177.958 61.1122C178.261 61.6236 178.412 62.2296 178.412 62.9304C178.412 63.7116 178.213 64.41 177.815 65.0256C177.418 65.6364 176.842 66.1193 176.09 66.4744C175.337 66.8248 174.423 67 173.348 67H166.821ZM170.337 64.1662H172.51C173.272 64.1662 173.833 64.0218 174.193 63.733C174.558 63.4441 174.74 63.0417 174.74 62.5256C174.74 62.1515 174.653 61.8295 174.477 61.5597C174.302 61.285 174.054 61.0743 173.732 60.9276C173.41 60.776 173.024 60.7003 172.574 60.7003H170.337V64.1662ZM170.337 58.4347H172.283C172.666 58.4347 173.007 58.3707 173.306 58.2429C173.604 58.1151 173.836 57.9304 174.002 57.6889C174.172 57.4474 174.257 57.1562 174.257 56.8153C174.257 56.3277 174.084 55.9441 173.739 55.6648C173.393 55.3854 172.927 55.2457 172.34 55.2457H170.337V58.4347ZM180.302 67V52.4545H190.444V55.3097H183.818V58.2926H189.926V61.1548H183.818V64.1449H190.444V67H180.302Z" fill="#A96D25"/>
<rect x="32" y="120" width="161" height="56" rx="12" fill="#DED9FF"/>
<path d="M72 149C72.5523 149 73 148.552 73 148C73 147.448 72.5523 147 72 147C71.4477 147 71 147.448 71 148C71 148.552 71.4477 149 72 149Z" fill="#4C4096"/>
<path fill-rule="evenodd" clip-rule="evenodd" d="M80 148C80 152.418 76.4183 156 72 156C67.5817 156 64 152.418 64 148C64 143.582 67.5817 140 72 140C76.4183 140 80 143.582 80 148ZM75 144L70 146L68 151L69 152L74 150L76 145L75 144Z" fill="#4C4096"/>
<path d="M101.342 144.815C101.295 144.295 101.084 143.89 100.71 143.601C100.341 143.307 99.813 143.161 99.1265 143.161C98.6719 143.161 98.2931 143.22 97.9901 143.338C97.6871 143.456 97.4598 143.62 97.3083 143.828C97.1568 144.032 97.0786 144.266 97.0739 144.531C97.0644 144.749 97.107 144.941 97.2017 145.107C97.3012 145.272 97.4432 145.419 97.6279 145.547C97.8173 145.67 98.0445 145.779 98.3097 145.874C98.5748 145.968 98.8731 146.051 99.2046 146.122L100.455 146.406C101.174 146.562 101.809 146.771 102.358 147.031C102.912 147.292 103.376 147.602 103.75 147.962C104.129 148.321 104.415 148.736 104.609 149.205C104.804 149.673 104.903 150.199 104.908 150.781C104.903 151.7 104.671 152.488 104.212 153.146C103.752 153.804 103.092 154.309 102.23 154.659C101.373 155.009 100.339 155.185 99.1265 155.185C97.9096 155.185 96.849 155.002 95.9446 154.638C95.0403 154.273 94.3372 153.719 93.8353 152.976C93.3334 152.232 93.0753 151.293 93.0611 150.156H96.4276C96.456 150.625 96.5815 151.016 96.804 151.328C97.0265 151.641 97.3319 151.877 97.7202 152.038C98.1132 152.199 98.5677 152.28 99.0838 152.28C99.5573 152.28 99.9598 152.216 100.291 152.088C100.627 151.96 100.885 151.783 101.065 151.555C101.245 151.328 101.338 151.068 101.342 150.774C101.338 150.5 101.252 150.265 101.087 150.071C100.921 149.872 100.665 149.702 100.32 149.56C99.9787 149.413 99.5431 149.278 99.0128 149.155L97.4929 148.8C96.2335 148.511 95.2415 148.045 94.5171 147.401C93.7926 146.752 93.4328 145.876 93.4375 144.773C93.4328 143.873 93.6743 143.085 94.162 142.408C94.6497 141.731 95.3244 141.203 96.1861 140.824C97.0479 140.445 98.0303 140.256 99.1336 140.256C100.26 140.256 101.238 140.447 102.067 140.831C102.9 141.21 103.546 141.742 104.006 142.429C104.465 143.116 104.699 143.911 104.709 144.815H101.342ZM106.407 143.31V140.455H118.701V143.31H114.291V155H110.825V143.31H106.407ZM133.683 147.727C133.683 149.328 133.375 150.684 132.76 151.797C132.144 152.91 131.311 153.755 130.26 154.332C129.213 154.91 128.039 155.199 126.737 155.199C125.43 155.199 124.254 154.908 123.207 154.325C122.161 153.743 121.33 152.898 120.714 151.79C120.104 150.677 119.798 149.323 119.798 147.727C119.798 146.127 120.104 144.77 120.714 143.658C121.33 142.545 122.161 141.7 123.207 141.122C124.254 140.545 125.43 140.256 126.737 140.256C128.039 140.256 129.213 140.545 130.26 141.122C131.311 141.7 132.144 142.545 132.76 143.658C133.375 144.77 133.683 146.127 133.683 147.727ZM130.089 147.727C130.089 146.78 129.954 145.98 129.684 145.327C129.419 144.673 129.036 144.179 128.534 143.842C128.037 143.506 127.438 143.338 126.737 143.338C126.041 143.338 125.442 143.506 124.94 143.842C124.438 144.179 124.052 144.673 123.782 145.327C123.517 145.98 123.385 146.78 123.385 147.727C123.385 148.674 123.517 149.474 123.782 150.128C124.052 150.781 124.438 151.276 124.94 151.612C125.442 151.948 126.041 152.116 126.737 152.116C127.438 152.116 128.037 151.948 128.534 151.612C129.036 151.276 129.419 150.781 129.684 150.128C129.954 149.474 130.089 148.674 130.089 147.727ZM135.936 155V140.455H141.944C143.033 140.455 143.973 140.651 144.764 141.044C145.559 141.432 146.172 141.991 146.603 142.72C147.034 143.445 147.25 144.304 147.25 145.298C147.25 146.307 147.029 147.164 146.589 147.869C146.149 148.57 145.524 149.105 144.714 149.474C143.904 149.839 142.946 150.021 141.838 150.021H138.038V147.251H141.184C141.714 147.251 142.157 147.183 142.512 147.045C142.872 146.903 143.144 146.69 143.329 146.406C143.514 146.117 143.606 145.748 143.606 145.298C143.606 144.848 143.514 144.477 143.329 144.183C143.144 143.885 142.872 143.662 142.512 143.516C142.152 143.364 141.71 143.288 141.184 143.288H139.451V155H135.936ZM144.125 148.352L147.747 155H143.911L140.36 148.352H144.125ZM149.378 155V140.455H159.52V143.31H152.893V146.293H159.001V149.155H152.893V152.145H159.52V155H149.378Z" fill="#4C4096"/>
<rect x="32" y="208" width="217" height="56" rx="12" fill="#CEE2FF"/>
<path d="M72 237C72.5523 237 73 236.552 73 236C73 235.448 72.5523 235 72 235C71.4477 235 71 235.448 71 236C71 236.552 71.4477 237 72 237Z" fill="#314B73"/>
<path fill-rule="evenodd" clip-rule="evenodd" d="M80 236C80 240.418 76.4183 244 72 244C67.5817 244 64 240.418 64 236C64 231.582 67.5817 228 72 228C76.4183 228 80 231.582 80 236ZM75 232L70 234L68 239L69 240L74 238L76 233L75 232Z" fill="#314B73"/>
<path d="M97.0958 228.455V243H93.5801V228.455H97.0958ZM111.882 228.455V243H108.899L103.111 234.605H103.018V243H99.5028V228.455H102.528L108.253 236.835H108.374V228.455H111.882ZM122.155 232.815C122.108 232.295 121.897 231.89 121.523 231.601C121.153 231.307 120.626 231.161 119.939 231.161C119.484 231.161 119.106 231.22 118.803 231.338C118.5 231.456 118.272 231.62 118.121 231.828C117.969 232.032 117.891 232.266 117.886 232.531C117.877 232.749 117.92 232.941 118.014 233.107C118.114 233.272 118.256 233.419 118.44 233.547C118.63 233.67 118.857 233.779 119.122 233.874C119.387 233.968 119.686 234.051 120.017 234.122L121.267 234.406C121.987 234.562 122.621 234.771 123.17 235.031C123.724 235.292 124.188 235.602 124.563 235.962C124.941 236.321 125.228 236.736 125.422 237.205C125.616 237.673 125.715 238.199 125.72 238.781C125.715 239.7 125.483 240.488 125.024 241.146C124.565 241.804 123.904 242.309 123.043 242.659C122.186 243.009 121.151 243.185 119.939 243.185C118.722 243.185 117.661 243.002 116.757 242.638C115.853 242.273 115.15 241.719 114.648 240.976C114.146 240.232 113.888 239.293 113.874 238.156H117.24C117.269 238.625 117.394 239.016 117.617 239.328C117.839 239.641 118.144 239.877 118.533 240.038C118.926 240.199 119.38 240.28 119.896 240.28C120.37 240.28 120.772 240.216 121.104 240.088C121.44 239.96 121.698 239.783 121.878 239.555C122.058 239.328 122.15 239.068 122.155 238.774C122.15 238.5 122.065 238.265 121.899 238.071C121.733 237.872 121.478 237.702 121.132 237.56C120.791 237.413 120.356 237.278 119.825 237.155L118.305 236.8C117.046 236.511 116.054 236.045 115.33 235.401C114.605 234.752 114.245 233.876 114.25 232.773C114.245 231.873 114.487 231.085 114.974 230.408C115.462 229.731 116.137 229.203 116.999 228.824C117.86 228.445 118.843 228.256 119.946 228.256C121.073 228.256 122.051 228.447 122.879 228.831C123.713 229.21 124.359 229.742 124.818 230.429C125.277 231.116 125.512 231.911 125.521 232.815H122.155ZM127.22 231.31V228.455H139.514V231.31H135.103V243H131.638V231.31H127.22ZM142.761 243H138.982L143.89 228.455H148.57L153.478 243H149.7L146.284 232.119H146.17L142.761 243ZM142.257 237.276H150.154V239.946H142.257V237.276ZM164.106 233.206C164.026 232.908 163.907 232.645 163.751 232.418C163.595 232.186 163.403 231.989 163.176 231.828C162.948 231.667 162.688 231.546 162.394 231.466C162.101 231.381 161.779 231.338 161.429 231.338C160.723 231.338 160.112 231.509 159.596 231.849C159.085 232.19 158.689 232.687 158.41 233.341C158.131 233.99 157.991 234.778 157.991 235.706C157.991 236.639 158.126 237.434 158.396 238.092C158.666 238.75 159.056 239.252 159.568 239.598C160.079 239.944 160.699 240.116 161.429 240.116C162.072 240.116 162.617 240.012 163.062 239.804C163.512 239.591 163.853 239.29 164.085 238.902C164.317 238.514 164.433 238.057 164.433 237.531L165.086 237.609H161.549V235.045H167.821V236.97C167.821 238.272 167.544 239.387 166.99 240.315C166.44 241.243 165.683 241.956 164.717 242.453C163.756 242.95 162.65 243.199 161.4 243.199C160.013 243.199 158.794 242.898 157.742 242.297C156.691 241.696 155.872 240.839 155.285 239.726C154.698 238.608 154.404 237.283 154.404 235.749C154.404 234.555 154.582 233.497 154.937 232.574C155.292 231.646 155.787 230.86 156.421 230.216C157.061 229.572 157.799 229.084 158.637 228.753C159.48 228.421 160.387 228.256 161.357 228.256C162.2 228.256 162.984 228.376 163.708 228.618C164.438 228.859 165.081 229.2 165.64 229.641C166.204 230.081 166.661 230.604 167.011 231.21C167.361 231.816 167.579 232.482 167.664 233.206H164.106ZM170.093 243V228.455H176.101C177.19 228.455 178.13 228.651 178.921 229.044C179.716 229.432 180.329 229.991 180.76 230.72C181.191 231.445 181.407 232.304 181.407 233.298C181.407 234.307 181.186 235.164 180.746 235.869C180.306 236.57 179.681 237.105 178.871 237.474C178.061 237.839 177.103 238.021 175.995 238.021H172.195V235.251H175.341C175.872 235.251 176.314 235.183 176.669 235.045C177.029 234.903 177.301 234.69 177.486 234.406C177.671 234.117 177.763 233.748 177.763 233.298C177.763 232.848 177.671 232.477 177.486 232.183C177.301 231.885 177.029 231.662 176.669 231.516C176.309 231.364 175.867 231.288 175.341 231.288H173.608V243H170.093ZM178.282 236.352L181.904 243H178.068L174.517 236.352H178.282ZM186.681 243H182.903L187.81 228.455H192.491L197.398 243H193.62L190.204 232.119H190.09L186.681 243ZM186.177 237.276H194.075V239.946H186.177V237.276ZM199.165 228.455H203.518L207.211 237.46H207.382L211.075 228.455H215.429V243H212.005V234.065H211.885L208.39 242.908H206.203L202.709 234.016H202.588V243H199.165V228.455Z" fill="#314B73"/>
<rect x="32" y="296" width="260" height="56" rx="12" fill="#E0EDCD"/>
<path d="M72 325C72.5523 325 73 324.552 73 324C73 323.448 72.5523 323 72 323C71.4477 323 71 323.448 71 324C71 324.552 71.4477 325 72 325Z" fill="#3F7000"/>
<path fill-rule="evenodd" clip-rule="evenodd" d="M80 324C80 328.418 76.4183 332 72 332C67.5817 332 64 328.418 64 324C64 319.582 67.5817 316 72 316C76.4183 316 80 319.582 80 324ZM75 320L70 322L68 327L69 328L74 326L76 321L75 320Z" fill="#3F7000"/>
<path d="M96.728 331H92.9496L97.8573 316.455H102.538L107.445 331H103.667L100.251 320.119H100.137L96.728 331ZM96.2238 325.276H104.121V327.946H96.2238V325.276ZM109.211 331V316.455H119.14V319.31H112.727V322.293H118.508V325.155H112.727V331H109.211ZM121.111 331V316.455H131.04V319.31H124.626V322.293H130.407V325.155H124.626V331H121.111ZM136.525 316.455V331H133.01V316.455H136.525ZM138.932 331V316.455H142.448V328.145H148.499V331H138.932ZM154.035 316.455V331H150.519V316.455H154.035ZM159.588 331H155.81L160.717 316.455H165.398L170.306 331H166.527L163.111 320.119H162.997L159.588 331ZM159.084 325.276H166.982V327.946H159.084V325.276ZM169.779 319.31V316.455H182.073V319.31H177.663V331H174.197V319.31H169.779ZM183.99 331V316.455H194.132V319.31H187.506V322.293H193.614V325.155H187.506V328.145H194.132V331H183.99ZM201.031 331V316.455H204.547V328.145H210.598V331H201.031ZM216.133 316.455V331H212.618V316.455H216.133ZM230.92 316.455V331H227.937L222.148 322.605H222.056V331H218.54V316.455H221.566L227.29 324.835H227.411V316.455H230.92ZM233.33 331V316.455H236.846V322.605H237.038L241.846 316.455H245.986L240.83 322.946L246.079 331H241.874L238.252 325.283L236.846 327.058V331H233.33ZM255.279 320.815C255.232 320.295 255.021 319.89 254.647 319.601C254.278 319.307 253.75 319.161 253.063 319.161C252.609 319.161 252.23 319.22 251.927 319.338C251.624 319.456 251.397 319.62 251.245 319.828C251.093 320.032 251.015 320.266 251.011 320.531C251.001 320.749 251.044 320.941 251.138 321.107C251.238 321.272 251.38 321.419 251.565 321.547C251.754 321.67 251.981 321.779 252.246 321.874C252.512 321.968 252.81 322.051 253.141 322.122L254.391 322.406C255.111 322.562 255.745 322.771 256.295 323.031C256.849 323.292 257.313 323.602 257.687 323.962C258.066 324.321 258.352 324.736 258.546 325.205C258.74 325.673 258.84 326.199 258.844 326.781C258.84 327.7 258.608 328.488 258.148 329.146C257.689 329.804 257.029 330.309 256.167 330.659C255.31 331.009 254.275 331.185 253.063 331.185C251.846 331.185 250.786 331.002 249.881 330.638C248.977 330.273 248.274 329.719 247.772 328.976C247.27 328.232 247.012 327.293 246.998 326.156H250.364C250.393 326.625 250.518 327.016 250.741 327.328C250.963 327.641 251.269 327.877 251.657 328.038C252.05 328.199 252.504 328.28 253.021 328.28C253.494 328.28 253.897 328.216 254.228 328.088C254.564 327.96 254.822 327.783 255.002 327.555C255.182 327.328 255.274 327.068 255.279 326.774C255.274 326.5 255.189 326.265 255.023 326.071C254.858 325.872 254.602 325.702 254.256 325.56C253.915 325.413 253.48 325.278 252.95 325.155L251.43 324.8C250.17 324.511 249.178 324.045 248.454 323.401C247.729 322.752 247.37 321.876 247.374 320.773C247.37 319.873 247.611 319.085 248.099 318.408C248.586 317.731 249.261 317.203 250.123 316.824C250.985 316.445 251.967 316.256 253.07 316.256C254.197 316.256 255.175 316.447 256.004 316.831C256.837 317.21 257.483 317.742 257.942 318.429C258.402 319.116 258.636 319.911 258.646 320.815H255.279Z" fill="#3F7000"/>
<rect x="32" y="384" width="194" height="56" rx="12" fill="#E3E5F2"/>
<path d="M72 413C72.5523 413 73 412.552 73 412C73 411.448 72.5523 411 72 411C71.4477 411 71 411.448 71 412C71 412.552 71.4477 413 72 413Z" fill="#4C4096"/>
<path fill-rule="evenodd" clip-rule="evenodd" d="M80 412C80 416.418 76.4183 420 72 420C67.5817 420 64 416.418 64 412C64 407.582 67.5817 404 72 404C76.4183 404 80 407.582 80 412ZM75 408L70 410L68 415L69 416L74 414L76 409L75 408Z" fill="#4C4096"/>
<path d="M93.5009 419V404.455H99.5094C100.598 404.455 101.538 404.668 102.329 405.094C103.124 405.515 103.738 406.105 104.168 406.862C104.599 407.615 104.815 408.491 104.815 409.49C104.815 410.494 104.595 411.372 104.154 412.125C103.719 412.873 103.096 413.453 102.286 413.865C101.477 414.277 100.516 414.483 99.4028 414.483H95.6955V411.713H98.7494C99.2797 411.713 99.7224 411.621 100.078 411.436C100.437 411.251 100.71 410.993 100.894 410.662C101.079 410.326 101.171 409.935 101.171 409.49C101.171 409.04 101.079 408.652 100.894 408.325C100.71 407.994 100.437 407.738 100.078 407.558C99.7177 407.378 99.275 407.288 98.7494 407.288H97.0165V419H93.5009ZM120.476 411.727C120.476 413.328 120.169 414.684 119.553 415.797C118.938 416.91 118.104 417.755 117.053 418.332C116.007 418.91 114.832 419.199 113.53 419.199C112.224 419.199 111.047 418.908 110.001 418.325C108.954 417.743 108.123 416.898 107.508 415.79C106.897 414.677 106.591 413.323 106.591 411.727C106.591 410.127 106.897 408.77 107.508 407.658C108.123 406.545 108.954 405.7 110.001 405.122C111.047 404.545 112.224 404.256 113.53 404.256C114.832 404.256 116.007 404.545 117.053 405.122C118.104 405.7 118.938 406.545 119.553 407.658C120.169 408.77 120.476 410.127 120.476 411.727ZM116.883 411.727C116.883 410.78 116.748 409.98 116.478 409.327C116.213 408.673 115.829 408.179 115.327 407.842C114.83 407.506 114.231 407.338 113.53 407.338C112.834 407.338 112.235 407.506 111.734 407.842C111.232 408.179 110.846 408.673 110.576 409.327C110.311 409.98 110.178 410.78 110.178 411.727C110.178 412.674 110.311 413.474 110.576 414.128C110.846 414.781 111.232 415.276 111.734 415.612C112.235 415.948 112.834 416.116 113.53 416.116C114.231 416.116 114.83 415.948 115.327 415.612C115.829 415.276 116.213 414.781 116.478 414.128C116.748 413.474 116.883 412.674 116.883 411.727ZM128.105 419H122.729V404.455H128.098C129.58 404.455 130.856 404.746 131.926 405.328C133.001 405.906 133.83 406.739 134.412 407.828C134.995 408.912 135.286 410.21 135.286 411.72C135.286 413.235 134.995 414.537 134.412 415.626C133.835 416.715 133.008 417.551 131.934 418.134C130.859 418.711 129.583 419 128.105 419ZM126.245 416.003H127.97C128.785 416.003 129.474 415.866 130.037 415.591C130.605 415.312 131.034 414.859 131.323 414.234C131.616 413.605 131.763 412.767 131.763 411.72C131.763 410.674 131.616 409.84 131.323 409.22C131.029 408.595 130.596 408.145 130.023 407.871C129.455 407.591 128.754 407.452 127.921 407.452H126.245V416.003ZM150.741 409.724H147.19C147.143 409.36 147.046 409.031 146.899 408.737C146.752 408.444 146.558 408.193 146.317 407.984C146.075 407.776 145.789 407.617 145.457 407.509C145.131 407.395 144.768 407.338 144.371 407.338C143.665 407.338 143.057 407.511 142.545 407.857C142.039 408.202 141.648 408.702 141.374 409.355C141.104 410.009 140.969 410.799 140.969 411.727C140.969 412.693 141.106 413.503 141.381 414.156C141.66 414.805 142.051 415.295 142.553 415.626C143.059 415.953 143.658 416.116 144.349 416.116C144.738 416.116 145.09 416.067 145.408 415.967C145.73 415.868 146.011 415.723 146.253 415.534C146.499 415.34 146.7 415.106 146.857 414.831C147.018 414.552 147.129 414.237 147.19 413.886L150.741 413.908C150.68 414.552 150.493 415.186 150.18 415.811C149.873 416.436 149.449 417.007 148.909 417.523C148.369 418.034 147.711 418.441 146.935 418.744C146.163 419.047 145.277 419.199 144.278 419.199C142.962 419.199 141.783 418.91 140.741 418.332C139.705 417.75 138.885 416.902 138.284 415.79C137.683 414.677 137.382 413.323 137.382 411.727C137.382 410.127 137.688 408.77 138.298 407.658C138.909 406.545 139.735 405.7 140.777 405.122C141.819 404.545 142.986 404.256 144.278 404.256C145.159 404.256 145.973 404.379 146.722 404.625C147.47 404.866 148.128 405.222 148.696 405.69C149.264 406.154 149.726 406.725 150.081 407.402C150.436 408.079 150.656 408.853 150.741 409.724ZM155.728 419H151.95L156.858 404.455H161.538L166.446 419H162.667L159.251 408.119H159.138L155.728 419ZM155.224 413.276H163.122V415.946H155.224V413.276ZM175.625 408.815C175.577 408.295 175.367 407.89 174.993 407.601C174.623 407.307 174.095 407.161 173.409 407.161C172.954 407.161 172.576 407.22 172.273 407.338C171.969 407.456 171.742 407.62 171.591 407.828C171.439 408.032 171.361 408.266 171.356 408.531C171.347 408.749 171.389 408.941 171.484 409.107C171.584 409.272 171.726 409.419 171.91 409.547C172.1 409.67 172.327 409.779 172.592 409.874C172.857 409.968 173.156 410.051 173.487 410.122L174.737 410.406C175.457 410.562 176.091 410.771 176.64 411.031C177.194 411.292 177.658 411.602 178.032 411.962C178.411 412.321 178.698 412.736 178.892 413.205C179.086 413.673 179.185 414.199 179.19 414.781C179.185 415.7 178.953 416.488 178.494 417.146C178.035 417.804 177.374 418.309 176.513 418.659C175.656 419.009 174.621 419.185 173.409 419.185C172.192 419.185 171.131 419.002 170.227 418.638C169.323 418.273 168.62 417.719 168.118 416.976C167.616 416.232 167.358 415.293 167.344 414.156H170.71C170.738 414.625 170.864 415.016 171.086 415.328C171.309 415.641 171.614 415.877 172.003 416.038C172.396 416.199 172.85 416.28 173.366 416.28C173.84 416.28 174.242 416.216 174.574 416.088C174.91 415.96 175.168 415.783 175.348 415.555C175.528 415.328 175.62 415.068 175.625 414.774C175.62 414.5 175.535 414.265 175.369 414.071C175.203 413.872 174.948 413.702 174.602 413.56C174.261 413.413 173.826 413.278 173.295 413.155L171.775 412.8C170.516 412.511 169.524 412.045 168.8 411.401C168.075 410.752 167.715 409.876 167.72 408.773C167.715 407.873 167.957 407.085 168.444 406.408C168.932 405.731 169.607 405.203 170.469 404.824C171.33 404.445 172.313 404.256 173.416 404.256C174.543 404.256 175.521 404.447 176.349 404.831C177.183 405.21 177.829 405.742 178.288 406.429C178.747 407.116 178.982 407.911 178.991 408.815H175.625ZM180.69 407.31V404.455H192.984V407.31H188.573V419H185.107V407.31H180.69Z" fill="#4B4E5F"/>
</svg>
