<svg width="326" height="198" viewBox="0 0 326 198" fill="none" xmlns="http://www.w3.org/2000/svg">
<rect width="326" height="56" rx="12" fill="#B9F8CF"/>
<path fill-rule="evenodd" clip-rule="evenodd" d="M40 36C44.4183 36 48 32.4183 48 28C48 23.5817 44.4183 20 40 20C35.5817 20 32 23.5817 32 28C32 32.4183 35.5817 36 40 36ZM44.7071 25.7071L43.2929 24.2929L38.5 29.0858L36.7071 27.2929L35.2929 28.7071L38.5 31.9142L44.7071 25.7071Z" fill="#00A63E"/>
<path d="M61.4716 35V20.4545H67.4801C68.5691 20.4545 69.509 20.6676 70.2997 21.0938C71.0951 21.5152 71.7083 22.1046 72.1392 22.8622C72.57 23.6151 72.7855 24.491 72.7855 25.4901C72.7855 26.4938 72.5653 27.3722 72.125 28.125C71.6894 28.8731 71.0667 29.4531 70.2571 29.8651C69.4474 30.277 68.4862 30.483 67.3735 30.483H63.6662V27.7131H66.7201C67.2504 27.7131 67.6931 27.6207 68.0483 27.4361C68.4081 27.2514 68.6804 26.9934 68.865 26.6619C69.0497 26.3258 69.142 25.9351 69.142 25.4901C69.142 25.0402 69.0497 24.652 68.865 24.3253C68.6804 23.9938 68.4081 23.7382 68.0483 23.5582C67.6884 23.3783 67.2457 23.2884 66.7201 23.2884H64.9872V35H61.4716ZM76.1069 35H72.3285L77.2362 20.4545H81.9166L86.8243 35H83.0458L79.6297 24.1193H79.516L76.1069 35ZM75.6027 29.2756H83.5004V31.946H75.6027V29.2756ZM86.3815 20.4545H90.3091L93.3843 26.5412H93.5122L96.5875 20.4545H100.515L95.1954 30.142V35H91.7011V30.142L86.3815 20.4545ZM102.189 20.4545H106.542L110.236 29.4602H110.406L114.099 20.4545H118.453V35H115.03V26.0653H114.909L111.415 34.9077H109.227L105.733 26.0156H105.612V35H102.189V20.4545ZM120.846 35V20.4545H130.988V23.3097H124.361V26.2926H130.469V29.1548H124.361V32.1449H130.988V35H120.846ZM145.769 20.4545V35H142.786L136.997 26.6051H136.905V35H133.39V20.4545H136.415L142.14 28.8352H142.26V20.4545H145.769ZM147.704 23.3097V20.4545H159.998V23.3097H155.587V35H152.121V23.3097H147.704ZM179.615 25.7244H176.063C176.016 25.3598 175.919 25.0308 175.772 24.7372C175.625 24.4437 175.431 24.1927 175.19 23.9844C174.948 23.776 174.662 23.6174 174.33 23.5085C174.004 23.3949 173.642 23.3381 173.244 23.3381C172.538 23.3381 171.93 23.5109 171.419 23.8565C170.912 24.2022 170.521 24.7017 170.247 25.3551C169.977 26.0085 169.842 26.7992 169.842 27.7273C169.842 28.6932 169.979 29.5028 170.254 30.1562C170.533 30.8049 170.924 31.295 171.426 31.6264C171.932 31.9531 172.531 32.1165 173.222 32.1165C173.611 32.1165 173.963 32.0668 174.281 31.9673C174.603 31.8679 174.884 31.7235 175.126 31.5341C175.372 31.34 175.573 31.1056 175.73 30.831C175.891 30.5516 176.002 30.2367 176.063 29.8864L179.615 29.9077C179.553 30.5516 179.366 31.1861 179.053 31.8111C178.746 32.4361 178.322 33.0066 177.782 33.5227C177.242 34.0341 176.584 34.4413 175.808 34.7443C175.036 35.0473 174.151 35.1989 173.151 35.1989C171.835 35.1989 170.656 34.91 169.615 34.3324C168.578 33.75 167.758 32.9025 167.157 31.7898C166.556 30.6771 166.255 29.3229 166.255 27.7273C166.255 26.1269 166.561 24.7704 167.171 23.6577C167.782 22.545 168.608 21.6998 169.65 21.1222C170.692 20.5445 171.859 20.2557 173.151 20.2557C174.032 20.2557 174.847 20.3788 175.595 20.625C176.343 20.8665 177.001 21.2216 177.569 21.6903C178.137 22.1544 178.599 22.7249 178.954 23.402C179.309 24.0791 179.529 24.8532 179.615 25.7244ZM195.555 27.7273C195.555 29.3277 195.247 30.6842 194.632 31.7969C194.016 32.9096 193.183 33.7547 192.132 34.3324C191.085 34.91 189.911 35.1989 188.609 35.1989C187.302 35.1989 186.125 34.9077 185.079 34.3253C184.033 33.7429 183.202 32.8977 182.586 31.7898C181.975 30.6771 181.67 29.3229 181.67 27.7273C181.67 26.1269 181.975 24.7704 182.586 23.6577C183.202 22.545 184.033 21.6998 185.079 21.1222C186.125 20.5445 187.302 20.2557 188.609 20.2557C189.911 20.2557 191.085 20.5445 192.132 21.1222C193.183 21.6998 194.016 22.545 194.632 23.6577C195.247 24.7704 195.555 26.1269 195.555 27.7273ZM191.961 27.7273C191.961 26.7803 191.826 25.9801 191.556 25.3267C191.291 24.6733 190.908 24.1785 190.406 23.8423C189.909 23.5062 189.31 23.3381 188.609 23.3381C187.913 23.3381 187.314 23.5062 186.812 23.8423C186.31 24.1785 185.924 24.6733 185.654 25.3267C185.389 25.9801 185.257 26.7803 185.257 27.7273C185.257 28.6742 185.389 29.4744 185.654 30.1278C185.924 30.7812 186.31 31.276 186.812 31.6122C187.314 31.9484 187.913 32.1165 188.609 32.1165C189.31 32.1165 189.909 31.9484 190.406 31.6122C190.908 31.276 191.291 30.7812 191.556 30.1278C191.826 29.4744 191.961 28.6742 191.961 27.7273ZM197.807 20.4545H202.161L205.854 29.4602H206.025L209.718 20.4545H214.072V35H210.648V26.0653H210.528L207.033 34.9077H204.846L201.352 26.0156H201.231V35H197.807V20.4545ZM216.465 35V20.4545H222.473C223.562 20.4545 224.502 20.6676 225.293 21.0938C226.088 21.5152 226.701 22.1046 227.132 22.8622C227.563 23.6151 227.778 24.491 227.778 25.4901C227.778 26.4938 227.558 27.3722 227.118 28.125C226.682 28.8731 226.06 29.4531 225.25 29.8651C224.44 30.277 223.479 30.483 222.367 30.483H218.659V27.7131H221.713C222.243 27.7131 222.686 27.6207 223.041 27.4361C223.401 27.2514 223.673 26.9934 223.858 26.6619C224.043 26.3258 224.135 25.9351 224.135 25.4901C224.135 25.0402 224.043 24.652 223.858 24.3253C223.673 23.9938 223.401 23.7382 223.041 23.5582C222.681 23.3783 222.239 23.2884 221.713 23.2884H219.98V35H216.465ZM229.711 35V20.4545H233.227V32.1449H239.278V35H229.711ZM241.298 35V20.4545H251.44V23.3097H244.814V26.2926H250.922V29.1548H244.814V32.1449H251.44V35H241.298ZM253.366 23.3097V20.4545H265.66V23.3097H261.25V35H257.784V23.3097H253.366ZM267.577 35V20.4545H277.719V23.3097H271.093V26.2926H277.201V29.1548H271.093V32.1449H277.719V35H267.577ZM285.497 35H280.121V20.4545H285.49C286.972 20.4545 288.248 20.7457 289.318 21.3281C290.393 21.9058 291.222 22.7391 291.804 23.8281C292.386 24.9124 292.678 26.2098 292.678 27.7202C292.678 29.2353 292.386 30.5374 291.804 31.6264C291.226 32.7154 290.4 33.5511 289.325 34.1335C288.251 34.7112 286.974 35 285.497 35ZM283.636 32.0028H285.362C286.177 32.0028 286.866 31.8655 287.429 31.5909C287.997 31.3116 288.426 30.8594 288.715 30.2344C289.008 29.6046 289.155 28.7666 289.155 27.7202C289.155 26.6738 289.008 25.8404 288.715 25.2202C288.421 24.5952 287.988 24.1454 287.415 23.8707C286.847 23.5914 286.146 23.4517 285.313 23.4517H283.636V32.0028Z" fill="#00A63E"/>
<rect y="71" width="326" height="56" rx="12" fill="#B9F8CF"/>
<path fill-rule="evenodd" clip-rule="evenodd" d="M40 107C44.4183 107 48 103.418 48 99C48 94.5817 44.4183 91 40 91C35.5817 91 32 94.5817 32 99C32 103.418 35.5817 107 40 107ZM44.7071 96.7071L43.2929 95.2929L38.5 100.086L36.7071 98.2929L35.2929 99.7071L38.5 102.914L44.7071 96.7071Z" fill="#00A63E"/>
<path d="M61.4716 106V91.4545H67.4801C68.5691 91.4545 69.509 91.6676 70.2997 92.0938C71.0951 92.5152 71.7083 93.1046 72.1392 93.8622C72.57 94.6151 72.7855 95.491 72.7855 96.4901C72.7855 97.4938 72.5653 98.3722 72.125 99.125C71.6894 99.8731 71.0667 100.453 70.2571 100.865C69.4474 101.277 68.4862 101.483 67.3735 101.483H63.6662V98.7131H66.7201C67.2504 98.7131 67.6931 98.6207 68.0483 98.4361C68.4081 98.2514 68.6804 97.9934 68.865 97.6619C69.0497 97.3258 69.142 96.9351 69.142 96.4901C69.142 96.0402 69.0497 95.652 68.865 95.3253C68.6804 94.9938 68.4081 94.7382 68.0483 94.5582C67.6884 94.3783 67.2457 94.2884 66.7201 94.2884H64.9872V106H61.4716ZM76.1069 106H72.3285L77.2362 91.4545H81.9166L86.8243 106H83.0458L79.6297 95.1193H79.516L76.1069 106ZM75.6027 100.276H83.5004V102.946H75.6027V100.276ZM86.3815 91.4545H90.3091L93.3843 97.5412H93.5122L96.5875 91.4545H100.515L95.1954 101.142V106H91.7011V101.142L86.3815 91.4545ZM102.189 91.4545H106.542L110.236 100.46H110.406L114.099 91.4545H118.453V106H115.03V97.0653H114.909L111.415 105.908H109.227L105.733 97.0156H105.612V106H102.189V91.4545ZM120.846 106V91.4545H130.988V94.3097H124.361V97.2926H130.469V100.155H124.361V103.145H130.988V106H120.846ZM145.769 91.4545V106H142.786L136.997 97.6051H136.905V106H133.39V91.4545H136.415L142.14 99.8352H142.26V91.4545H145.769ZM147.704 94.3097V91.4545H159.998V94.3097H155.587V106H152.121V94.3097H147.704ZM179.615 96.7244H176.063C176.016 96.3598 175.919 96.0308 175.772 95.7372C175.625 95.4437 175.431 95.1927 175.19 94.9844C174.948 94.776 174.662 94.6174 174.33 94.5085C174.004 94.3949 173.642 94.3381 173.244 94.3381C172.538 94.3381 171.93 94.5109 171.419 94.8565C170.912 95.2022 170.521 95.7017 170.247 96.3551C169.977 97.0085 169.842 97.7992 169.842 98.7273C169.842 99.6932 169.979 100.503 170.254 101.156C170.533 101.805 170.924 102.295 171.426 102.626C171.932 102.953 172.531 103.116 173.222 103.116C173.611 103.116 173.963 103.067 174.281 102.967C174.603 102.868 174.884 102.723 175.126 102.534C175.372 102.34 175.573 102.106 175.73 101.831C175.891 101.552 176.002 101.237 176.063 100.886L179.615 100.908C179.553 101.552 179.366 102.186 179.053 102.811C178.746 103.436 178.322 104.007 177.782 104.523C177.242 105.034 176.584 105.441 175.808 105.744C175.036 106.047 174.151 106.199 173.151 106.199C171.835 106.199 170.656 105.91 169.615 105.332C168.578 104.75 167.758 103.902 167.157 102.79C166.556 101.677 166.255 100.323 166.255 98.7273C166.255 97.1269 166.561 95.7704 167.171 94.6577C167.782 93.545 168.608 92.6998 169.65 92.1222C170.692 91.5445 171.859 91.2557 173.151 91.2557C174.032 91.2557 174.847 91.3788 175.595 91.625C176.343 91.8665 177.001 92.2216 177.569 92.6903C178.137 93.1544 178.599 93.7249 178.954 94.402C179.309 95.0791 179.529 95.8532 179.615 96.7244ZM195.555 98.7273C195.555 100.328 195.247 101.684 194.632 102.797C194.016 103.91 193.183 104.755 192.132 105.332C191.085 105.91 189.911 106.199 188.609 106.199C187.302 106.199 186.125 105.908 185.079 105.325C184.033 104.743 183.202 103.898 182.586 102.79C181.975 101.677 181.67 100.323 181.67 98.7273C181.67 97.1269 181.975 95.7704 182.586 94.6577C183.202 93.545 184.033 92.6998 185.079 92.1222C186.125 91.5445 187.302 91.2557 188.609 91.2557C189.911 91.2557 191.085 91.5445 192.132 92.1222C193.183 92.6998 194.016 93.545 194.632 94.6577C195.247 95.7704 195.555 97.1269 195.555 98.7273ZM191.961 98.7273C191.961 97.7803 191.826 96.9801 191.556 96.3267C191.291 95.6733 190.908 95.1785 190.406 94.8423C189.909 94.5062 189.31 94.3381 188.609 94.3381C187.913 94.3381 187.314 94.5062 186.812 94.8423C186.31 95.1785 185.924 95.6733 185.654 96.3267C185.389 96.9801 185.257 97.7803 185.257 98.7273C185.257 99.6742 185.389 100.474 185.654 101.128C185.924 101.781 186.31 102.276 186.812 102.612C187.314 102.948 187.913 103.116 188.609 103.116C189.31 103.116 189.909 102.948 190.406 102.612C190.908 102.276 191.291 101.781 191.556 101.128C191.826 100.474 191.961 99.6742 191.961 98.7273ZM197.807 91.4545H202.161L205.854 100.46H206.025L209.718 91.4545H214.072V106H210.648V97.0653H210.528L207.033 105.908H204.846L201.352 97.0156H201.231V106H197.807V91.4545ZM216.465 106V91.4545H222.473C223.562 91.4545 224.502 91.6676 225.293 92.0938C226.088 92.5152 226.701 93.1046 227.132 93.8622C227.563 94.6151 227.778 95.491 227.778 96.4901C227.778 97.4938 227.558 98.3722 227.118 99.125C226.682 99.8731 226.06 100.453 225.25 100.865C224.44 101.277 223.479 101.483 222.367 101.483H218.659V98.7131H221.713C222.243 98.7131 222.686 98.6207 223.041 98.4361C223.401 98.2514 223.673 97.9934 223.858 97.6619C224.043 97.3258 224.135 96.9351 224.135 96.4901C224.135 96.0402 224.043 95.652 223.858 95.3253C223.673 94.9938 223.401 94.7382 223.041 94.5582C222.681 94.3783 222.239 94.2884 221.713 94.2884H219.98V106H216.465ZM229.711 106V91.4545H233.227V103.145H239.278V106H229.711ZM241.298 106V91.4545H251.44V94.3097H244.814V97.2926H250.922V100.155H244.814V103.145H251.44V106H241.298ZM253.366 94.3097V91.4545H265.66V94.3097H261.25V106H257.784V94.3097H253.366ZM267.577 106V91.4545H277.719V94.3097H271.093V97.2926H277.201V100.155H271.093V103.145H277.719V106H267.577ZM285.497 106H280.121V91.4545H285.49C286.972 91.4545 288.248 91.7457 289.318 92.3281C290.393 92.9058 291.222 93.7391 291.804 94.8281C292.386 95.9124 292.678 97.2098 292.678 98.7202C292.678 100.235 292.386 101.537 291.804 102.626C291.226 103.715 290.4 104.551 289.325 105.134C288.251 105.711 286.974 106 285.497 106ZM283.636 103.003H285.362C286.177 103.003 286.866 102.866 287.429 102.591C287.997 102.312 288.426 101.859 288.715 101.234C289.008 100.605 289.155 99.7666 289.155 98.7202C289.155 97.6738 289.008 96.8404 288.715 96.2202C288.421 95.5952 287.988 95.1454 287.415 94.8707C286.847 94.5914 286.146 94.4517 285.313 94.4517H283.636V103.003Z" fill="#00A63E"/>
<rect y="142" width="326" height="56" rx="12" fill="#B9F8CF"/>
<path fill-rule="evenodd" clip-rule="evenodd" d="M40 178C44.4183 178 48 174.418 48 170C48 165.582 44.4183 162 40 162C35.5817 162 32 165.582 32 170C32 174.418 35.5817 178 40 178ZM44.7071 167.707L43.2929 166.293L38.5 171.086L36.7071 169.293L35.2929 170.707L38.5 173.914L44.7071 167.707Z" fill="#00A63E"/>
<path d="M61.4716 177V162.455H67.4801C68.5691 162.455 69.509 162.668 70.2997 163.094C71.0951 163.515 71.7083 164.105 72.1392 164.862C72.57 165.615 72.7855 166.491 72.7855 167.49C72.7855 168.494 72.5653 169.372 72.125 170.125C71.6894 170.873 71.0667 171.453 70.2571 171.865C69.4474 172.277 68.4862 172.483 67.3735 172.483H63.6662V169.713H66.7201C67.2504 169.713 67.6931 169.621 68.0483 169.436C68.4081 169.251 68.6804 168.993 68.865 168.662C69.0497 168.326 69.142 167.935 69.142 167.49C69.142 167.04 69.0497 166.652 68.865 166.325C68.6804 165.994 68.4081 165.738 68.0483 165.558C67.6884 165.378 67.2457 165.288 66.7201 165.288H64.9872V177H61.4716ZM76.1069 177H72.3285L77.2362 162.455H81.9166L86.8243 177H83.0458L79.6297 166.119H79.516L76.1069 177ZM75.6027 171.276H83.5004V173.946H75.6027V171.276ZM86.3815 162.455H90.3091L93.3843 168.541H93.5122L96.5875 162.455H100.515L95.1954 172.142V177H91.7011V172.142L86.3815 162.455ZM102.189 162.455H106.542L110.236 171.46H110.406L114.099 162.455H118.453V177H115.03V168.065H114.909L111.415 176.908H109.227L105.733 168.016H105.612V177H102.189V162.455ZM120.846 177V162.455H130.988V165.31H124.361V168.293H130.469V171.155H124.361V174.145H130.988V177H120.846ZM145.769 162.455V177H142.786L136.997 168.605H136.905V177H133.39V162.455H136.415L142.14 170.835H142.26V162.455H145.769ZM147.704 165.31V162.455H159.998V165.31H155.587V177H152.121V165.31H147.704ZM179.615 167.724H176.063C176.016 167.36 175.919 167.031 175.772 166.737C175.625 166.444 175.431 166.193 175.19 165.984C174.948 165.776 174.662 165.617 174.33 165.509C174.004 165.395 173.642 165.338 173.244 165.338C172.538 165.338 171.93 165.511 171.419 165.857C170.912 166.202 170.521 166.702 170.247 167.355C169.977 168.009 169.842 168.799 169.842 169.727C169.842 170.693 169.979 171.503 170.254 172.156C170.533 172.805 170.924 173.295 171.426 173.626C171.932 173.953 172.531 174.116 173.222 174.116C173.611 174.116 173.963 174.067 174.281 173.967C174.603 173.868 174.884 173.723 175.126 173.534C175.372 173.34 175.573 173.106 175.73 172.831C175.891 172.552 176.002 172.237 176.063 171.886L179.615 171.908C179.553 172.552 179.366 173.186 179.053 173.811C178.746 174.436 178.322 175.007 177.782 175.523C177.242 176.034 176.584 176.441 175.808 176.744C175.036 177.047 174.151 177.199 173.151 177.199C171.835 177.199 170.656 176.91 169.615 176.332C168.578 175.75 167.758 174.902 167.157 173.79C166.556 172.677 166.255 171.323 166.255 169.727C166.255 168.127 166.561 166.77 167.171 165.658C167.782 164.545 168.608 163.7 169.65 163.122C170.692 162.545 171.859 162.256 173.151 162.256C174.032 162.256 174.847 162.379 175.595 162.625C176.343 162.866 177.001 163.222 177.569 163.69C178.137 164.154 178.599 164.725 178.954 165.402C179.309 166.079 179.529 166.853 179.615 167.724ZM195.555 169.727C195.555 171.328 195.247 172.684 194.632 173.797C194.016 174.91 193.183 175.755 192.132 176.332C191.085 176.91 189.911 177.199 188.609 177.199C187.302 177.199 186.125 176.908 185.079 176.325C184.033 175.743 183.202 174.898 182.586 173.79C181.975 172.677 181.67 171.323 181.67 169.727C181.67 168.127 181.975 166.77 182.586 165.658C183.202 164.545 184.033 163.7 185.079 163.122C186.125 162.545 187.302 162.256 188.609 162.256C189.911 162.256 191.085 162.545 192.132 163.122C193.183 163.7 194.016 164.545 194.632 165.658C195.247 166.77 195.555 168.127 195.555 169.727ZM191.961 169.727C191.961 168.78 191.826 167.98 191.556 167.327C191.291 166.673 190.908 166.179 190.406 165.842C189.909 165.506 189.31 165.338 188.609 165.338C187.913 165.338 187.314 165.506 186.812 165.842C186.31 166.179 185.924 166.673 185.654 167.327C185.389 167.98 185.257 168.78 185.257 169.727C185.257 170.674 185.389 171.474 185.654 172.128C185.924 172.781 186.31 173.276 186.812 173.612C187.314 173.948 187.913 174.116 188.609 174.116C189.31 174.116 189.909 173.948 190.406 173.612C190.908 173.276 191.291 172.781 191.556 172.128C191.826 171.474 191.961 170.674 191.961 169.727ZM197.807 162.455H202.161L205.854 171.46H206.025L209.718 162.455H214.072V177H210.648V168.065H210.528L207.033 176.908H204.846L201.352 168.016H201.231V177H197.807V162.455ZM216.465 177V162.455H222.473C223.562 162.455 224.502 162.668 225.293 163.094C226.088 163.515 226.701 164.105 227.132 164.862C227.563 165.615 227.778 166.491 227.778 167.49C227.778 168.494 227.558 169.372 227.118 170.125C226.682 170.873 226.06 171.453 225.25 171.865C224.44 172.277 223.479 172.483 222.367 172.483H218.659V169.713H221.713C222.243 169.713 222.686 169.621 223.041 169.436C223.401 169.251 223.673 168.993 223.858 168.662C224.043 168.326 224.135 167.935 224.135 167.49C224.135 167.04 224.043 166.652 223.858 166.325C223.673 165.994 223.401 165.738 223.041 165.558C222.681 165.378 222.239 165.288 221.713 165.288H219.98V177H216.465ZM229.711 177V162.455H233.227V174.145H239.278V177H229.711ZM241.298 177V162.455H251.44V165.31H244.814V168.293H250.922V171.155H244.814V174.145H251.44V177H241.298ZM253.366 165.31V162.455H265.66V165.31H261.25V177H257.784V165.31H253.366ZM267.577 177V162.455H277.719V165.31H271.093V168.293H277.201V171.155H271.093V174.145H277.719V177H267.577ZM285.497 177H280.121V162.455H285.49C286.972 162.455 288.248 162.746 289.318 163.328C290.393 163.906 291.222 164.739 291.804 165.828C292.386 166.912 292.678 168.21 292.678 169.72C292.678 171.235 292.386 172.537 291.804 173.626C291.226 174.715 290.4 175.551 289.325 176.134C288.251 176.711 286.974 177 285.497 177ZM283.636 174.003H285.362C286.177 174.003 286.866 173.866 287.429 173.591C287.997 173.312 288.426 172.859 288.715 172.234C289.008 171.605 289.155 170.767 289.155 169.72C289.155 168.674 289.008 167.84 288.715 167.22C288.421 166.595 287.988 166.145 287.415 165.871C286.847 165.591 286.146 165.452 285.313 165.452H283.636V174.003Z" fill="#00A63E"/>
</svg>
