<svg width="326" height="474" viewBox="0 0 326 474" fill="none" xmlns="http://www.w3.org/2000/svg">
<rect x="1" y="1" width="324" height="472" rx="25" stroke="#999999" stroke-dasharray="10 5"/>
<rect x="67" y="33" width="192" height="56" rx="12" fill="#F5E3C7"/>
<path d="M107 62C107.552 62 108 61.5523 108 61C108 60.4477 107.552 60 107 60C106.448 60 106 60.4477 106 61C106 61.5523 106.448 62 107 62Z" fill="#A96D25"/>
<path fill-rule="evenodd" clip-rule="evenodd" d="M115 61C115 65.4183 111.418 69 107 69C102.582 69 99 65.4183 99 61C99 56.5817 102.582 53 107 53C111.418 53 115 56.5817 115 61ZM110 57L105 59L103 64L104 65L109 63L111 58L110 57Z" fill="#A96D25"/>
<path d="M127.831 53.4545H131.759L134.834 59.5412H134.962L138.037 53.4545H141.965L136.645 63.142V68H133.151V63.142L127.831 53.4545ZM156.41 60.7273C156.41 62.3277 156.102 63.6842 155.487 64.7969C154.871 65.9096 154.038 66.7547 152.987 67.3324C151.94 67.91 150.766 68.1989 149.464 68.1989C148.157 68.1989 146.981 67.9077 145.934 67.3253C144.888 66.7429 144.057 65.8977 143.441 64.7898C142.83 63.6771 142.525 62.3229 142.525 60.7273C142.525 59.1269 142.83 57.7704 143.441 56.6577C144.057 55.545 144.888 54.6998 145.934 54.1222C146.981 53.5445 148.157 53.2557 149.464 53.2557C150.766 53.2557 151.94 53.5445 152.987 54.1222C154.038 54.6998 154.871 55.545 155.487 56.6577C156.102 57.7704 156.41 59.1269 156.41 60.7273ZM152.816 60.7273C152.816 59.7803 152.681 58.9801 152.411 58.3267C152.146 57.6733 151.763 57.1785 151.261 56.8423C150.764 56.5062 150.165 56.3381 149.464 56.3381C148.768 56.3381 148.169 56.5062 147.667 56.8423C147.165 57.1785 146.779 57.6733 146.509 58.3267C146.244 58.9801 146.112 59.7803 146.112 60.7273C146.112 61.6742 146.244 62.4744 146.509 63.1278C146.779 63.7812 147.165 64.276 147.667 64.6122C148.169 64.9484 148.768 65.1165 149.464 65.1165C150.165 65.1165 150.764 64.9484 151.261 64.6122C151.763 64.276 152.146 63.7812 152.411 63.1278C152.681 62.4744 152.816 61.6742 152.816 60.7273ZM167.462 53.4545H170.971V62.8366C170.971 63.9209 170.713 64.8655 170.197 65.6705C169.681 66.4706 168.961 67.0909 168.038 67.5312C167.114 67.9669 166.042 68.1847 164.82 68.1847C163.584 68.1847 162.505 67.9669 161.582 67.5312C160.658 67.0909 159.941 66.4706 159.43 65.6705C158.918 64.8655 158.663 63.9209 158.663 62.8366V53.4545H162.178V62.5312C162.178 63.0331 162.287 63.4806 162.505 63.8736C162.727 64.2666 163.038 64.5743 163.435 64.7969C163.833 65.0194 164.295 65.1307 164.82 65.1307C165.346 65.1307 165.805 65.0194 166.198 64.7969C166.596 64.5743 166.906 64.2666 167.128 63.8736C167.351 63.4806 167.462 63.0331 167.462 62.5312V53.4545ZM172.898 56.3097V53.4545H185.192V56.3097H180.782V68H177.316V56.3097H172.898ZM195.909 53.4545H199.418V62.8366C199.418 63.9209 199.16 64.8655 198.644 65.6705C198.127 66.4706 197.408 67.0909 196.484 67.5312C195.561 67.9669 194.489 68.1847 193.267 68.1847C192.031 68.1847 190.952 67.9669 190.028 67.5312C189.105 67.0909 188.388 66.4706 187.876 65.6705C187.365 64.8655 187.109 63.9209 187.109 62.8366V53.4545H190.625V62.5312C190.625 63.0331 190.734 63.4806 190.952 63.8736C191.174 64.2666 191.484 64.5743 191.882 64.7969C192.28 65.0194 192.742 65.1307 193.267 65.1307C193.793 65.1307 194.252 65.0194 194.645 64.7969C195.043 64.5743 195.353 64.2666 195.575 63.8736C195.798 63.4806 195.909 63.0331 195.909 62.5312V53.4545ZM201.821 68V53.4545H207.887C208.976 53.4545 209.887 53.6084 210.621 53.9162C211.36 54.224 211.913 54.6548 212.283 55.2088C212.657 55.7628 212.844 56.4044 212.844 57.1335C212.844 57.6875 212.728 58.1823 212.496 58.6179C212.264 59.0488 211.944 59.4062 211.537 59.6903C211.13 59.9744 210.659 60.1733 210.124 60.2869V60.429C210.711 60.4574 211.253 60.616 211.75 60.9048C212.252 61.1937 212.655 61.5961 212.958 62.1122C213.261 62.6236 213.412 63.2296 213.412 63.9304C213.412 64.7116 213.213 65.41 212.815 66.0256C212.418 66.6364 211.842 67.1193 211.09 67.4744C210.337 67.8248 209.423 68 208.348 68H201.821ZM205.337 65.1662H207.51C208.272 65.1662 208.833 65.0218 209.193 64.733C209.558 64.4441 209.74 64.0417 209.74 63.5256C209.74 63.1515 209.653 62.8295 209.477 62.5597C209.302 62.285 209.054 62.0743 208.732 61.9276C208.41 61.776 208.024 61.7003 207.574 61.7003H205.337V65.1662ZM205.337 59.4347H207.283C207.666 59.4347 208.007 59.3707 208.306 59.2429C208.604 59.1151 208.836 58.9304 209.002 58.6889C209.172 58.4474 209.257 58.1562 209.257 57.8153C209.257 57.3277 209.084 56.9441 208.739 56.6648C208.393 56.3854 207.927 56.2457 207.34 56.2457H205.337V59.4347ZM215.302 68V53.4545H225.444V56.3097H218.818V59.2926H224.926V62.1548H218.818V65.1449H225.444V68H215.302Z" fill="#A96D25"/>
<rect x="82.5" y="121" width="161" height="56" rx="12" fill="#DED9FF"/>
<path d="M122.5 150C123.052 150 123.5 149.552 123.5 149C123.5 148.448 123.052 148 122.5 148C121.948 148 121.5 148.448 121.5 149C121.5 149.552 121.948 150 122.5 150Z" fill="#4C4096"/>
<path fill-rule="evenodd" clip-rule="evenodd" d="M130.5 149C130.5 153.418 126.918 157 122.5 157C118.082 157 114.5 153.418 114.5 149C114.5 144.582 118.082 141 122.5 141C126.918 141 130.5 144.582 130.5 149ZM125.5 145L120.5 147L118.5 152L119.5 153L124.5 151L126.5 146L125.5 145Z" fill="#4C4096"/>
<path d="M151.842 145.815C151.795 145.295 151.584 144.89 151.21 144.601C150.841 144.307 150.313 144.161 149.626 144.161C149.172 144.161 148.793 144.22 148.49 144.338C148.187 144.456 147.96 144.62 147.808 144.828C147.657 145.032 147.579 145.266 147.574 145.531C147.564 145.749 147.607 145.941 147.702 146.107C147.801 146.272 147.943 146.419 148.128 146.547C148.317 146.67 148.545 146.779 148.81 146.874C149.075 146.968 149.373 147.051 149.705 147.122L150.955 147.406C151.674 147.562 152.309 147.771 152.858 148.031C153.412 148.292 153.876 148.602 154.25 148.962C154.629 149.321 154.915 149.736 155.109 150.205C155.304 150.673 155.403 151.199 155.408 151.781C155.403 152.7 155.171 153.488 154.712 154.146C154.252 154.804 153.592 155.309 152.73 155.659C151.873 156.009 150.839 156.185 149.626 156.185C148.41 156.185 147.349 156.002 146.445 155.638C145.54 155.273 144.837 154.719 144.335 153.976C143.833 153.232 143.575 152.293 143.561 151.156H146.928C146.956 151.625 147.081 152.016 147.304 152.328C147.527 152.641 147.832 152.877 148.22 153.038C148.613 153.199 149.068 153.28 149.584 153.28C150.057 153.28 150.46 153.216 150.791 153.088C151.127 152.96 151.385 152.783 151.565 152.555C151.745 152.328 151.838 152.068 151.842 151.774C151.838 151.5 151.752 151.265 151.587 151.071C151.421 150.872 151.165 150.702 150.82 150.56C150.479 150.413 150.043 150.278 149.513 150.155L147.993 149.8C146.733 149.511 145.742 149.045 145.017 148.401C144.293 147.752 143.933 146.876 143.938 145.773C143.933 144.873 144.174 144.085 144.662 143.408C145.15 142.731 145.824 142.203 146.686 141.824C147.548 141.445 148.53 141.256 149.634 141.256C150.76 141.256 151.738 141.447 152.567 141.831C153.4 142.21 154.046 142.742 154.506 143.429C154.965 144.116 155.199 144.911 155.209 145.815H151.842ZM156.907 144.31V141.455H169.201V144.31H164.791V156H161.325V144.31H156.907ZM184.183 148.727C184.183 150.328 183.875 151.684 183.26 152.797C182.644 153.91 181.811 154.755 180.76 155.332C179.713 155.91 178.539 156.199 177.237 156.199C175.93 156.199 174.754 155.908 173.707 155.325C172.661 154.743 171.83 153.898 171.214 152.79C170.604 151.677 170.298 150.323 170.298 148.727C170.298 147.127 170.604 145.77 171.214 144.658C171.83 143.545 172.661 142.7 173.707 142.122C174.754 141.545 175.93 141.256 177.237 141.256C178.539 141.256 179.713 141.545 180.76 142.122C181.811 142.7 182.644 143.545 183.26 144.658C183.875 145.77 184.183 147.127 184.183 148.727ZM180.589 148.727C180.589 147.78 180.454 146.98 180.184 146.327C179.919 145.673 179.536 145.179 179.034 144.842C178.537 144.506 177.938 144.338 177.237 144.338C176.541 144.338 175.942 144.506 175.44 144.842C174.938 145.179 174.552 145.673 174.282 146.327C174.017 146.98 173.885 147.78 173.885 148.727C173.885 149.674 174.017 150.474 174.282 151.128C174.552 151.781 174.938 152.276 175.44 152.612C175.942 152.948 176.541 153.116 177.237 153.116C177.938 153.116 178.537 152.948 179.034 152.612C179.536 152.276 179.919 151.781 180.184 151.128C180.454 150.474 180.589 149.674 180.589 148.727ZM186.436 156V141.455H192.444C193.533 141.455 194.473 141.651 195.264 142.044C196.059 142.432 196.672 142.991 197.103 143.72C197.534 144.445 197.75 145.304 197.75 146.298C197.75 147.307 197.529 148.164 197.089 148.869C196.649 149.57 196.024 150.105 195.214 150.474C194.404 150.839 193.446 151.021 192.338 151.021H188.538V148.251H191.684C192.214 148.251 192.657 148.183 193.012 148.045C193.372 147.903 193.644 147.69 193.829 147.406C194.014 147.117 194.106 146.748 194.106 146.298C194.106 145.848 194.014 145.477 193.829 145.183C193.644 144.885 193.372 144.662 193.012 144.516C192.652 144.364 192.21 144.288 191.684 144.288H189.951V156H186.436ZM194.625 149.352L198.247 156H194.411L190.86 149.352H194.625ZM199.878 156V141.455H210.02V144.31H203.393V147.293H209.501V150.155H203.393V153.145H210.02V156H199.878Z" fill="#4C4096"/>
<rect x="54.5" y="209" width="217" height="56" rx="12" fill="#CEE2FF"/>
<path d="M94.5 238C95.0523 238 95.5 237.552 95.5 237C95.5 236.448 95.0523 236 94.5 236C93.9477 236 93.5 236.448 93.5 237C93.5 237.552 93.9477 238 94.5 238Z" fill="#314B73"/>
<path fill-rule="evenodd" clip-rule="evenodd" d="M102.5 237C102.5 241.418 98.9183 245 94.5 245C90.0817 245 86.5 241.418 86.5 237C86.5 232.582 90.0817 229 94.5 229C98.9183 229 102.5 232.582 102.5 237ZM97.5 233L92.5 235L90.5 240L91.5 241L96.5 239L98.5 234L97.5 233Z" fill="#314B73"/>
<path d="M119.596 229.455V244H116.08V229.455H119.596ZM134.382 229.455V244H131.399L125.611 235.605H125.518V244H122.003V229.455H125.028L130.753 237.835H130.874V229.455H134.382ZM144.655 233.815C144.608 233.295 144.397 232.89 144.023 232.601C143.653 232.307 143.126 232.161 142.439 232.161C141.984 232.161 141.606 232.22 141.303 232.338C141 232.456 140.772 232.62 140.621 232.828C140.469 233.032 140.391 233.266 140.386 233.531C140.377 233.749 140.42 233.941 140.514 234.107C140.614 234.272 140.756 234.419 140.94 234.547C141.13 234.67 141.357 234.779 141.622 234.874C141.887 234.968 142.186 235.051 142.517 235.122L143.767 235.406C144.487 235.562 145.121 235.771 145.67 236.031C146.224 236.292 146.688 236.602 147.063 236.962C147.441 237.321 147.728 237.736 147.922 238.205C148.116 238.673 148.215 239.199 148.22 239.781C148.215 240.7 147.983 241.488 147.524 242.146C147.065 242.804 146.404 243.309 145.543 243.659C144.686 244.009 143.651 244.185 142.439 244.185C141.222 244.185 140.161 244.002 139.257 243.638C138.353 243.273 137.65 242.719 137.148 241.976C136.646 241.232 136.388 240.293 136.374 239.156H139.74C139.769 239.625 139.894 240.016 140.117 240.328C140.339 240.641 140.644 240.877 141.033 241.038C141.426 241.199 141.88 241.28 142.396 241.28C142.87 241.28 143.272 241.216 143.604 241.088C143.94 240.96 144.198 240.783 144.378 240.555C144.558 240.328 144.65 240.068 144.655 239.774C144.65 239.5 144.565 239.265 144.399 239.071C144.233 238.872 143.978 238.702 143.632 238.56C143.291 238.413 142.856 238.278 142.325 238.155L140.805 237.8C139.546 237.511 138.554 237.045 137.83 236.401C137.105 235.752 136.745 234.876 136.75 233.773C136.745 232.873 136.987 232.085 137.474 231.408C137.962 230.731 138.637 230.203 139.499 229.824C140.36 229.445 141.343 229.256 142.446 229.256C143.573 229.256 144.551 229.447 145.379 229.831C146.213 230.21 146.859 230.742 147.318 231.429C147.777 232.116 148.012 232.911 148.021 233.815H144.655ZM149.72 232.31V229.455H162.014V232.31H157.603V244H154.138V232.31H149.72ZM165.261 244H161.482L166.39 229.455H171.07L175.978 244H172.2L168.784 233.119H168.67L165.261 244ZM164.757 238.276H172.654V240.946H164.757V238.276ZM186.606 234.206C186.526 233.908 186.407 233.645 186.251 233.418C186.095 233.186 185.903 232.989 185.676 232.828C185.448 232.667 185.188 232.546 184.894 232.466C184.601 232.381 184.279 232.338 183.929 232.338C183.223 232.338 182.612 232.509 182.096 232.849C181.585 233.19 181.189 233.687 180.91 234.341C180.631 234.99 180.491 235.778 180.491 236.706C180.491 237.639 180.626 238.434 180.896 239.092C181.166 239.75 181.556 240.252 182.068 240.598C182.579 240.944 183.199 241.116 183.929 241.116C184.572 241.116 185.117 241.012 185.562 240.804C186.012 240.591 186.353 240.29 186.585 239.902C186.817 239.514 186.933 239.057 186.933 238.531L187.586 238.609H184.049V236.045H190.321V237.97C190.321 239.272 190.044 240.387 189.49 241.315C188.94 242.243 188.183 242.956 187.217 243.453C186.256 243.95 185.15 244.199 183.9 244.199C182.513 244.199 181.294 243.898 180.242 243.297C179.191 242.696 178.372 241.839 177.785 240.726C177.198 239.608 176.904 238.283 176.904 236.749C176.904 235.555 177.082 234.497 177.437 233.574C177.792 232.646 178.287 231.86 178.921 231.216C179.561 230.572 180.299 230.084 181.137 229.753C181.98 229.421 182.887 229.256 183.857 229.256C184.7 229.256 185.484 229.376 186.208 229.618C186.938 229.859 187.581 230.2 188.14 230.641C188.704 231.081 189.161 231.604 189.511 232.21C189.861 232.816 190.079 233.482 190.164 234.206H186.606ZM192.593 244V229.455H198.601C199.69 229.455 200.63 229.651 201.421 230.044C202.216 230.432 202.829 230.991 203.26 231.72C203.691 232.445 203.907 233.304 203.907 234.298C203.907 235.307 203.686 236.164 203.246 236.869C202.806 237.57 202.181 238.105 201.371 238.474C200.561 238.839 199.603 239.021 198.495 239.021H194.695V236.251H197.841C198.372 236.251 198.814 236.183 199.169 236.045C199.529 235.903 199.801 235.69 199.986 235.406C200.171 235.117 200.263 234.748 200.263 234.298C200.263 233.848 200.171 233.477 199.986 233.183C199.801 232.885 199.529 232.662 199.169 232.516C198.809 232.364 198.367 232.288 197.841 232.288H196.108V244H192.593ZM200.782 237.352L204.404 244H200.568L197.017 237.352H200.782ZM209.181 244H205.403L210.31 229.455H214.991L219.898 244H216.12L212.704 233.119H212.59L209.181 244ZM208.677 238.276H216.575V240.946H208.677V238.276ZM221.665 229.455H226.018L229.711 238.46H229.882L233.575 229.455H237.929V244H234.505V235.065H234.385L230.89 243.908H228.703L225.209 235.016H225.088V244H221.665V229.455Z" fill="#314B73"/>
<rect x="33" y="297" width="260" height="56" rx="12" fill="#E0EDCD"/>
<path d="M73 326C73.5523 326 74 325.552 74 325C74 324.448 73.5523 324 73 324C72.4477 324 72 324.448 72 325C72 325.552 72.4477 326 73 326Z" fill="#3F7000"/>
<path fill-rule="evenodd" clip-rule="evenodd" d="M81 325C81 329.418 77.4183 333 73 333C68.5817 333 65 329.418 65 325C65 320.582 68.5817 317 73 317C77.4183 317 81 320.582 81 325ZM76 321L71 323L69 328L70 329L75 327L77 322L76 321Z" fill="#3F7000"/>
<path d="M97.728 332H93.9496L98.8573 317.455H103.538L108.445 332H104.667L101.251 321.119H101.137L97.728 332ZM97.2238 326.276H105.121V328.946H97.2238V326.276ZM110.211 332V317.455H120.14V320.31H113.727V323.293H119.508V326.155H113.727V332H110.211ZM122.111 332V317.455H132.04V320.31H125.626V323.293H131.407V326.155H125.626V332H122.111ZM137.525 317.455V332H134.01V317.455H137.525ZM139.932 332V317.455H143.448V329.145H149.499V332H139.932ZM155.035 317.455V332H151.519V317.455H155.035ZM160.588 332H156.81L161.717 317.455H166.398L171.306 332H167.527L164.111 321.119H163.997L160.588 332ZM160.084 326.276H167.982V328.946H160.084V326.276ZM170.779 320.31V317.455H183.073V320.31H178.663V332H175.197V320.31H170.779ZM184.99 332V317.455H195.132V320.31H188.506V323.293H194.614V326.155H188.506V329.145H195.132V332H184.99ZM202.031 332V317.455H205.547V329.145H211.598V332H202.031ZM217.133 317.455V332H213.618V317.455H217.133ZM231.92 317.455V332H228.937L223.148 323.605H223.056V332H219.54V317.455H222.566L228.29 325.835H228.411V317.455H231.92ZM234.33 332V317.455H237.846V323.605H238.038L242.846 317.455H246.986L241.83 323.946L247.079 332H242.874L239.252 326.283L237.846 328.058V332H234.33ZM256.279 321.815C256.232 321.295 256.021 320.89 255.647 320.601C255.278 320.307 254.75 320.161 254.063 320.161C253.609 320.161 253.23 320.22 252.927 320.338C252.624 320.456 252.397 320.62 252.245 320.828C252.093 321.032 252.015 321.266 252.011 321.531C252.001 321.749 252.044 321.941 252.138 322.107C252.238 322.272 252.38 322.419 252.565 322.547C252.754 322.67 252.981 322.779 253.246 322.874C253.512 322.968 253.81 323.051 254.141 323.122L255.391 323.406C256.111 323.562 256.745 323.771 257.295 324.031C257.849 324.292 258.313 324.602 258.687 324.962C259.066 325.321 259.352 325.736 259.546 326.205C259.74 326.673 259.84 327.199 259.844 327.781C259.84 328.7 259.608 329.488 259.148 330.146C258.689 330.804 258.029 331.309 257.167 331.659C256.31 332.009 255.275 332.185 254.063 332.185C252.846 332.185 251.786 332.002 250.881 331.638C249.977 331.273 249.274 330.719 248.772 329.976C248.27 329.232 248.012 328.293 247.998 327.156H251.364C251.393 327.625 251.518 328.016 251.741 328.328C251.963 328.641 252.269 328.877 252.657 329.038C253.05 329.199 253.504 329.28 254.021 329.28C254.494 329.28 254.897 329.216 255.228 329.088C255.564 328.96 255.822 328.783 256.002 328.555C256.182 328.328 256.274 328.068 256.279 327.774C256.274 327.5 256.189 327.265 256.023 327.071C255.858 326.872 255.602 326.702 255.256 326.56C254.915 326.413 254.48 326.278 253.95 326.155L252.43 325.8C251.17 325.511 250.178 325.045 249.454 324.401C248.729 323.752 248.37 322.876 248.374 321.773C248.37 320.873 248.611 320.085 249.099 319.408C249.586 318.731 250.261 318.203 251.123 317.824C251.985 317.445 252.967 317.256 254.07 317.256C255.197 317.256 256.175 317.447 257.004 317.831C257.837 318.21 258.483 318.742 258.942 319.429C259.402 320.116 259.636 320.911 259.646 321.815H256.279Z" fill="#3F7000"/>
<rect x="66" y="385" width="194" height="56" rx="12" fill="#E3E5F2"/>
<path d="M106 414C106.552 414 107 413.552 107 413C107 412.448 106.552 412 106 412C105.448 412 105 412.448 105 413C105 413.552 105.448 414 106 414Z" fill="#4C4096"/>
<path fill-rule="evenodd" clip-rule="evenodd" d="M114 413C114 417.418 110.418 421 106 421C101.582 421 98 417.418 98 413C98 408.582 101.582 405 106 405C110.418 405 114 408.582 114 413ZM109 409L104 411L102 416L103 417L108 415L110 410L109 409Z" fill="#4C4096"/>
<path d="M127.501 420V405.455H133.509C134.598 405.455 135.538 405.668 136.329 406.094C137.124 406.515 137.738 407.105 138.168 407.862C138.599 408.615 138.815 409.491 138.815 410.49C138.815 411.494 138.595 412.372 138.154 413.125C137.719 413.873 137.096 414.453 136.286 414.865C135.477 415.277 134.516 415.483 133.403 415.483H129.695V412.713H132.749C133.28 412.713 133.722 412.621 134.078 412.436C134.437 412.251 134.71 411.993 134.894 411.662C135.079 411.326 135.171 410.935 135.171 410.49C135.171 410.04 135.079 409.652 134.894 409.325C134.71 408.994 134.437 408.738 134.078 408.558C133.718 408.378 133.275 408.288 132.749 408.288H131.016V420H127.501ZM154.476 412.727C154.476 414.328 154.169 415.684 153.553 416.797C152.938 417.91 152.104 418.755 151.053 419.332C150.007 419.91 148.832 420.199 147.53 420.199C146.224 420.199 145.047 419.908 144.001 419.325C142.954 418.743 142.123 417.898 141.508 416.79C140.897 415.677 140.591 414.323 140.591 412.727C140.591 411.127 140.897 409.77 141.508 408.658C142.123 407.545 142.954 406.7 144.001 406.122C145.047 405.545 146.224 405.256 147.53 405.256C148.832 405.256 150.007 405.545 151.053 406.122C152.104 406.7 152.938 407.545 153.553 408.658C154.169 409.77 154.476 411.127 154.476 412.727ZM150.883 412.727C150.883 411.78 150.748 410.98 150.478 410.327C150.213 409.673 149.829 409.179 149.327 408.842C148.83 408.506 148.231 408.338 147.53 408.338C146.834 408.338 146.235 408.506 145.734 408.842C145.232 409.179 144.846 409.673 144.576 410.327C144.311 410.98 144.178 411.78 144.178 412.727C144.178 413.674 144.311 414.474 144.576 415.128C144.846 415.781 145.232 416.276 145.734 416.612C146.235 416.948 146.834 417.116 147.53 417.116C148.231 417.116 148.83 416.948 149.327 416.612C149.829 416.276 150.213 415.781 150.478 415.128C150.748 414.474 150.883 413.674 150.883 412.727ZM162.105 420H156.729V405.455H162.098C163.58 405.455 164.856 405.746 165.926 406.328C167.001 406.906 167.83 407.739 168.412 408.828C168.995 409.912 169.286 411.21 169.286 412.72C169.286 414.235 168.995 415.537 168.412 416.626C167.835 417.715 167.008 418.551 165.934 419.134C164.859 419.711 163.583 420 162.105 420ZM160.245 417.003H161.97C162.785 417.003 163.474 416.866 164.037 416.591C164.605 416.312 165.034 415.859 165.323 415.234C165.616 414.605 165.763 413.767 165.763 412.72C165.763 411.674 165.616 410.84 165.323 410.22C165.029 409.595 164.596 409.145 164.023 408.871C163.455 408.591 162.754 408.452 161.921 408.452H160.245V417.003ZM184.741 410.724H181.19C181.143 410.36 181.046 410.031 180.899 409.737C180.752 409.444 180.558 409.193 180.317 408.984C180.075 408.776 179.789 408.617 179.457 408.509C179.131 408.395 178.768 408.338 178.371 408.338C177.665 408.338 177.057 408.511 176.545 408.857C176.039 409.202 175.648 409.702 175.374 410.355C175.104 411.009 174.969 411.799 174.969 412.727C174.969 413.693 175.106 414.503 175.381 415.156C175.66 415.805 176.051 416.295 176.553 416.626C177.059 416.953 177.658 417.116 178.349 417.116C178.738 417.116 179.09 417.067 179.408 416.967C179.73 416.868 180.011 416.723 180.253 416.534C180.499 416.34 180.7 416.106 180.857 415.831C181.018 415.552 181.129 415.237 181.19 414.886L184.741 414.908C184.68 415.552 184.493 416.186 184.18 416.811C183.873 417.436 183.449 418.007 182.909 418.523C182.369 419.034 181.711 419.441 180.935 419.744C180.163 420.047 179.277 420.199 178.278 420.199C176.962 420.199 175.783 419.91 174.741 419.332C173.705 418.75 172.885 417.902 172.284 416.79C171.683 415.677 171.382 414.323 171.382 412.727C171.382 411.127 171.688 409.77 172.298 408.658C172.909 407.545 173.735 406.7 174.777 406.122C175.819 405.545 176.986 405.256 178.278 405.256C179.159 405.256 179.973 405.379 180.722 405.625C181.47 405.866 182.128 406.222 182.696 406.69C183.264 407.154 183.726 407.725 184.081 408.402C184.436 409.079 184.656 409.853 184.741 410.724ZM189.728 420H185.95L190.858 405.455H195.538L200.446 420H196.667L193.251 409.119H193.138L189.728 420ZM189.224 414.276H197.122V416.946H189.224V414.276ZM209.625 409.815C209.577 409.295 209.367 408.89 208.993 408.601C208.623 408.307 208.095 408.161 207.409 408.161C206.954 408.161 206.576 408.22 206.273 408.338C205.969 408.456 205.742 408.62 205.591 408.828C205.439 409.032 205.361 409.266 205.356 409.531C205.347 409.749 205.389 409.941 205.484 410.107C205.584 410.272 205.726 410.419 205.91 410.547C206.1 410.67 206.327 410.779 206.592 410.874C206.857 410.968 207.156 411.051 207.487 411.122L208.737 411.406C209.457 411.562 210.091 411.771 210.64 412.031C211.194 412.292 211.658 412.602 212.032 412.962C212.411 413.321 212.698 413.736 212.892 414.205C213.086 414.673 213.185 415.199 213.19 415.781C213.185 416.7 212.953 417.488 212.494 418.146C212.035 418.804 211.374 419.309 210.513 419.659C209.656 420.009 208.621 420.185 207.409 420.185C206.192 420.185 205.131 420.002 204.227 419.638C203.323 419.273 202.62 418.719 202.118 417.976C201.616 417.232 201.358 416.293 201.344 415.156H204.71C204.738 415.625 204.864 416.016 205.086 416.328C205.309 416.641 205.614 416.877 206.003 417.038C206.396 417.199 206.85 417.28 207.366 417.28C207.84 417.28 208.242 417.216 208.574 417.088C208.91 416.96 209.168 416.783 209.348 416.555C209.528 416.328 209.62 416.068 209.625 415.774C209.62 415.5 209.535 415.265 209.369 415.071C209.203 414.872 208.948 414.702 208.602 414.56C208.261 414.413 207.826 414.278 207.295 414.155L205.775 413.8C204.516 413.511 203.524 413.045 202.8 412.401C202.075 411.752 201.715 410.876 201.72 409.773C201.715 408.873 201.957 408.085 202.444 407.408C202.932 406.731 203.607 406.203 204.469 405.824C205.33 405.445 206.313 405.256 207.416 405.256C208.543 405.256 209.521 405.447 210.349 405.831C211.183 406.21 211.829 406.742 212.288 407.429C212.747 408.116 212.982 408.911 212.991 409.815H209.625ZM214.69 408.31V405.455H226.984V408.31H222.573V420H219.107V408.31H214.69Z" fill="#4B4E5F"/>
</svg>
