<svg width="239" height="96" viewBox="0 0 239 96" fill="none" xmlns="http://www.w3.org/2000/svg">
<g clip-path="url(#clip0_1_2)">
<path d="M17.6378 64.9713H8.92196V43.2436H2.98462V36.1692H8.92196V31.1358C8.92196 25.1707 11.5478 20.8923 20.2406 20.8923C22.079 20.8923 24.9658 21.2624 24.9658 21.2624V27.8317H21.9338C18.8444 27.8317 17.6388 28.7718 17.6388 31.369V36.1692H24.8502L24.208 43.2436H17.6388V64.9713H17.6378ZM37.6371 35.6038C37.5104 35.6038 37.3799 35.6085 37.2504 35.6112C29.1683 35.6112 25.471 41.6901 25.471 50.32C25.471 61.1917 30.2675 65.5422 37.3142 65.5422C41.3456 65.5422 43.9946 63.8453 45.6045 60.6782V64.9732H53.8947V36.1719H45.6045V40.6011C44.2897 37.7513 41.5676 35.6371 37.6381 35.6029L37.6371 35.6038ZM39.7449 42.41C43.1396 42.41 45.177 44.7777 45.177 48.8053L45.1844 52.919C45.1844 55.6337 43.5014 58.8092 39.7449 58.8092C33.9685 58.8092 34.123 52.572 34.123 50.4948C34.123 43.5073 37.2004 42.41 39.7449 42.41ZM57.2414 50.5753C57.2414 47.0751 57.0739 35.6233 71.9945 35.6233C77.9837 35.6233 80.4846 37.5274 80.4846 37.5274L78.4741 43.7618C78.4741 43.7618 75.9759 42.3869 72.7218 42.3869C68.5535 42.3869 65.8934 44.8036 65.8934 49.0551L65.898 52.1039C65.898 56.1898 68.4647 58.9165 72.7301 58.9165C75.6946 58.9165 78.4278 57.5286 78.4278 57.5286L80.4328 63.6325C80.4328 63.6325 78.1465 65.5487 72.0352 65.5487C57.8289 65.5487 57.2405 55.2738 57.2405 50.5753H57.2414ZM129.094 35.6122C137.176 35.6122 140.932 41.6911 140.932 50.3218C140.932 61.1935 136.136 65.5441 129.089 65.5441C125.058 65.5441 122.077 63.8471 120.468 60.68V64.975L112.282 64.9713V21.7676L120.974 21.0098V40.2116C122.228 36.852 126.35 35.6122 129.095 35.6122H129.094ZM126.657 42.41C123.263 42.41 120.973 44.7777 120.973 48.8053L120.964 52.919C120.959 55.6337 122.55 58.8092 126.657 58.8092C132.433 58.8092 132.279 52.572 132.279 50.4948C132.279 43.5073 129.202 42.41 126.657 42.41ZM95.5653 35.6353C86.3979 35.6353 81.5588 40.6335 81.5588 49.515V51.1656C81.5588 62.6934 88.3548 65.6616 96.4573 65.6616C104.56 65.6616 107.898 63.4585 107.898 63.4585L106.271 57.5924C106.271 57.5924 102.078 59.3763 97.5 59.3763C92.9219 59.3763 90.7124 58.167 90.1887 53.6055H108.593V48.8997C108.593 39.2651 103.162 35.6353 95.5653 35.6353ZM95.7864 41.5088C98.9591 41.5088 101.016 43.4546 100.903 47.9671H90.2053C90.3913 43.2177 92.6082 41.5088 95.7874 41.5088H95.7864ZM158.262 35.5955C148.849 35.5955 143.892 40.9 143.892 50.4069C143.892 63.4502 152.435 65.5505 158.278 65.5505C166.831 65.5505 172.521 60.9456 172.521 50.5254C172.521 40.1052 166.123 35.5955 158.262 35.5955ZM158.144 42.4331C162.283 42.4331 163.924 45.5309 163.924 49.0579V52.09C163.924 56.3619 161.629 58.8323 158.128 58.8323C154.855 58.8323 152.553 56.521 152.553 52.09V49.0579C152.553 44.3317 155.291 42.4331 158.144 42.4331ZM189.836 35.5955C180.423 35.5955 175.466 40.9 175.466 50.4069C175.466 63.4502 184.009 65.5505 189.852 65.5505C198.405 65.5505 204.096 60.9456 204.096 50.5254C204.096 40.1052 197.697 35.5955 189.836 35.5955ZM189.718 42.4331C193.858 42.4331 195.497 45.5309 195.497 49.0579V52.09C195.497 56.3619 193.202 58.8323 189.702 58.8323C186.429 58.8323 184.128 56.521 184.128 52.09V49.0579C184.128 44.3317 186.865 42.4331 189.718 42.4331ZM207.38 64.9713V21.7676L216.097 21.0098V49.9674L224.744 36.1692H233.95L224.928 50.4606L234.298 64.9723H225.066L216.097 50.8816V64.9723H207.38V64.9713Z" fill="#999999"/>
</g>
<defs>
<clipPath id="clip0_1_2">
<rect width="231.313" height="44.7692" fill="white" transform="translate(2.98462 20.8923)"/>
</clipPath>
</defs>
</svg>
