<svg width="314" height="192" viewBox="0 0 314 192" fill="none" xmlns="http://www.w3.org/2000/svg">
<rect x="0.5" y="0.5" width="313" height="191" rx="15.5" stroke="#D1D1D1" stroke-dasharray="10 5"/>
<rect x="32" y="32" width="250" height="48" rx="13" fill="white"/>
<path d="M59.271 50.794V58.359C59.271 61.249 57.435 63.255 54.256 63.255C51.026 63.255 49.224 61.249 49.224 58.359V50.794H51.808V58.41C51.808 59.923 52.539 60.943 54.256 60.943C55.956 60.943 56.687 59.923 56.687 58.41V50.794H59.271ZM70.1914 58.461C70.1914 61.147 68.6104 63.17 66.1624 63.17C65.0914 63.17 64.1734 62.711 63.4934 61.827V66.281H61.1304V53.922H63.3064V55.248C64.0034 54.279 65.0064 53.752 66.1624 53.752C68.6104 53.752 70.1914 55.792 70.1914 58.461ZM67.7604 58.461C67.7604 56.761 66.7914 55.843 65.6354 55.843C64.4794 55.843 63.5104 56.744 63.5104 58.461C63.5104 60.178 64.4794 61.062 65.6354 61.062C66.7914 61.062 67.7604 60.195 67.7604 58.461ZM73.6776 63H71.2976V50.794H73.6776V63ZM79.4006 63.17C76.7656 63.17 74.7936 61.096 74.7936 58.461C74.7936 55.809 76.7656 53.752 79.4006 53.752C82.0356 53.752 84.0076 55.809 84.0076 58.461C84.0076 61.096 82.0356 63.17 79.4006 63.17ZM79.4006 61.079C80.5736 61.079 81.5766 60.144 81.5766 58.461C81.5766 56.778 80.5736 55.86 79.4006 55.86C78.2276 55.86 77.2246 56.778 77.2246 58.461C77.2246 60.144 78.2276 61.079 79.4006 61.079ZM90.5135 63V61.878C89.9185 62.728 89.0175 63.17 87.7765 63.17C85.8895 63.17 84.6315 62.065 84.6315 60.365C84.6315 58.597 86.0595 57.645 88.7115 57.645C89.2215 57.645 89.6635 57.679 90.2245 57.747V57.203C90.2245 56.183 89.6465 55.588 88.6605 55.588C87.6405 55.588 87.0285 56.183 86.9435 57.203H84.8185C84.9545 55.112 86.4675 53.752 88.6605 53.752C91.0405 53.752 92.4345 55.061 92.4345 57.288V63H90.5135ZM86.8585 60.297C86.8585 61.062 87.4025 61.538 88.2865 61.538C89.4935 61.538 90.2245 60.875 90.2245 59.821V59.175C89.6635 59.09 89.2725 59.056 88.8645 59.056C87.5215 59.056 86.8585 59.481 86.8585 60.297ZM93.4678 58.461C93.4678 55.775 95.0488 53.752 97.4968 53.752C98.5848 53.752 99.5028 54.228 100.183 55.095V50.794H102.529V63H100.37V61.691C99.6558 62.643 98.6698 63.17 97.4968 63.17C95.0488 63.17 93.4678 61.113 93.4678 58.461ZM95.8988 58.461C95.8988 60.161 96.8678 61.062 98.0238 61.062C99.1968 61.062 100.166 60.144 100.166 58.427C100.166 56.71 99.1798 55.843 98.0238 55.843C96.8678 55.843 95.8988 56.727 95.8988 58.461ZM110.163 63H107.579V50.794H115.467V53.038H110.163V56.115H114.634V58.342H110.163V63ZM119.366 51.814C119.366 52.613 118.72 53.208 117.785 53.208C116.867 53.208 116.221 52.613 116.221 51.814C116.221 50.981 116.867 50.386 117.785 50.386C118.72 50.386 119.366 50.981 119.366 51.814ZM118.992 63H116.629V53.922H118.992V63ZM123.067 63H120.687V50.794H123.067V63ZM128.722 63.153C126.002 63.153 124.183 61.266 124.183 58.427C124.183 55.724 126.07 53.752 128.688 53.752C131.561 53.752 133.465 56.081 133.04 59.039H126.597C126.75 60.518 127.464 61.334 128.671 61.334C129.708 61.334 130.405 60.824 130.677 59.923H133.023C132.513 61.98 130.932 63.153 128.722 63.153ZM128.637 55.486C127.532 55.486 126.835 56.2 126.631 57.543H130.541C130.473 56.285 129.759 55.486 128.637 55.486Z" fill="black"/>
<path d="M246 63.2783C246 65.0132 246.855 65.8848 248.573 65.8848H256.376C258.094 65.8848 258.949 65.0049 258.949 63.2783V61.7427H260.402C262.112 61.7427 262.975 60.8628 262.975 59.1362V52.396C262.975 51.375 262.768 50.7275 262.145 50.0884L257.953 45.8301C257.364 45.2241 256.667 45 255.778 45H252.599C250.889 45 250.026 45.8799 250.026 47.6064V49.1421H248.573C246.863 49.1421 246 50.0137 246 51.7485V63.2783ZM258.161 54.5874L253.587 49.9307C252.956 49.2832 252.433 49.1421 251.503 49.1421H251.362V47.6313C251.362 46.8096 251.802 46.3364 252.666 46.3364H256.334V50.5947C256.334 51.5576 256.799 52.0142 257.754 52.0142H261.639V59.1113C261.639 59.9414 261.19 60.4062 260.327 60.4062H258.949V56.7954C258.949 55.7329 258.825 55.2681 258.161 54.5874ZM257.538 50.3955V46.9922L261.29 50.8105H257.945C257.654 50.8105 257.538 50.686 257.538 50.3955ZM247.336 63.2534V51.7651C247.336 50.9517 247.776 50.4785 248.64 50.4785H251.362V55.293C251.362 56.3389 251.894 56.8618 252.923 56.8618H257.613V63.2534C257.613 64.0835 257.165 64.5483 256.31 64.5483H248.631C247.776 64.5483 247.336 64.0835 247.336 63.2534ZM253.081 55.6084C252.749 55.6084 252.616 55.4756 252.616 55.1436V50.7856L257.355 55.6084H253.081Z" fill="black"/>
<rect x="32" y="112" width="250" height="48" rx="13" fill="#2C2C2E"/>
<path d="M59.271 130.794V138.359C59.271 141.249 57.435 143.255 54.256 143.255C51.026 143.255 49.224 141.249 49.224 138.359V130.794H51.808V138.41C51.808 139.923 52.539 140.943 54.256 140.943C55.956 140.943 56.687 139.923 56.687 138.41V130.794H59.271ZM70.1914 138.461C70.1914 141.147 68.6104 143.17 66.1624 143.17C65.0914 143.17 64.1734 142.711 63.4934 141.827V146.281H61.1304V133.922H63.3064V135.248C64.0034 134.279 65.0064 133.752 66.1624 133.752C68.6104 133.752 70.1914 135.792 70.1914 138.461ZM67.7604 138.461C67.7604 136.761 66.7914 135.843 65.6354 135.843C64.4794 135.843 63.5104 136.744 63.5104 138.461C63.5104 140.178 64.4794 141.062 65.6354 141.062C66.7914 141.062 67.7604 140.195 67.7604 138.461ZM73.6776 143H71.2976V130.794H73.6776V143ZM79.4006 143.17C76.7656 143.17 74.7936 141.096 74.7936 138.461C74.7936 135.809 76.7656 133.752 79.4006 133.752C82.0356 133.752 84.0076 135.809 84.0076 138.461C84.0076 141.096 82.0356 143.17 79.4006 143.17ZM79.4006 141.079C80.5736 141.079 81.5766 140.144 81.5766 138.461C81.5766 136.778 80.5736 135.86 79.4006 135.86C78.2276 135.86 77.2246 136.778 77.2246 138.461C77.2246 140.144 78.2276 141.079 79.4006 141.079ZM90.5135 143V141.878C89.9185 142.728 89.0175 143.17 87.7765 143.17C85.8895 143.17 84.6315 142.065 84.6315 140.365C84.6315 138.597 86.0595 137.645 88.7115 137.645C89.2215 137.645 89.6635 137.679 90.2245 137.747V137.203C90.2245 136.183 89.6465 135.588 88.6605 135.588C87.6405 135.588 87.0285 136.183 86.9435 137.203H84.8185C84.9545 135.112 86.4675 133.752 88.6605 133.752C91.0405 133.752 92.4345 135.061 92.4345 137.288V143H90.5135ZM86.8585 140.297C86.8585 141.062 87.4025 141.538 88.2865 141.538C89.4935 141.538 90.2245 140.875 90.2245 139.821V139.175C89.6635 139.09 89.2725 139.056 88.8645 139.056C87.5215 139.056 86.8585 139.481 86.8585 140.297ZM93.4678 138.461C93.4678 135.775 95.0488 133.752 97.4968 133.752C98.5848 133.752 99.5028 134.228 100.183 135.095V130.794H102.529V143H100.37V141.691C99.6558 142.643 98.6698 143.17 97.4968 143.17C95.0488 143.17 93.4678 141.113 93.4678 138.461ZM95.8988 138.461C95.8988 140.161 96.8678 141.062 98.0238 141.062C99.1968 141.062 100.166 140.144 100.166 138.427C100.166 136.71 99.1798 135.843 98.0238 135.843C96.8678 135.843 95.8988 136.727 95.8988 138.461ZM110.163 143H107.579V130.794H115.467V133.038H110.163V136.115H114.634V138.342H110.163V143ZM119.366 131.814C119.366 132.613 118.72 133.208 117.785 133.208C116.867 133.208 116.221 132.613 116.221 131.814C116.221 130.981 116.867 130.386 117.785 130.386C118.72 130.386 119.366 130.981 119.366 131.814ZM118.992 143H116.629V133.922H118.992V143ZM123.067 143H120.687V130.794H123.067V143ZM128.722 143.153C126.002 143.153 124.183 141.266 124.183 138.427C124.183 135.724 126.07 133.752 128.688 133.752C131.561 133.752 133.465 136.081 133.04 139.039H126.597C126.75 140.518 127.464 141.334 128.671 141.334C129.708 141.334 130.405 140.824 130.677 139.923H133.023C132.513 141.98 130.932 143.153 128.722 143.153ZM128.637 135.486C127.532 135.486 126.835 136.2 126.631 137.543H130.541C130.473 136.285 129.759 135.486 128.637 135.486Z" fill="white"/>
<path d="M246 143.278C246 145.013 246.855 145.885 248.573 145.885H256.376C258.094 145.885 258.949 145.005 258.949 143.278V141.743H260.402C262.112 141.743 262.975 140.863 262.975 139.136V132.396C262.975 131.375 262.768 130.728 262.145 130.088L257.953 125.83C257.364 125.224 256.667 125 255.778 125H252.599C250.889 125 250.026 125.88 250.026 127.606V129.142H248.573C246.863 129.142 246 130.014 246 131.749V143.278ZM258.161 134.587L253.587 129.931C252.956 129.283 252.433 129.142 251.503 129.142H251.362V127.631C251.362 126.81 251.802 126.336 252.666 126.336H256.334V130.595C256.334 131.558 256.799 132.014 257.754 132.014H261.639V139.111C261.639 139.941 261.19 140.406 260.327 140.406H258.949V136.795C258.949 135.733 258.825 135.268 258.161 134.587ZM257.538 130.396V126.992L261.29 130.811H257.945C257.654 130.811 257.538 130.686 257.538 130.396ZM247.336 143.253V131.765C247.336 130.952 247.776 130.479 248.64 130.479H251.362V135.293C251.362 136.339 251.894 136.862 252.923 136.862H257.613V143.253C257.613 144.083 257.165 144.548 256.31 144.548H248.631C247.776 144.548 247.336 144.083 247.336 143.253ZM253.081 135.608C252.749 135.608 252.616 135.476 252.616 135.144V130.786L257.355 135.608H253.081Z" fill="white"/>
</svg>
