<svg width="336" height="474" viewBox="0 0 336 474" fill="none" xmlns="http://www.w3.org/2000/svg">
<rect width="336" height="474" rx="40" fill="white"/>
<rect x="126" y="40" width="84" height="83" rx="41.5" fill="url(#paint0_linear_1151_9513)"/>
<path d="M158.777 95.7656C164.921 95.7656 168.822 92.6855 168.822 87.7862C168.822 84.0037 166.561 81.8242 161.038 80.6714L158.176 80.077C154.767 79.3565 153.4 78.0957 153.4 76.2044C153.4 73.8268 155.678 72.3498 158.759 72.3498C161.384 72.3498 163.389 73.3765 164.283 75.7721C164.702 76.7087 165.303 77.1591 166.288 77.1591C167.345 77.1591 168.092 76.4746 168.092 75.4299C168.092 75.0516 168.038 74.7454 167.947 74.4933C166.926 71.0169 163.353 68.9095 158.814 68.9095C153.217 68.9095 149.262 71.9716 149.262 76.4206C149.262 80.1671 151.65 82.5807 156.9 83.6794L159.78 84.2739C163.298 85.0304 164.684 86.2912 164.684 88.3086C164.684 90.6321 162.296 92.3253 158.96 92.3253C155.915 92.3253 153.527 91.1905 152.707 88.7589C152.306 87.7862 151.704 87.3719 150.775 87.3719C149.663 87.3719 148.934 88.1285 148.934 89.2992C148.934 89.7315 149.025 90.1638 149.152 90.5601C150.173 93.5861 153.673 95.7656 158.777 95.7656Z" fill="white"/>
<path d="M177.955 95.7656C183.077 95.7656 186.14 92.7756 186.14 87.6241V71.143C186.14 69.8461 185.356 69.0536 184.098 69.0536C182.822 69.0536 182.056 69.8461 182.056 71.143V87.6061C182.056 90.5601 180.598 92.1632 177.918 92.1632C175.931 92.1632 174.528 91.0464 173.963 89.0291C173.634 87.8403 173.015 87.3179 171.976 87.3179C170.809 87.3179 170.061 88.0744 170.061 89.2992C170.061 90.0197 170.207 90.5421 170.444 91.1905C171.52 94.0184 174.364 95.7656 177.955 95.7656Z" fill="white"/>
<path d="M82.0172 168.42C82.0172 172.564 78.7132 175.28 73.4772 175.28C68.2412 175.28 64.8812 172.508 64.5172 168.056H69.8652C69.9212 169.96 71.1812 171.164 73.3652 171.164C75.1852 171.164 76.3892 170.464 76.3892 169.204C76.3892 168.336 75.5212 167.692 74.3452 167.468L70.6772 166.768C67.4572 166.152 65.3292 164.276 65.3292 161.028C65.3292 157.276 68.6332 154.644 73.1412 154.644C77.9292 154.644 81.3732 157.388 81.6812 161.728H76.3332C76.1932 159.908 74.9612 158.732 73.1972 158.732C71.6292 158.732 70.6772 159.572 70.6772 160.664C70.6772 161.56 71.5732 162.092 72.6372 162.288L76.5292 163.044C80.1132 163.744 82.0172 165.508 82.0172 168.42ZM93.5177 175V173.544C92.4537 174.748 91.1377 175.28 89.2057 175.28C86.0697 175.28 83.9697 173.404 83.9697 170.548C83.9697 167.608 86.3497 166.012 90.6617 166.012C91.4737 166.012 92.2297 166.068 92.8737 166.18V165.452C92.8737 164.136 92.1177 163.408 90.7737 163.408C89.4577 163.408 88.6737 164.136 88.5057 165.452H84.1937C84.4737 161.952 87.0777 159.656 90.8017 159.656C94.9457 159.656 97.3817 161.896 97.3817 165.704V175H93.5177ZM88.4777 170.408C88.4777 171.388 89.1497 171.976 90.3257 171.976C91.9217 171.976 92.8737 171.22 92.8737 169.988V169.036C92.1457 168.896 91.5857 168.84 90.9697 168.84C89.3457 168.84 88.4777 169.372 88.4777 170.408ZM105.514 168.056V175H100.726V159.936H105.122V162.596C106.27 160.832 108.65 159.824 111.058 159.824V164.808C107.67 164.472 105.514 164.724 105.514 168.056ZM122.074 175V173.544C121.01 174.748 119.694 175.28 117.762 175.28C114.626 175.28 112.526 173.404 112.526 170.548C112.526 167.608 114.906 166.012 119.218 166.012C120.03 166.012 120.786 166.068 121.43 166.18V165.452C121.43 164.136 120.674 163.408 119.33 163.408C118.014 163.408 117.23 164.136 117.062 165.452H112.75C113.03 161.952 115.634 159.656 119.358 159.656C123.502 159.656 125.938 161.896 125.938 165.704V175H122.074ZM117.034 170.408C117.034 171.388 117.706 171.976 118.882 171.976C120.478 171.976 121.43 171.22 121.43 169.988V169.036C120.702 168.896 120.142 168.84 119.526 168.84C117.902 168.84 117.034 169.372 117.034 170.408ZM134.07 167.076V175H129.282V154.896H134.07V161.56C135.162 160.384 136.254 159.656 138.158 159.656C141.126 159.656 143.226 161.644 143.226 165.312V175H138.438V166.908C138.438 165.004 137.766 163.968 136.31 163.968C135.134 163.968 134.07 164.808 134.07 167.076ZM167.562 154.896V167.496C167.562 171.976 164.874 175.42 159.47 175.42C154.094 175.42 151.378 171.976 151.378 167.496H156.698C156.698 169.288 157.09 170.688 159.47 170.688C161.822 170.688 162.242 169.288 162.242 167.58V154.896H167.562ZM178.239 175.28C173.787 175.28 170.371 171.78 170.371 167.468C170.371 163.156 173.787 159.656 178.239 159.656C182.691 159.656 186.107 163.156 186.107 167.468C186.107 171.78 182.691 175.28 178.239 175.28ZM178.239 170.996C179.723 170.996 181.123 169.82 181.123 167.468C181.123 165.116 179.723 163.968 178.239 163.968C176.755 163.968 175.355 165.116 175.355 167.468C175.355 169.82 176.755 170.996 178.239 170.996ZM193.451 167.076V175H188.663V154.896H193.451V161.56C194.543 160.384 195.635 159.656 197.539 159.656C200.507 159.656 202.607 161.644 202.607 165.312V175H197.819V166.908C197.819 165.004 197.147 163.968 195.691 163.968C194.515 163.968 193.451 164.808 193.451 167.076ZM210.764 167.076V175H205.976V159.936H210.372V161.756C211.548 160.44 212.948 159.656 214.852 159.656C217.82 159.656 219.92 161.644 219.92 165.312V175H215.132V166.908C215.132 165.004 214.46 163.968 213.004 163.968C211.828 163.968 210.764 164.808 210.764 167.076ZM236.645 169.876C236.645 173.208 234.181 175.28 229.645 175.28C225.109 175.28 222.645 173.152 222.337 169.68H226.929C226.929 170.94 228.077 171.752 229.729 171.752C230.821 171.752 231.801 171.5 231.801 170.716C231.801 170.044 231.297 169.764 230.261 169.568L227.293 169.036C224.661 168.56 222.981 167.048 222.981 164.612C222.981 161.7 225.445 159.656 229.393 159.656C233.341 159.656 236.085 161.756 236.365 165.116H231.773C231.661 163.912 230.737 163.184 229.421 163.184C228.301 163.184 227.573 163.492 227.573 164.164C227.573 164.808 228.049 165.004 229.001 165.172L232.193 165.76C235.105 166.292 236.645 167.72 236.645 169.876ZM246.233 175.28C241.781 175.28 238.365 171.78 238.365 167.468C238.365 163.156 241.781 159.656 246.233 159.656C250.685 159.656 254.101 163.156 254.101 167.468C254.101 171.78 250.685 175.28 246.233 175.28ZM246.233 170.996C247.717 170.996 249.117 169.82 249.117 167.468C249.117 165.116 247.717 163.968 246.233 163.968C244.749 163.968 243.349 165.116 243.349 167.468C243.349 169.82 244.749 170.996 246.233 170.996ZM261.446 167.076V175H256.658V159.936H261.054V161.756C262.23 160.44 263.63 159.656 265.534 159.656C268.502 159.656 270.602 161.644 270.602 165.312V175H265.814V166.908C265.814 165.004 265.142 163.968 263.686 163.968C262.51 163.968 261.446 164.808 261.446 167.076Z" fill="black"/>
<path d="M44.221 199L42.479 192.474L40.737 199H38.735L36.343 189.666H38.267L39.775 195.997L41.491 189.666H43.506L45.17 196.023L46.691 189.666H48.628L46.223 199H44.221ZM51.9786 199.117C49.8986 199.117 48.5076 197.674 48.5076 195.503C48.5076 193.436 49.9506 191.928 51.9526 191.928C54.1496 191.928 55.6056 193.709 55.2806 195.971H50.3536C50.4706 197.102 51.0166 197.726 51.9396 197.726C52.7326 197.726 53.2656 197.336 53.4736 196.647H55.2676C54.8776 198.22 53.6686 199.117 51.9786 199.117ZM51.9136 193.254C51.0686 193.254 50.5356 193.8 50.3796 194.827H53.3696C53.3176 193.865 52.7716 193.254 51.9136 193.254ZM58.2329 199H56.4129V189.666H58.2329V199ZM62.7003 199.13C60.6983 199.13 59.3203 197.648 59.3203 195.529C59.3203 193.449 60.7503 191.928 62.7003 191.928C64.5073 191.928 65.8463 193.15 66.0673 195.022H64.1693C64.0783 194.099 63.5193 193.527 62.7003 193.527C61.7643 193.527 61.1663 194.294 61.1663 195.529C61.1663 196.777 61.7513 197.531 62.7003 197.531C63.5323 197.531 64.0653 196.985 64.1693 196.036H66.0673C65.8593 197.947 64.5593 199.13 62.7003 199.13ZM70.1921 199.13C68.1771 199.13 66.6691 197.544 66.6691 195.529C66.6691 193.501 68.1771 191.928 70.1921 191.928C72.2071 191.928 73.7151 193.501 73.7151 195.529C73.7151 197.544 72.2071 199.13 70.1921 199.13ZM70.1921 197.531C71.0891 197.531 71.8561 196.816 71.8561 195.529C71.8561 194.242 71.0891 193.54 70.1921 193.54C69.2951 193.54 68.5281 194.242 68.5281 195.529C68.5281 196.816 69.2951 197.531 70.1921 197.531ZM76.5972 199H74.7902V192.058H76.4542V193.046C76.9612 192.344 77.6112 191.928 78.5342 191.928C79.4832 191.928 80.2112 192.37 80.5622 193.163C81.1082 192.396 81.8102 191.928 82.8502 191.928C84.2542 191.928 85.2032 192.851 85.2032 194.515V199H83.4092V195.087C83.4092 194.112 82.9932 193.527 82.2002 193.527C81.4852 193.527 80.9002 194.086 80.9002 195.126V199H79.1062V195.087C79.1062 194.112 78.6902 193.527 77.8972 193.527C77.1692 193.527 76.5972 194.086 76.5972 195.126V199ZM89.6872 199.117C87.6072 199.117 86.2162 197.674 86.2162 195.503C86.2162 193.436 87.6592 191.928 89.6612 191.928C91.8582 191.928 93.3142 193.709 92.9892 195.971H88.0622C88.1792 197.102 88.7252 197.726 89.6482 197.726C90.4412 197.726 90.9742 197.336 91.1822 196.647H92.9762C92.5862 198.22 91.3772 199.117 89.6872 199.117ZM89.6222 193.254C88.7772 193.254 88.2442 193.8 88.0882 194.827H91.0782C91.0262 193.865 90.4802 193.254 89.6222 193.254ZM101.076 197.245V198.818C100.634 199.039 100.218 199.13 99.6853 199.13C98.2553 199.13 97.3583 198.311 97.3583 196.751V193.605H95.9543V192.058H97.3583V190.004H99.1523V192.058H101.141V193.605H99.1523V196.335C99.1523 197.141 99.5163 197.466 100.166 197.466C100.504 197.466 100.816 197.388 101.076 197.245ZM105.082 199.13C103.067 199.13 101.559 197.544 101.559 195.529C101.559 193.501 103.067 191.928 105.082 191.928C107.097 191.928 108.605 193.501 108.605 195.529C108.605 197.544 107.097 199.13 105.082 199.13ZM105.082 197.531C105.979 197.531 106.746 196.816 106.746 195.529C106.746 194.242 105.979 193.54 105.082 193.54C104.185 193.54 103.418 194.242 103.418 195.529C103.418 196.816 104.185 197.531 105.082 197.531ZM114.126 199H112.319V192.058H113.983V193.046C114.49 192.344 115.14 191.928 116.063 191.928C117.012 191.928 117.74 192.37 118.091 193.163C118.637 192.396 119.339 191.928 120.379 191.928C121.783 191.928 122.732 192.851 122.732 194.515V199H120.938V195.087C120.938 194.112 120.522 193.527 119.729 193.527C119.014 193.527 118.429 194.086 118.429 195.126V199H116.635V195.087C116.635 194.112 116.219 193.527 115.426 193.527C114.698 193.527 114.126 194.086 114.126 195.126V199ZM130.199 192.058L126.819 201.509H124.856L125.844 198.922L123.114 192.058H125.064L126.806 196.816L128.392 192.058H130.199ZM135.373 199H133.553V189.666H135.373V199ZM139.008 190.446C139.008 191.057 138.514 191.512 137.799 191.512C137.097 191.512 136.603 191.057 136.603 190.446C136.603 189.809 137.097 189.354 137.799 189.354C138.514 189.354 139.008 189.809 139.008 190.446ZM138.722 199H136.915V192.058H138.722V199ZM142.06 195.217V199H140.253V192.058H141.917V193.046C142.424 192.357 143.139 191.928 144.049 191.928C145.44 191.928 146.402 192.838 146.402 194.515V199H144.608V195.126C144.608 194.099 144.205 193.527 143.386 193.527C142.671 193.527 142.06 194.099 142.06 195.217ZM149.688 199H147.881V189.666H149.688V194.996L152.223 192.058H154.303L151.43 195.386L154.641 199H152.34L149.688 195.776V199ZM160.126 190.446C160.126 191.057 159.632 191.512 158.917 191.512C158.215 191.512 157.721 191.057 157.721 190.446C157.721 189.809 158.215 189.354 158.917 189.354C159.632 189.354 160.126 189.809 160.126 190.446ZM159.84 199H158.033V192.058H159.84V199ZM163.177 195.217V199H161.37V192.058H163.034V193.046C163.541 192.357 164.256 191.928 165.166 191.928C166.557 191.928 167.519 192.838 167.519 194.515V199H165.725V195.126C165.725 194.099 165.322 193.527 164.503 193.527C163.788 193.527 163.177 194.099 163.177 195.217ZM178.566 195.529C178.566 197.557 177.357 199.13 175.485 199.13C174.588 199.13 173.834 198.727 173.301 197.999V199H171.637V189.666H173.444V192.955C173.951 192.279 174.653 191.928 175.485 191.928C177.357 191.928 178.566 193.475 178.566 195.529ZM176.707 195.529C176.707 194.203 175.966 193.527 175.082 193.527C174.211 193.527 173.457 194.19 173.457 195.503C173.457 196.816 174.185 197.518 175.082 197.518C175.966 197.518 176.707 196.829 176.707 195.529ZM181.739 190.446C181.739 191.057 181.245 191.512 180.53 191.512C179.828 191.512 179.334 191.057 179.334 190.446C179.334 189.809 179.828 189.354 180.53 189.354C181.245 189.354 181.739 189.809 181.739 190.446ZM181.453 199H179.646V192.058H181.453V199ZM186.051 199.13C184.036 199.13 182.528 197.544 182.528 195.529C182.528 193.501 184.036 191.928 186.051 191.928C188.066 191.928 189.574 193.501 189.574 195.529C189.574 197.544 188.066 199.13 186.051 199.13ZM186.051 197.531C186.948 197.531 187.715 196.816 187.715 195.529C187.715 194.242 186.948 193.54 186.051 193.54C185.154 193.54 184.387 194.242 184.387 195.529C184.387 196.816 185.154 197.531 186.051 197.531ZM200.568 190.446C200.568 191.057 200.074 191.512 199.359 191.512C198.644 191.512 198.15 191.057 198.15 190.446C198.15 189.809 198.644 189.354 199.359 189.354C200.074 189.354 200.568 189.809 200.568 190.446ZM195.745 199H193.951V193.605H192.547V192.058H193.951V191.681C193.951 190.303 194.692 189.523 196.135 189.523C196.577 189.523 196.954 189.601 197.253 189.731V191.161C197.058 191.083 196.798 191.044 196.564 191.044C196.07 191.044 195.745 191.239 195.745 191.72V192.058H197.552V193.605H195.745V199ZM200.269 199H198.475V192.058H200.269V199ZM203.624 195.217V199H201.817V192.058H203.481V193.046C203.988 192.357 204.703 191.928 205.613 191.928C207.004 191.928 207.966 192.838 207.966 194.515V199H206.172V195.126C206.172 194.099 205.769 193.527 204.95 193.527C204.235 193.527 203.624 194.099 203.624 195.217ZM208.99 195.529C208.99 193.475 210.199 191.928 212.071 191.928C212.903 191.928 213.605 192.292 214.125 192.955V189.666H215.919V199H214.268V197.999C213.722 198.727 212.968 199.13 212.071 199.13C210.199 199.13 208.99 197.557 208.99 195.529ZM210.849 195.529C210.849 196.829 211.59 197.518 212.474 197.518C213.371 197.518 214.112 196.816 214.112 195.503C214.112 194.19 213.358 193.527 212.474 193.527C211.59 193.527 210.849 194.203 210.849 195.529ZM224.227 199V198.142C223.772 198.792 223.083 199.13 222.134 199.13C220.691 199.13 219.729 198.285 219.729 196.985C219.729 195.633 220.821 194.905 222.849 194.905C223.239 194.905 223.577 194.931 224.006 194.983V194.567C224.006 193.787 223.564 193.332 222.81 193.332C222.03 193.332 221.562 193.787 221.497 194.567H219.872C219.976 192.968 221.133 191.928 222.81 191.928C224.63 191.928 225.696 192.929 225.696 194.632V199H224.227ZM221.432 196.933C221.432 197.518 221.848 197.882 222.524 197.882C223.447 197.882 224.006 197.375 224.006 196.569V196.075C223.577 196.01 223.278 195.984 222.966 195.984C221.939 195.984 221.432 196.309 221.432 196.933ZM228.995 199H227.175V189.666H228.995V199ZM232.358 199H230.538V189.666H232.358V199ZM238.346 199H236.539V192.058H238.203V193.046C238.71 192.344 239.36 191.928 240.283 191.928C241.232 191.928 241.96 192.37 242.311 193.163C242.857 192.396 243.559 191.928 244.599 191.928C246.003 191.928 246.952 192.851 246.952 194.515V199H245.158V195.087C245.158 194.112 244.742 193.527 243.949 193.527C243.234 193.527 242.649 194.086 242.649 195.126V199H240.855V195.087C240.855 194.112 240.439 193.527 239.646 193.527C238.918 193.527 238.346 194.086 238.346 195.126V199ZM254.419 192.058L251.039 201.509H249.076L250.064 198.922L247.334 192.058H249.284L251.026 196.816L252.612 192.058H254.419ZM263.636 196.777C263.636 198.233 262.531 199.13 260.555 199.13C258.579 199.13 257.474 198.181 257.331 196.634H259.06C259.073 197.349 259.684 197.804 260.581 197.804C261.283 197.804 261.816 197.583 261.816 197.089C261.816 196.647 261.53 196.465 260.867 196.335L259.619 196.101C258.371 195.88 257.617 195.191 257.617 194.112C257.617 192.825 258.722 191.928 260.451 191.928C262.193 191.928 263.389 192.851 263.519 194.346H261.79C261.725 193.67 261.218 193.254 260.451 193.254C259.788 193.254 259.346 193.501 259.346 193.943C259.346 194.359 259.632 194.528 260.256 194.645L261.595 194.892C262.947 195.152 263.636 195.776 263.636 196.777ZM267.859 199.13C265.844 199.13 264.336 197.544 264.336 195.529C264.336 193.501 265.844 191.928 267.859 191.928C269.874 191.928 271.382 193.501 271.382 195.529C271.382 197.544 269.874 199.13 267.859 199.13ZM267.859 197.531C268.756 197.531 269.523 196.816 269.523 195.529C269.523 194.242 268.756 193.54 267.859 193.54C266.962 193.54 266.195 194.242 266.195 195.529C266.195 196.816 266.962 197.531 267.859 197.531ZM275.383 199.13C273.381 199.13 272.003 197.648 272.003 195.529C272.003 193.449 273.433 191.928 275.383 191.928C277.19 191.928 278.529 193.15 278.75 195.022H276.852C276.761 194.099 276.202 193.527 275.383 193.527C274.447 193.527 273.849 194.294 273.849 195.529C273.849 196.777 274.434 197.531 275.383 197.531C276.215 197.531 276.748 196.985 276.852 196.036H278.75C278.542 197.947 277.242 199.13 275.383 199.13ZM281.925 190.446C281.925 191.057 281.431 191.512 280.716 191.512C280.014 191.512 279.52 191.057 279.52 190.446C279.52 189.809 280.014 189.354 280.716 189.354C281.431 189.354 281.925 189.809 281.925 190.446ZM281.639 199H279.832V192.058H281.639V199ZM287.303 199V198.142C286.848 198.792 286.159 199.13 285.21 199.13C283.767 199.13 282.805 198.285 282.805 196.985C282.805 195.633 283.897 194.905 285.925 194.905C286.315 194.905 286.653 194.931 287.082 194.983V194.567C287.082 193.787 286.64 193.332 285.886 193.332C285.106 193.332 284.638 193.787 284.573 194.567H282.948C283.052 192.968 284.209 191.928 285.886 191.928C287.706 191.928 288.772 192.929 288.772 194.632V199H287.303ZM284.508 196.933C284.508 197.518 284.924 197.882 285.6 197.882C286.523 197.882 287.082 197.375 287.082 196.569V196.075C286.653 196.01 286.354 195.984 286.042 195.984C285.015 195.984 284.508 196.309 284.508 196.933ZM292.071 199H290.251V189.666H292.071V199ZM299.476 196.777C299.476 198.233 298.371 199.13 296.395 199.13C294.419 199.13 293.314 198.181 293.171 196.634H294.9C294.913 197.349 295.524 197.804 296.421 197.804C297.123 197.804 297.656 197.583 297.656 197.089C297.656 196.647 297.37 196.465 296.707 196.335L295.459 196.101C294.211 195.88 293.457 195.191 293.457 194.112C293.457 192.825 294.562 191.928 296.291 191.928C298.033 191.928 299.229 192.851 299.359 194.346H297.63C297.565 193.67 297.058 193.254 296.291 193.254C295.628 193.254 295.186 193.501 295.186 193.943C295.186 194.359 295.472 194.528 296.096 194.645L297.435 194.892C298.787 195.152 299.476 195.776 299.476 196.777ZM134.74 208.446C134.74 209.057 134.246 209.512 133.531 209.512C132.829 209.512 132.335 209.057 132.335 208.446C132.335 207.809 132.829 207.354 133.531 207.354C134.246 207.354 134.74 207.809 134.74 208.446ZM134.454 217H132.647V210.058H134.454V217ZM137.791 213.217V217H135.984V210.058H137.648V211.046C138.155 210.357 138.87 209.928 139.78 209.928C141.171 209.928 142.133 210.838 142.133 212.515V217H140.339V213.126C140.339 212.099 139.936 211.527 139.117 211.527C138.402 211.527 137.791 212.099 137.791 213.217ZM149.319 217.13C147.304 217.13 145.796 215.544 145.796 213.529C145.796 211.501 147.304 209.928 149.319 209.928C151.334 209.928 152.842 211.501 152.842 213.529C152.842 215.544 151.334 217.13 149.319 217.13ZM149.319 215.531C150.216 215.531 150.983 214.816 150.983 213.529C150.983 212.242 150.216 211.54 149.319 211.54C148.422 211.54 147.655 212.242 147.655 213.529C147.655 214.816 148.422 215.531 149.319 215.531ZM155.724 213.217V217H153.917V210.058H155.581V211.046C156.088 210.357 156.803 209.928 157.713 209.928C159.104 209.928 160.066 210.838 160.066 212.515V217H158.272V213.126C158.272 212.099 157.869 211.527 157.05 211.527C156.335 211.527 155.724 212.099 155.724 213.217ZM164.561 217.117C162.481 217.117 161.09 215.674 161.09 213.503C161.09 211.436 162.533 209.928 164.535 209.928C166.732 209.928 168.188 211.709 167.863 213.971H162.936C163.053 215.102 163.599 215.726 164.522 215.726C165.315 215.726 165.848 215.336 166.056 214.647H167.85C167.46 216.22 166.251 217.117 164.561 217.117ZM164.496 211.254C163.651 211.254 163.118 211.8 162.962 212.827H165.952C165.9 211.865 165.354 211.254 164.496 211.254ZM178.563 213.529C178.563 215.583 177.354 217.13 175.482 217.13C174.663 217.13 173.961 216.779 173.441 216.103V219.509H171.634V210.058H173.298V211.072C173.831 210.331 174.598 209.928 175.482 209.928C177.354 209.928 178.563 211.488 178.563 213.529ZM176.704 213.529C176.704 212.229 175.963 211.527 175.079 211.527C174.195 211.527 173.454 212.216 173.454 213.529C173.454 214.842 174.195 215.518 175.079 215.518C175.963 215.518 176.704 214.855 176.704 213.529ZM181.463 217H179.643V207.666H181.463V217ZM187.14 217V216.142C186.685 216.792 185.996 217.13 185.047 217.13C183.604 217.13 182.642 216.285 182.642 214.985C182.642 213.633 183.734 212.905 185.762 212.905C186.152 212.905 186.49 212.931 186.919 212.983V212.567C186.919 211.787 186.477 211.332 185.723 211.332C184.943 211.332 184.475 211.787 184.41 212.567H182.785C182.889 210.968 184.046 209.928 185.723 209.928C187.543 209.928 188.609 210.929 188.609 212.632V217H187.14ZM184.345 214.933C184.345 215.518 184.761 215.882 185.437 215.882C186.36 215.882 186.919 215.375 186.919 214.569V214.075C186.49 214.01 186.191 213.984 185.879 213.984C184.852 213.984 184.345 214.309 184.345 214.933ZM193.013 217.13C191.011 217.13 189.633 215.648 189.633 213.529C189.633 211.449 191.063 209.928 193.013 209.928C194.82 209.928 196.159 211.15 196.38 213.022H194.482C194.391 212.099 193.832 211.527 193.013 211.527C192.077 211.527 191.479 212.294 191.479 213.529C191.479 214.777 192.064 215.531 193.013 215.531C193.845 215.531 194.378 214.985 194.482 214.036H196.38C196.172 215.947 194.872 217.13 193.013 217.13ZM200.453 217.117C198.373 217.117 196.982 215.674 196.982 213.503C196.982 211.436 198.425 209.928 200.427 209.928C202.624 209.928 204.08 211.709 203.755 213.971H198.828C198.945 215.102 199.491 215.726 200.414 215.726C201.207 215.726 201.74 215.336 201.948 214.647H203.742C203.352 216.22 202.143 217.117 200.453 217.117ZM200.388 211.254C199.543 211.254 199.01 211.8 198.854 212.827H201.844C201.792 211.865 201.246 211.254 200.388 211.254Z" fill="black"/>
<rect x="32" y="245" width="272" height="50" rx="14" fill="#F2F2F7"/>
<path d="M146.37 277L144.092 268.466L141.814 277H139.196L136.068 264.794H138.584L140.556 273.073L142.8 264.794H145.435L147.611 273.107L149.6 264.794H152.133L148.988 277H146.37ZM156.208 277.153C153.488 277.153 151.669 275.266 151.669 272.427C151.669 269.724 153.556 267.752 156.174 267.752C159.047 267.752 160.951 270.081 160.526 273.039H154.083C154.236 274.518 154.95 275.334 156.157 275.334C157.194 275.334 157.891 274.824 158.163 273.923H160.509C159.999 275.98 158.418 277.153 156.208 277.153ZM156.123 269.486C155.018 269.486 154.321 270.2 154.117 271.543H158.027C157.959 270.285 157.245 269.486 156.123 269.486ZM170.762 272.461C170.762 275.113 169.181 277.17 166.733 277.17C165.56 277.17 164.574 276.643 163.877 275.691V277H161.701V264.794H164.064V269.095C164.727 268.211 165.645 267.752 166.733 267.752C169.181 267.752 170.762 269.775 170.762 272.461ZM168.331 272.461C168.331 270.727 167.362 269.843 166.206 269.843C165.067 269.843 164.081 270.71 164.081 272.427C164.081 274.144 165.033 275.062 166.206 275.062C167.362 275.062 168.331 274.161 168.331 272.461ZM179.535 274.093C179.535 275.997 178.09 277.17 175.506 277.17C172.922 277.17 171.477 275.929 171.29 273.906H173.551C173.568 274.841 174.367 275.436 175.54 275.436C176.458 275.436 177.155 275.147 177.155 274.501C177.155 273.923 176.781 273.685 175.914 273.515L174.282 273.209C172.65 272.92 171.664 272.019 171.664 270.608C171.664 268.925 173.109 267.752 175.37 267.752C177.648 267.752 179.212 268.959 179.382 270.914H177.121C177.036 270.03 176.373 269.486 175.37 269.486C174.503 269.486 173.925 269.809 173.925 270.387C173.925 270.931 174.299 271.152 175.115 271.305L176.866 271.628C178.634 271.968 179.535 272.784 179.535 274.093ZM183.477 265.814C183.477 266.613 182.831 267.208 181.896 267.208C180.978 267.208 180.332 266.613 180.332 265.814C180.332 264.981 180.978 264.386 181.896 264.386C182.831 264.386 183.477 264.981 183.477 265.814ZM183.103 277H180.74V267.922H183.103V277ZM190.442 274.705V276.762C189.864 277.051 189.32 277.17 188.623 277.17C186.753 277.17 185.58 276.099 185.58 274.059V269.945H183.744V267.922H185.58V265.236H187.926V267.922H190.527V269.945H187.926V273.515C187.926 274.569 188.402 274.994 189.252 274.994C189.694 274.994 190.102 274.892 190.442 274.705ZM195.307 277.153C192.587 277.153 190.768 275.266 190.768 272.427C190.768 269.724 192.655 267.752 195.273 267.752C198.146 267.752 200.05 270.081 199.625 273.039H193.182C193.335 274.518 194.049 275.334 195.256 275.334C196.293 275.334 196.99 274.824 197.262 273.923H199.608C199.098 275.98 197.517 277.153 195.307 277.153ZM195.222 269.486C194.117 269.486 193.42 270.2 193.216 271.543H197.126C197.058 270.285 196.344 269.486 195.222 269.486Z" fill="black"/>
<rect x="32" y="319" width="272" height="50" rx="14" fill="#F2F2F7"/>
<path d="M110.843 351L109.925 348.382H105.182L104.247 351H101.646L106.236 338.794H109.058L113.614 351H110.843ZM107.579 341.616L105.913 346.325H109.211L107.579 341.616ZM117.37 351H115.024V343.945H113.188V341.922H115.024V341.429C115.024 339.627 115.993 338.607 117.88 338.607C118.458 338.607 118.951 338.709 119.342 338.879V340.749C119.087 340.647 118.747 340.596 118.441 340.596C117.795 340.596 117.37 340.851 117.37 341.48V341.922H119.733V343.945H117.37V351ZM130.457 339.814C130.457 340.613 129.811 341.208 128.876 341.208C127.941 341.208 127.295 340.613 127.295 339.814C127.295 338.981 127.941 338.386 128.876 338.386C129.811 338.386 130.457 338.981 130.457 339.814ZM124.15 351H121.804V343.945H119.968V341.922H121.804V341.429C121.804 339.627 122.773 338.607 124.66 338.607C125.238 338.607 125.731 338.709 126.122 338.879V340.749C125.867 340.647 125.527 340.596 125.221 340.596C124.575 340.596 124.15 340.851 124.15 341.48V341.922H126.513V343.945H124.15V351ZM130.066 351H127.72V341.922H130.066V351ZM134.165 351H131.785V338.794H134.165V351ZM138.613 339.814C138.613 340.613 137.967 341.208 137.032 341.208C136.114 341.208 135.468 340.613 135.468 339.814C135.468 338.981 136.114 338.386 137.032 338.386C137.967 338.386 138.613 338.981 138.613 339.814ZM138.239 351H135.876V341.922H138.239V351ZM145.34 351V349.878C144.745 350.728 143.844 351.17 142.603 351.17C140.716 351.17 139.458 350.065 139.458 348.365C139.458 346.597 140.886 345.645 143.538 345.645C144.048 345.645 144.49 345.679 145.051 345.747V345.203C145.051 344.183 144.473 343.588 143.487 343.588C142.467 343.588 141.855 344.183 141.77 345.203H139.645C139.781 343.112 141.294 341.752 143.487 341.752C145.867 341.752 147.261 343.061 147.261 345.288V351H145.34ZM141.685 348.297C141.685 349.062 142.229 349.538 143.113 349.538C144.32 349.538 145.051 348.875 145.051 347.821V347.175C144.49 347.09 144.099 347.056 143.691 347.056C142.348 347.056 141.685 347.481 141.685 348.297ZM154.4 348.705V350.762C153.822 351.051 153.278 351.17 152.581 351.17C150.711 351.17 149.538 350.099 149.538 348.059V343.945H147.702V341.922H149.538V339.236H151.884V341.922H154.485V343.945H151.884V347.515C151.884 348.569 152.36 348.994 153.21 348.994C153.652 348.994 154.06 348.892 154.4 348.705ZM159.265 351.153C156.545 351.153 154.726 349.266 154.726 346.427C154.726 343.724 156.613 341.752 159.231 341.752C162.104 341.752 164.008 344.081 163.583 347.039H157.14C157.293 348.518 158.007 349.334 159.214 349.334C160.251 349.334 160.948 348.824 161.22 347.923H163.566C163.056 349.98 161.475 351.153 159.265 351.153ZM159.18 343.486C158.075 343.486 157.378 344.2 157.174 345.543H161.084C161.016 344.285 160.302 343.486 159.18 343.486ZM172.611 347.022H170.69V351H168.106V338.794H172.611C175.586 338.794 177.439 340.205 177.439 342.857C177.439 345.509 175.586 347.022 172.611 347.022ZM172.594 340.97H170.69V344.846H172.594C174.056 344.846 174.872 344.081 174.872 342.874C174.872 341.667 174.056 340.97 172.594 340.97ZM180.947 346.597V351H178.584V341.922H180.76V343.673C181.423 342.517 182.834 341.82 184.296 341.82V344.268C182.29 344.115 180.947 344.591 180.947 346.597ZM189.061 351.17C186.426 351.17 184.454 349.096 184.454 346.461C184.454 343.809 186.426 341.752 189.061 341.752C191.696 341.752 193.668 343.809 193.668 346.461C193.668 349.096 191.696 351.17 189.061 351.17ZM189.061 349.079C190.234 349.079 191.237 348.144 191.237 346.461C191.237 344.778 190.234 343.86 189.061 343.86C187.888 343.86 186.885 344.778 186.885 346.461C186.885 348.144 187.888 349.079 189.061 349.079ZM198.461 354.451C196.013 354.451 194.381 353.125 194.279 351.034H196.557C196.659 352.071 197.322 352.615 198.444 352.615C199.753 352.615 200.433 351.918 200.433 350.609V349.283C199.94 350.15 199.005 350.66 197.9 350.66C195.673 350.66 194.007 348.773 194.007 346.206C194.007 343.571 195.571 341.752 197.815 341.752C199.039 341.752 199.957 342.228 200.62 343.163V341.922H202.779V350.575C202.779 352.989 201.147 354.451 198.461 354.451ZM196.37 346.206C196.37 347.685 197.135 348.62 198.359 348.62C199.6 348.62 200.416 347.651 200.416 346.223C200.416 344.744 199.6 343.792 198.359 343.792C197.152 343.792 196.37 344.727 196.37 346.206ZM206.867 346.597V351H204.504V341.922H206.68V343.673C207.343 342.517 208.754 341.82 210.216 341.82V344.268C208.21 344.115 206.867 344.591 206.867 346.597ZM216.441 351V349.878C215.846 350.728 214.945 351.17 213.704 351.17C211.817 351.17 210.559 350.065 210.559 348.365C210.559 346.597 211.987 345.645 214.639 345.645C215.149 345.645 215.591 345.679 216.152 345.747V345.203C216.152 344.183 215.574 343.588 214.588 343.588C213.568 343.588 212.956 344.183 212.871 345.203H210.746C210.882 343.112 212.395 341.752 214.588 341.752C216.968 341.752 218.362 343.061 218.362 345.288V351H216.441ZM212.786 348.297C212.786 349.062 213.33 349.538 214.214 349.538C215.421 349.538 216.152 348.875 216.152 347.821V347.175C215.591 347.09 215.2 347.056 214.792 347.056C213.449 347.056 212.786 347.481 212.786 348.297ZM222.354 351H219.991V341.922H222.167V343.214C222.83 342.296 223.68 341.752 224.887 341.752C226.128 341.752 227.08 342.33 227.539 343.367C228.253 342.364 229.171 341.752 230.531 341.752C232.367 341.752 233.608 342.959 233.608 345.135V351H231.262V345.883C231.262 344.608 230.718 343.843 229.681 343.843C228.746 343.843 227.981 344.574 227.981 345.934V351H225.635V345.883C225.635 344.608 225.091 343.843 224.054 343.843C223.102 343.843 222.354 344.574 222.354 345.934V351Z" fill="black"/>
<rect x="32" y="393" width="272" height="50" rx="14" fill="#F2F2F7"/>
<path d="M131.953 425H129.369V412.794H131.953V425ZM136.201 420.053V425H133.838V415.922H136.014V417.214C136.677 416.313 137.612 415.752 138.802 415.752C140.621 415.752 141.879 416.942 141.879 419.135V425H139.533V419.934C139.533 418.591 139.006 417.843 137.935 417.843C137 417.843 136.201 418.591 136.201 420.053ZM151.174 422.093C151.174 423.997 149.729 425.17 147.145 425.17C144.561 425.17 143.116 423.929 142.929 421.906H145.19C145.207 422.841 146.006 423.436 147.179 423.436C148.097 423.436 148.794 423.147 148.794 422.501C148.794 421.923 148.42 421.685 147.553 421.515L145.921 421.209C144.289 420.92 143.303 420.019 143.303 418.608C143.303 416.925 144.748 415.752 147.009 415.752C149.287 415.752 150.851 416.959 151.021 418.914H148.76C148.675 418.03 148.012 417.486 147.009 417.486C146.142 417.486 145.564 417.809 145.564 418.387C145.564 418.931 145.938 419.152 146.754 419.305L148.505 419.628C150.273 419.968 151.174 420.784 151.174 422.093ZM157.84 422.705V424.762C157.262 425.051 156.718 425.17 156.021 425.17C154.151 425.17 152.978 424.099 152.978 422.059V417.945H151.142V415.922H152.978V413.236H155.324V415.922H157.925V417.945H155.324V421.515C155.324 422.569 155.8 422.994 156.65 422.994C157.092 422.994 157.5 422.892 157.84 422.705ZM164.366 425V423.878C163.771 424.728 162.87 425.17 161.629 425.17C159.742 425.17 158.484 424.065 158.484 422.365C158.484 420.597 159.912 419.645 162.564 419.645C163.074 419.645 163.516 419.679 164.077 419.747V419.203C164.077 418.183 163.499 417.588 162.513 417.588C161.493 417.588 160.881 418.183 160.796 419.203H158.671C158.807 417.112 160.32 415.752 162.513 415.752C164.893 415.752 166.287 417.061 166.287 419.288V425H164.366ZM160.711 422.297C160.711 423.062 161.255 423.538 162.139 423.538C163.346 423.538 164.077 422.875 164.077 421.821V421.175C163.516 421.09 163.125 421.056 162.717 421.056C161.374 421.056 160.711 421.481 160.711 422.297ZM171.775 428.451C169.327 428.451 167.695 427.125 167.593 425.034H169.871C169.973 426.071 170.636 426.615 171.758 426.615C173.067 426.615 173.747 425.918 173.747 424.609V423.283C173.254 424.15 172.319 424.66 171.214 424.66C168.987 424.66 167.321 422.773 167.321 420.206C167.321 417.571 168.885 415.752 171.129 415.752C172.353 415.752 173.271 416.228 173.934 417.163V415.922H176.093V424.575C176.093 426.989 174.461 428.451 171.775 428.451ZM169.684 420.206C169.684 421.685 170.449 422.62 171.673 422.62C172.914 422.62 173.73 421.651 173.73 420.223C173.73 418.744 172.914 417.792 171.673 417.792C170.466 417.792 169.684 418.727 169.684 420.206ZM180.18 420.597V425H177.817V415.922H179.993V417.673C180.656 416.517 182.067 415.82 183.529 415.82V418.268C181.523 418.115 180.18 418.591 180.18 420.597ZM189.755 425V423.878C189.16 424.728 188.259 425.17 187.018 425.17C185.131 425.17 183.873 424.065 183.873 422.365C183.873 420.597 185.301 419.645 187.953 419.645C188.463 419.645 188.905 419.679 189.466 419.747V419.203C189.466 418.183 188.888 417.588 187.902 417.588C186.882 417.588 186.27 418.183 186.185 419.203H184.06C184.196 417.112 185.709 415.752 187.902 415.752C190.282 415.752 191.676 417.061 191.676 419.288V425H189.755ZM186.1 422.297C186.1 423.062 186.644 423.538 187.528 423.538C188.735 423.538 189.466 422.875 189.466 421.821V421.175C188.905 421.09 188.514 421.056 188.106 421.056C186.763 421.056 186.1 421.481 186.1 422.297ZM195.667 425H193.304V415.922H195.48V417.214C196.143 416.296 196.993 415.752 198.2 415.752C199.441 415.752 200.393 416.33 200.852 417.367C201.566 416.364 202.484 415.752 203.844 415.752C205.68 415.752 206.921 416.959 206.921 419.135V425H204.575V419.883C204.575 418.608 204.031 417.843 202.994 417.843C202.059 417.843 201.294 418.574 201.294 419.934V425H198.948V419.883C198.948 418.608 198.404 417.843 197.367 417.843C196.415 417.843 195.667 418.574 195.667 419.934V425Z" fill="black"/>
<rect x="294" y="20" width="22" height="22" rx="11" fill="white"/>
<path d="M300.226 34.6205C299.927 34.9204 299.92 35.4529 300.233 35.7651C300.551 36.0773 301.083 36.0711 301.377 35.7773L305.001 32.1538L308.618 35.7712C308.924 36.0773 309.451 36.0773 309.763 35.7651C310.075 35.4468 310.075 34.9265 309.769 34.6205L306.151 31.0031L309.769 27.3795C310.075 27.0735 310.081 26.5471 309.763 26.2349C309.451 25.9227 308.924 25.9227 308.618 26.2288L305.001 29.8462L301.377 26.2288C301.083 25.9289 300.545 25.9166 300.233 26.2349C299.92 26.5471 299.927 27.0857 300.226 27.3795L303.844 31.0031L300.226 34.6205Z" fill="#3C3C43" fill-opacity="0.6"/>
<defs>
<linearGradient id="paint0_linear_1151_9513" x1="168" y1="40" x2="168" y2="123" gradientUnits="userSpaceOnUse">
<stop stop-color="#F19FB4"/>
<stop offset="1" stop-color="#EE7B95"/>
</linearGradient>
</defs>
</svg>
