<svg width="398" height="320" viewBox="0 0 398 320" fill="none" xmlns="http://www.w3.org/2000/svg">
<rect x="0.5" y="0.5" width="397" height="319" rx="15.5" stroke="#C8C8C8" stroke-dasharray="10 5"/>
<g filter="url(#filter0_d_2317_10769)">
<rect x="32" y="32" width="334" height="40" rx="10" fill="white"/>
<path d="M130.125 57.7158H135.703C136.459 57.7158 136.828 57.3408 136.828 56.5205V52.2197C136.828 51.4814 136.523 51.1006 135.896 51.0361V49.5596C135.896 47.3506 134.449 46.2842 132.914 46.2842C131.379 46.2842 129.932 47.3506 129.932 49.5596V51.0654C129.357 51.1533 129 51.5283 129 52.2197V56.5205C129 57.3408 129.369 57.7158 130.125 57.7158ZM130.875 49.4365C130.875 47.9658 131.818 47.1865 132.914 47.1865C134.01 47.1865 134.953 47.9658 134.953 49.4365V51.0303L130.875 51.0361V49.4365Z" fill="#3C3C43" fill-opacity="0.6"/>
<path d="M147.469 59.187C145.106 59.187 143.457 57.266 143.457 54.512C143.457 51.792 145.123 49.871 147.469 49.871C149.56 49.871 151.056 51.265 151.413 53.509H150.206C149.934 51.877 148.914 50.908 147.469 50.908C145.803 50.908 144.664 52.37 144.664 54.512C144.664 56.688 145.803 58.15 147.469 58.15C148.931 58.15 149.934 57.198 150.206 55.532H151.413C151.09 57.81 149.577 59.187 147.469 59.187ZM158.655 55.379V50.041H159.828V59H158.723V57.385C158.264 58.422 157.176 59.17 155.867 59.17C154.048 59.17 152.841 58.133 152.841 55.872V50.041H154.031V55.617C154.031 57.436 154.932 58.133 156.19 58.133C157.618 58.133 158.655 56.977 158.655 55.379ZM168.695 56.501C168.695 58.15 167.369 59.17 165.159 59.17C162.932 59.17 161.572 58.048 161.402 56.195H162.541C162.626 57.47 163.629 58.269 165.159 58.269C166.621 58.269 167.505 57.708 167.505 56.688C167.505 55.804 166.995 55.396 165.635 55.124L164.343 54.869C162.643 54.546 161.742 53.713 161.742 52.421C161.742 50.925 163.068 49.871 165.023 49.871C167.08 49.871 168.44 50.976 168.576 52.761H167.454C167.335 51.52 166.434 50.789 165.023 50.789C163.765 50.789 162.898 51.384 162.898 52.319C162.898 53.203 163.442 53.628 164.768 53.883L166.111 54.138C167.896 54.478 168.695 55.226 168.695 56.501ZM174.896 57.861V58.915C174.437 59.102 174.046 59.17 173.604 59.17C172.125 59.17 170.986 58.405 170.986 56.467V51.044H168.878V50.041H170.986V47.389H172.176V50.041H174.981V51.044H172.176V56.212C172.176 57.606 172.856 58.082 173.842 58.082C174.216 58.082 174.522 58.014 174.896 57.861ZM179.677 59.17C177.212 59.17 175.427 57.215 175.427 54.512C175.427 51.826 177.212 49.888 179.677 49.888C182.159 49.888 183.944 51.826 183.944 54.512C183.944 57.215 182.159 59.17 179.677 59.17ZM179.677 58.133C181.428 58.133 182.737 56.739 182.737 54.512C182.737 52.319 181.428 50.925 179.677 50.925C177.943 50.925 176.634 52.319 176.634 54.512C176.634 56.739 177.943 58.133 179.677 58.133ZM186.65 59H185.46V50.041H186.565V51.724C187.16 50.568 188.214 49.871 189.489 49.871C190.883 49.871 191.92 50.636 192.294 51.945C192.855 50.687 193.977 49.871 195.388 49.871C197.241 49.871 198.397 51.095 198.397 53.186V59H197.224V53.577C197.224 51.877 196.442 50.908 194.997 50.908C193.637 50.908 192.532 52.098 192.532 53.747V59H191.342V53.577C191.342 51.877 190.56 50.908 189.115 50.908C187.738 50.908 186.65 52.098 186.65 53.747V59ZM201.681 59H200.491V46.794H201.681V59ZM205.399 47.967C205.399 48.494 205.008 48.868 204.43 48.868C203.869 48.868 203.478 48.494 203.478 47.967C203.478 47.457 203.869 47.083 204.43 47.083C205.008 47.083 205.399 47.457 205.399 47.967ZM205.042 59H203.852V50.041H205.042V59ZM208.403 53.781V59H207.213V50.041H208.318V51.724C208.896 50.619 209.984 49.871 211.276 49.871C213.146 49.871 214.353 51.061 214.353 53.186V59H213.163V53.594C213.163 51.877 212.381 50.908 210.919 50.908C209.525 50.908 208.403 52.115 208.403 53.781ZM217.64 59H216.45V46.794H217.64V54.206L221.958 50.041H223.369L218.847 54.427L223.743 59H222.196L217.64 54.699V59ZM231.174 56.501C231.174 58.15 229.848 59.17 227.638 59.17C225.411 59.17 224.051 58.048 223.881 56.195H225.02C225.105 57.47 226.108 58.269 227.638 58.269C229.1 58.269 229.984 57.708 229.984 56.688C229.984 55.804 229.474 55.396 228.114 55.124L226.822 54.869C225.122 54.546 224.221 53.713 224.221 52.421C224.221 50.925 225.547 49.871 227.502 49.871C229.559 49.871 230.919 50.976 231.055 52.761H229.933C229.814 51.52 228.913 50.789 227.502 50.789C226.244 50.789 225.377 51.384 225.377 52.319C225.377 53.203 225.921 53.628 227.247 53.883L228.59 54.138C230.375 54.478 231.174 55.226 231.174 56.501ZM234.805 58.014C234.805 58.626 234.363 59.085 233.734 59.085C233.122 59.085 232.663 58.626 232.663 58.014C232.663 57.368 233.122 56.926 233.734 56.926C234.363 56.926 234.805 57.368 234.805 58.014ZM239.875 59.187C237.512 59.187 235.863 57.266 235.863 54.512C235.863 51.792 237.529 49.871 239.875 49.871C241.966 49.871 243.462 51.265 243.819 53.509H242.612C242.34 51.877 241.32 50.908 239.875 50.908C238.209 50.908 237.07 52.37 237.07 54.512C237.07 56.688 238.209 58.15 239.875 58.15C241.337 58.15 242.34 57.198 242.612 55.532H243.819C243.496 57.81 241.983 59.187 239.875 59.187ZM248.803 59.17C246.338 59.17 244.553 57.215 244.553 54.512C244.553 51.826 246.338 49.888 248.803 49.888C251.285 49.888 253.07 51.826 253.07 54.512C253.07 57.215 251.285 59.17 248.803 59.17ZM248.803 58.133C250.554 58.133 251.863 56.739 251.863 54.512C251.863 52.319 250.554 50.925 248.803 50.925C247.069 50.925 245.76 52.319 245.76 54.512C245.76 56.739 247.069 58.133 248.803 58.133ZM255.776 59H254.586V50.041H255.691V51.724C256.286 50.568 257.34 49.871 258.615 49.871C260.009 49.871 261.046 50.636 261.42 51.945C261.981 50.687 263.103 49.871 264.514 49.871C266.367 49.871 267.523 51.095 267.523 53.186V59H266.35V53.577C266.35 51.877 265.568 50.908 264.123 50.908C262.763 50.908 261.658 52.098 261.658 53.747V59H260.468V53.577C260.468 51.877 259.686 50.908 258.241 50.908C256.864 50.908 255.776 52.098 255.776 53.747V59Z" fill="black"/>
<path d="M339 53.601C339 57.706 342.345 61 346.504 61C350.664 61 354 57.706 354 53.601C354 53.1997 353.711 52.9071 353.295 52.9071C352.896 52.9071 352.633 53.1997 352.633 53.601C352.633 56.9619 349.908 59.654 346.504 59.654C343.1 59.654 340.367 56.9619 340.367 53.601C340.367 50.2485 343.1 47.5648 346.504 47.5648C347.149 47.5648 347.752 47.615 348.253 47.732L345.715 50.2067C345.587 50.3405 345.52 50.5077 345.52 50.6832C345.52 51.0678 345.808 51.3521 346.19 51.3521C346.402 51.3521 346.564 51.2852 346.683 51.1598L350.18 47.6986C350.333 47.5564 350.392 47.3892 350.392 47.1969C350.392 47.013 350.316 46.8291 350.18 46.6953L346.683 43.2007C346.564 43.0669 346.394 43 346.19 43C345.808 43 345.52 43.301 345.52 43.6856C345.52 43.8611 345.587 44.0283 345.706 44.1621L347.964 46.3609C347.523 46.2773 347.022 46.2188 346.504 46.2188C342.345 46.2188 339 49.5044 339 53.601Z" fill="black"/>
<path d="M53.7794 58C54.3063 58 54.5857 57.776 54.7613 57.216L55.6555 54.72H60.2139L61.1 57.216C61.2756 57.776 61.555 58 62.0819 58C62.6408 58 63 57.664 63 57.136C63 56.944 62.9681 56.784 62.8962 56.568L59.3517 47C59.1122 46.328 58.6651 46 57.9387 46C57.2441 46 56.7891 46.328 56.5576 46.992L52.9971 56.608C52.9252 56.816 52.8933 56.984 52.8933 57.152C52.8933 57.68 53.2286 58 53.7794 58ZM56.1105 53.24L57.9147 48.04H57.9626L59.7668 53.24H56.1105ZM44.8143 57.976C45.2294 57.976 45.4849 57.76 45.6366 57.264L46.2113 55.544H49.3168L49.8836 57.272C50.0353 57.776 50.2987 57.976 50.7298 57.976C51.2088 57.976 51.5361 57.672 51.5361 57.216C51.5361 57.032 51.4962 56.848 51.4244 56.64L49.0055 50.16C48.7739 49.528 48.3668 49.224 47.7521 49.224C47.1613 49.224 46.7622 49.52 46.5307 50.16L44.1118 56.64C44.0399 56.832 44 57.04 44 57.216C44 57.688 44.3113 57.976 44.8143 57.976ZM46.5945 54.296L47.6643 50.96H47.8399L48.9256 54.296H46.5945Z" fill="black"/>
</g>
<g filter="url(#filter1_d_2317_10769)">
<path d="M32 104V104C37.6005 104 40.4008 104 42.5399 105.09C44.4215 106.049 45.9513 107.578 46.9101 109.46C48 111.599 48 114.399 48 120V128C48 133.601 48 136.401 46.9101 138.54C45.9513 140.422 44.4215 141.951 42.5399 142.91C40.4008 144 37.6005 144 32 144V144V104Z" fill="white"/>
</g>
<g filter="url(#filter2_d_2317_10769)">
<rect x="58" y="104" width="282" height="40" rx="10" fill="white"/>
<path d="M130.125 129.716H135.703C136.459 129.716 136.828 129.341 136.828 128.521V124.22C136.828 123.481 136.523 123.101 135.896 123.036V121.56C135.896 119.351 134.449 118.284 132.914 118.284C131.379 118.284 129.932 119.351 129.932 121.56V123.065C129.357 123.153 129 123.528 129 124.22V128.521C129 129.341 129.369 129.716 130.125 129.716ZM130.875 121.437C130.875 119.966 131.818 119.187 132.914 119.187C134.01 119.187 134.953 119.966 134.953 121.437V123.03L130.875 123.036V121.437Z" fill="#3C3C43" fill-opacity="0.6"/>
<path d="M147.469 131.187C145.106 131.187 143.457 129.266 143.457 126.512C143.457 123.792 145.123 121.871 147.469 121.871C149.56 121.871 151.056 123.265 151.413 125.509H150.206C149.934 123.877 148.914 122.908 147.469 122.908C145.803 122.908 144.664 124.37 144.664 126.512C144.664 128.688 145.803 130.15 147.469 130.15C148.931 130.15 149.934 129.198 150.206 127.532H151.413C151.09 129.81 149.577 131.187 147.469 131.187ZM158.655 127.379V122.041H159.828V131H158.723V129.385C158.264 130.422 157.176 131.17 155.867 131.17C154.048 131.17 152.841 130.133 152.841 127.872V122.041H154.031V127.617C154.031 129.436 154.932 130.133 156.19 130.133C157.618 130.133 158.655 128.977 158.655 127.379ZM168.695 128.501C168.695 130.15 167.369 131.17 165.159 131.17C162.932 131.17 161.572 130.048 161.402 128.195H162.541C162.626 129.47 163.629 130.269 165.159 130.269C166.621 130.269 167.505 129.708 167.505 128.688C167.505 127.804 166.995 127.396 165.635 127.124L164.343 126.869C162.643 126.546 161.742 125.713 161.742 124.421C161.742 122.925 163.068 121.871 165.023 121.871C167.08 121.871 168.44 122.976 168.576 124.761H167.454C167.335 123.52 166.434 122.789 165.023 122.789C163.765 122.789 162.898 123.384 162.898 124.319C162.898 125.203 163.442 125.628 164.768 125.883L166.111 126.138C167.896 126.478 168.695 127.226 168.695 128.501ZM174.896 129.861V130.915C174.437 131.102 174.046 131.17 173.604 131.17C172.125 131.17 170.986 130.405 170.986 128.467V123.044H168.878V122.041H170.986V119.389H172.176V122.041H174.981V123.044H172.176V128.212C172.176 129.606 172.856 130.082 173.842 130.082C174.216 130.082 174.522 130.014 174.896 129.861ZM179.677 131.17C177.212 131.17 175.427 129.215 175.427 126.512C175.427 123.826 177.212 121.888 179.677 121.888C182.159 121.888 183.944 123.826 183.944 126.512C183.944 129.215 182.159 131.17 179.677 131.17ZM179.677 130.133C181.428 130.133 182.737 128.739 182.737 126.512C182.737 124.319 181.428 122.925 179.677 122.925C177.943 122.925 176.634 124.319 176.634 126.512C176.634 128.739 177.943 130.133 179.677 130.133ZM186.65 131H185.46V122.041H186.565V123.724C187.16 122.568 188.214 121.871 189.489 121.871C190.883 121.871 191.92 122.636 192.294 123.945C192.855 122.687 193.977 121.871 195.388 121.871C197.241 121.871 198.397 123.095 198.397 125.186V131H197.224V125.577C197.224 123.877 196.442 122.908 194.997 122.908C193.637 122.908 192.532 124.098 192.532 125.747V131H191.342V125.577C191.342 123.877 190.56 122.908 189.115 122.908C187.738 122.908 186.65 124.098 186.65 125.747V131ZM201.681 131H200.491V118.794H201.681V131ZM205.399 119.967C205.399 120.494 205.008 120.868 204.43 120.868C203.869 120.868 203.478 120.494 203.478 119.967C203.478 119.457 203.869 119.083 204.43 119.083C205.008 119.083 205.399 119.457 205.399 119.967ZM205.042 131H203.852V122.041H205.042V131ZM208.403 125.781V131H207.213V122.041H208.318V123.724C208.896 122.619 209.984 121.871 211.276 121.871C213.146 121.871 214.353 123.061 214.353 125.186V131H213.163V125.594C213.163 123.877 212.381 122.908 210.919 122.908C209.525 122.908 208.403 124.115 208.403 125.781ZM217.64 131H216.45V118.794H217.64V126.206L221.958 122.041H223.369L218.847 126.427L223.743 131H222.196L217.64 126.699V131ZM231.174 128.501C231.174 130.15 229.848 131.17 227.638 131.17C225.411 131.17 224.051 130.048 223.881 128.195H225.02C225.105 129.47 226.108 130.269 227.638 130.269C229.1 130.269 229.984 129.708 229.984 128.688C229.984 127.804 229.474 127.396 228.114 127.124L226.822 126.869C225.122 126.546 224.221 125.713 224.221 124.421C224.221 122.925 225.547 121.871 227.502 121.871C229.559 121.871 230.919 122.976 231.055 124.761H229.933C229.814 123.52 228.913 122.789 227.502 122.789C226.244 122.789 225.377 123.384 225.377 124.319C225.377 125.203 225.921 125.628 227.247 125.883L228.59 126.138C230.375 126.478 231.174 127.226 231.174 128.501ZM234.805 130.014C234.805 130.626 234.363 131.085 233.734 131.085C233.122 131.085 232.663 130.626 232.663 130.014C232.663 129.368 233.122 128.926 233.734 128.926C234.363 128.926 234.805 129.368 234.805 130.014ZM239.875 131.187C237.512 131.187 235.863 129.266 235.863 126.512C235.863 123.792 237.529 121.871 239.875 121.871C241.966 121.871 243.462 123.265 243.819 125.509H242.612C242.34 123.877 241.32 122.908 239.875 122.908C238.209 122.908 237.07 124.37 237.07 126.512C237.07 128.688 238.209 130.15 239.875 130.15C241.337 130.15 242.34 129.198 242.612 127.532H243.819C243.496 129.81 241.983 131.187 239.875 131.187ZM248.803 131.17C246.338 131.17 244.553 129.215 244.553 126.512C244.553 123.826 246.338 121.888 248.803 121.888C251.285 121.888 253.07 123.826 253.07 126.512C253.07 129.215 251.285 131.17 248.803 131.17ZM248.803 130.133C250.554 130.133 251.863 128.739 251.863 126.512C251.863 124.319 250.554 122.925 248.803 122.925C247.069 122.925 245.76 124.319 245.76 126.512C245.76 128.739 247.069 130.133 248.803 130.133ZM255.776 131H254.586V122.041H255.691V123.724C256.286 122.568 257.34 121.871 258.615 121.871C260.009 121.871 261.046 122.636 261.42 123.945C261.981 122.687 263.103 121.871 264.514 121.871C266.367 121.871 267.523 123.095 267.523 125.186V131H266.35V125.577C266.35 123.877 265.568 122.908 264.123 122.908C262.763 122.908 261.658 124.098 261.658 125.747V131H260.468V125.577C260.468 123.877 259.686 122.908 258.241 122.908C256.864 122.908 255.776 124.098 255.776 125.747V131Z" fill="black"/>
<path d="M313 125.601C313 129.706 316.345 133 320.504 133C324.664 133 328 129.706 328 125.601C328 125.2 327.711 124.907 327.295 124.907C326.896 124.907 326.633 125.2 326.633 125.601C326.633 128.962 323.908 131.654 320.504 131.654C317.1 131.654 314.367 128.962 314.367 125.601C314.367 122.248 317.1 119.565 320.504 119.565C321.149 119.565 321.752 119.615 322.253 119.732L319.715 122.207C319.587 122.34 319.52 122.508 319.52 122.683C319.52 123.068 319.808 123.352 320.19 123.352C320.402 123.352 320.564 123.285 320.683 123.16L324.18 119.699C324.333 119.556 324.392 119.389 324.392 119.197C324.392 119.013 324.316 118.829 324.18 118.695L320.683 115.201C320.564 115.067 320.394 115 320.19 115C319.808 115 319.52 115.301 319.52 115.686C319.52 115.861 319.587 116.028 319.706 116.162L321.964 118.361C321.523 118.277 321.022 118.219 320.504 118.219C316.345 118.219 313 121.504 313 125.601Z" fill="black"/>
<path d="M79.7794 130C80.3063 130 80.5857 129.776 80.7613 129.216L81.6555 126.72H86.2139L87.1 129.216C87.2756 129.776 87.555 130 88.0819 130C88.6408 130 89 129.664 89 129.136C89 128.944 88.9681 128.784 88.8962 128.568L85.3517 119C85.1122 118.328 84.6651 118 83.9387 118C83.2441 118 82.7891 118.328 82.5576 118.992L78.9971 128.608C78.9252 128.816 78.8933 128.984 78.8933 129.152C78.8933 129.68 79.2286 130 79.7794 130ZM82.1105 125.24L83.9147 120.04H83.9626L85.7668 125.24H82.1105ZM70.8143 129.976C71.2294 129.976 71.4849 129.76 71.6366 129.264L72.2113 127.544H75.3168L75.8836 129.272C76.0353 129.776 76.2987 129.976 76.7298 129.976C77.2088 129.976 77.5361 129.672 77.5361 129.216C77.5361 129.032 77.4962 128.848 77.4244 128.64L75.0055 122.16C74.7739 121.528 74.3668 121.224 73.7521 121.224C73.1613 121.224 72.7622 121.52 72.5307 122.16L70.1118 128.64C70.0399 128.832 70 129.04 70 129.216C70 129.688 70.3113 129.976 70.8143 129.976ZM72.5945 126.296L73.6643 122.96H73.8399L74.9256 126.296H72.5945Z" fill="black"/>
</g>
<g filter="url(#filter3_d_2317_10769)">
<path d="M350 120C350 114.399 350 111.599 351.09 109.46C352.049 107.578 353.578 106.049 355.46 105.09C357.599 104 360.399 104 366 104V104V144V144C360.399 144 357.599 144 355.46 142.91C353.578 141.951 352.049 140.422 351.09 138.54C350 136.401 350 133.601 350 128V120Z" fill="white"/>
</g>
<g filter="url(#filter4_d_2317_10769)">
<rect x="32" y="176" width="334" height="40" rx="10" fill="#545454"/>
<path d="M130.125 201.716H135.703C136.459 201.716 136.828 201.341 136.828 200.521V196.22C136.828 195.481 136.523 195.101 135.896 195.036V193.56C135.896 191.351 134.449 190.284 132.914 190.284C131.379 190.284 129.932 191.351 129.932 193.56V195.065C129.357 195.153 129 195.528 129 196.22V200.521C129 201.341 129.369 201.716 130.125 201.716ZM130.875 193.437C130.875 191.966 131.818 191.187 132.914 191.187C134.01 191.187 134.953 191.966 134.953 193.437V195.03L130.875 195.036V193.437Z" fill="white"/>
<path d="M147.469 203.187C145.106 203.187 143.457 201.266 143.457 198.512C143.457 195.792 145.123 193.871 147.469 193.871C149.56 193.871 151.056 195.265 151.413 197.509H150.206C149.934 195.877 148.914 194.908 147.469 194.908C145.803 194.908 144.664 196.37 144.664 198.512C144.664 200.688 145.803 202.15 147.469 202.15C148.931 202.15 149.934 201.198 150.206 199.532H151.413C151.09 201.81 149.577 203.187 147.469 203.187ZM158.655 199.379V194.041H159.828V203H158.723V201.385C158.264 202.422 157.176 203.17 155.867 203.17C154.048 203.17 152.841 202.133 152.841 199.872V194.041H154.031V199.617C154.031 201.436 154.932 202.133 156.19 202.133C157.618 202.133 158.655 200.977 158.655 199.379ZM168.695 200.501C168.695 202.15 167.369 203.17 165.159 203.17C162.932 203.17 161.572 202.048 161.402 200.195H162.541C162.626 201.47 163.629 202.269 165.159 202.269C166.621 202.269 167.505 201.708 167.505 200.688C167.505 199.804 166.995 199.396 165.635 199.124L164.343 198.869C162.643 198.546 161.742 197.713 161.742 196.421C161.742 194.925 163.068 193.871 165.023 193.871C167.08 193.871 168.44 194.976 168.576 196.761H167.454C167.335 195.52 166.434 194.789 165.023 194.789C163.765 194.789 162.898 195.384 162.898 196.319C162.898 197.203 163.442 197.628 164.768 197.883L166.111 198.138C167.896 198.478 168.695 199.226 168.695 200.501ZM174.896 201.861V202.915C174.437 203.102 174.046 203.17 173.604 203.17C172.125 203.17 170.986 202.405 170.986 200.467V195.044H168.878V194.041H170.986V191.389H172.176V194.041H174.981V195.044H172.176V200.212C172.176 201.606 172.856 202.082 173.842 202.082C174.216 202.082 174.522 202.014 174.896 201.861ZM179.677 203.17C177.212 203.17 175.427 201.215 175.427 198.512C175.427 195.826 177.212 193.888 179.677 193.888C182.159 193.888 183.944 195.826 183.944 198.512C183.944 201.215 182.159 203.17 179.677 203.17ZM179.677 202.133C181.428 202.133 182.737 200.739 182.737 198.512C182.737 196.319 181.428 194.925 179.677 194.925C177.943 194.925 176.634 196.319 176.634 198.512C176.634 200.739 177.943 202.133 179.677 202.133ZM186.65 203H185.46V194.041H186.565V195.724C187.16 194.568 188.214 193.871 189.489 193.871C190.883 193.871 191.92 194.636 192.294 195.945C192.855 194.687 193.977 193.871 195.388 193.871C197.241 193.871 198.397 195.095 198.397 197.186V203H197.224V197.577C197.224 195.877 196.442 194.908 194.997 194.908C193.637 194.908 192.532 196.098 192.532 197.747V203H191.342V197.577C191.342 195.877 190.56 194.908 189.115 194.908C187.738 194.908 186.65 196.098 186.65 197.747V203ZM201.681 203H200.491V190.794H201.681V203ZM205.399 191.967C205.399 192.494 205.008 192.868 204.43 192.868C203.869 192.868 203.478 192.494 203.478 191.967C203.478 191.457 203.869 191.083 204.43 191.083C205.008 191.083 205.399 191.457 205.399 191.967ZM205.042 203H203.852V194.041H205.042V203ZM208.403 197.781V203H207.213V194.041H208.318V195.724C208.896 194.619 209.984 193.871 211.276 193.871C213.146 193.871 214.353 195.061 214.353 197.186V203H213.163V197.594C213.163 195.877 212.381 194.908 210.919 194.908C209.525 194.908 208.403 196.115 208.403 197.781ZM217.64 203H216.45V190.794H217.64V198.206L221.958 194.041H223.369L218.847 198.427L223.743 203H222.196L217.64 198.699V203ZM231.174 200.501C231.174 202.15 229.848 203.17 227.638 203.17C225.411 203.17 224.051 202.048 223.881 200.195H225.02C225.105 201.47 226.108 202.269 227.638 202.269C229.1 202.269 229.984 201.708 229.984 200.688C229.984 199.804 229.474 199.396 228.114 199.124L226.822 198.869C225.122 198.546 224.221 197.713 224.221 196.421C224.221 194.925 225.547 193.871 227.502 193.871C229.559 193.871 230.919 194.976 231.055 196.761H229.933C229.814 195.52 228.913 194.789 227.502 194.789C226.244 194.789 225.377 195.384 225.377 196.319C225.377 197.203 225.921 197.628 227.247 197.883L228.59 198.138C230.375 198.478 231.174 199.226 231.174 200.501ZM234.805 202.014C234.805 202.626 234.363 203.085 233.734 203.085C233.122 203.085 232.663 202.626 232.663 202.014C232.663 201.368 233.122 200.926 233.734 200.926C234.363 200.926 234.805 201.368 234.805 202.014ZM239.875 203.187C237.512 203.187 235.863 201.266 235.863 198.512C235.863 195.792 237.529 193.871 239.875 193.871C241.966 193.871 243.462 195.265 243.819 197.509H242.612C242.34 195.877 241.32 194.908 239.875 194.908C238.209 194.908 237.07 196.37 237.07 198.512C237.07 200.688 238.209 202.15 239.875 202.15C241.337 202.15 242.34 201.198 242.612 199.532H243.819C243.496 201.81 241.983 203.187 239.875 203.187ZM248.803 203.17C246.338 203.17 244.553 201.215 244.553 198.512C244.553 195.826 246.338 193.888 248.803 193.888C251.285 193.888 253.07 195.826 253.07 198.512C253.07 201.215 251.285 203.17 248.803 203.17ZM248.803 202.133C250.554 202.133 251.863 200.739 251.863 198.512C251.863 196.319 250.554 194.925 248.803 194.925C247.069 194.925 245.76 196.319 245.76 198.512C245.76 200.739 247.069 202.133 248.803 202.133ZM255.776 203H254.586V194.041H255.691V195.724C256.286 194.568 257.34 193.871 258.615 193.871C260.009 193.871 261.046 194.636 261.42 195.945C261.981 194.687 263.103 193.871 264.514 193.871C266.367 193.871 267.523 195.095 267.523 197.186V203H266.35V197.577C266.35 195.877 265.568 194.908 264.123 194.908C262.763 194.908 261.658 196.098 261.658 197.747V203H260.468V197.577C260.468 195.877 259.686 194.908 258.241 194.908C256.864 194.908 255.776 196.098 255.776 197.747V203Z" fill="white"/>
<path d="M339 197.601C339 201.706 342.345 205 346.504 205C350.664 205 354 201.706 354 197.601C354 197.2 353.711 196.907 353.295 196.907C352.896 196.907 352.633 197.2 352.633 197.601C352.633 200.962 349.908 203.654 346.504 203.654C343.1 203.654 340.367 200.962 340.367 197.601C340.367 194.248 343.1 191.565 346.504 191.565C347.149 191.565 347.752 191.615 348.253 191.732L345.715 194.207C345.587 194.34 345.52 194.508 345.52 194.683C345.52 195.068 345.808 195.352 346.19 195.352C346.402 195.352 346.564 195.285 346.683 195.16L350.18 191.699C350.333 191.556 350.392 191.389 350.392 191.197C350.392 191.013 350.316 190.829 350.18 190.695L346.683 187.201C346.564 187.067 346.394 187 346.19 187C345.808 187 345.52 187.301 345.52 187.686C345.52 187.861 345.587 188.028 345.706 188.162L347.964 190.361C347.523 190.277 347.022 190.219 346.504 190.219C342.345 190.219 339 193.504 339 197.601Z" fill="white"/>
<path d="M53.7794 202C54.3063 202 54.5857 201.776 54.7613 201.216L55.6555 198.72H60.2139L61.1 201.216C61.2756 201.776 61.555 202 62.0819 202C62.6408 202 63 201.664 63 201.136C63 200.944 62.9681 200.784 62.8962 200.568L59.3517 191C59.1122 190.328 58.6651 190 57.9387 190C57.2441 190 56.7891 190.328 56.5576 190.992L52.9971 200.608C52.9252 200.816 52.8933 200.984 52.8933 201.152C52.8933 201.68 53.2286 202 53.7794 202ZM56.1105 197.24L57.9147 192.04H57.9626L59.7668 197.24H56.1105ZM44.8143 201.976C45.2294 201.976 45.4849 201.76 45.6366 201.264L46.2113 199.544H49.3168L49.8836 201.272C50.0353 201.776 50.2987 201.976 50.7298 201.976C51.2088 201.976 51.5361 201.672 51.5361 201.216C51.5361 201.032 51.4962 200.848 51.4244 200.64L49.0055 194.16C48.7739 193.528 48.3668 193.224 47.7521 193.224C47.1613 193.224 46.7622 193.52 46.5307 194.16L44.1118 200.64C44.0399 200.832 44 201.04 44 201.216C44 201.688 44.3113 201.976 44.8143 201.976ZM46.5945 198.296L47.6643 194.96H47.8399L48.9256 198.296H46.5945Z" fill="white"/>
</g>
<g filter="url(#filter5_d_2317_10769)">
<path d="M32 248V248C37.6005 248 40.4008 248 42.5399 249.09C44.4215 250.049 45.9513 251.578 46.9101 253.46C48 255.599 48 258.399 48 264V272C48 277.601 48 280.401 46.9101 282.54C45.9513 284.422 44.4215 285.951 42.5399 286.91C40.4008 288 37.6005 288 32 288V288V248Z" fill="#545454"/>
</g>
<g filter="url(#filter6_d_2317_10769)">
<rect x="58" y="248" width="282" height="40" rx="10" fill="#545454"/>
<path d="M130.125 273.716H135.703C136.459 273.716 136.828 273.341 136.828 272.521V268.22C136.828 267.481 136.523 267.101 135.896 267.036V265.56C135.896 263.351 134.449 262.284 132.914 262.284C131.379 262.284 129.932 263.351 129.932 265.56V267.065C129.357 267.153 129 267.528 129 268.22V272.521C129 273.341 129.369 273.716 130.125 273.716ZM130.875 265.437C130.875 263.966 131.818 263.187 132.914 263.187C134.01 263.187 134.953 263.966 134.953 265.437V267.03L130.875 267.036V265.437Z" fill="white"/>
<path d="M147.469 275.187C145.106 275.187 143.457 273.266 143.457 270.512C143.457 267.792 145.123 265.871 147.469 265.871C149.56 265.871 151.056 267.265 151.413 269.509H150.206C149.934 267.877 148.914 266.908 147.469 266.908C145.803 266.908 144.664 268.37 144.664 270.512C144.664 272.688 145.803 274.15 147.469 274.15C148.931 274.15 149.934 273.198 150.206 271.532H151.413C151.09 273.81 149.577 275.187 147.469 275.187ZM158.655 271.379V266.041H159.828V275H158.723V273.385C158.264 274.422 157.176 275.17 155.867 275.17C154.048 275.17 152.841 274.133 152.841 271.872V266.041H154.031V271.617C154.031 273.436 154.932 274.133 156.19 274.133C157.618 274.133 158.655 272.977 158.655 271.379ZM168.695 272.501C168.695 274.15 167.369 275.17 165.159 275.17C162.932 275.17 161.572 274.048 161.402 272.195H162.541C162.626 273.47 163.629 274.269 165.159 274.269C166.621 274.269 167.505 273.708 167.505 272.688C167.505 271.804 166.995 271.396 165.635 271.124L164.343 270.869C162.643 270.546 161.742 269.713 161.742 268.421C161.742 266.925 163.068 265.871 165.023 265.871C167.08 265.871 168.44 266.976 168.576 268.761H167.454C167.335 267.52 166.434 266.789 165.023 266.789C163.765 266.789 162.898 267.384 162.898 268.319C162.898 269.203 163.442 269.628 164.768 269.883L166.111 270.138C167.896 270.478 168.695 271.226 168.695 272.501ZM174.896 273.861V274.915C174.437 275.102 174.046 275.17 173.604 275.17C172.125 275.17 170.986 274.405 170.986 272.467V267.044H168.878V266.041H170.986V263.389H172.176V266.041H174.981V267.044H172.176V272.212C172.176 273.606 172.856 274.082 173.842 274.082C174.216 274.082 174.522 274.014 174.896 273.861ZM179.677 275.17C177.212 275.17 175.427 273.215 175.427 270.512C175.427 267.826 177.212 265.888 179.677 265.888C182.159 265.888 183.944 267.826 183.944 270.512C183.944 273.215 182.159 275.17 179.677 275.17ZM179.677 274.133C181.428 274.133 182.737 272.739 182.737 270.512C182.737 268.319 181.428 266.925 179.677 266.925C177.943 266.925 176.634 268.319 176.634 270.512C176.634 272.739 177.943 274.133 179.677 274.133ZM186.65 275H185.46V266.041H186.565V267.724C187.16 266.568 188.214 265.871 189.489 265.871C190.883 265.871 191.92 266.636 192.294 267.945C192.855 266.687 193.977 265.871 195.388 265.871C197.241 265.871 198.397 267.095 198.397 269.186V275H197.224V269.577C197.224 267.877 196.442 266.908 194.997 266.908C193.637 266.908 192.532 268.098 192.532 269.747V275H191.342V269.577C191.342 267.877 190.56 266.908 189.115 266.908C187.738 266.908 186.65 268.098 186.65 269.747V275ZM201.681 275H200.491V262.794H201.681V275ZM205.399 263.967C205.399 264.494 205.008 264.868 204.43 264.868C203.869 264.868 203.478 264.494 203.478 263.967C203.478 263.457 203.869 263.083 204.43 263.083C205.008 263.083 205.399 263.457 205.399 263.967ZM205.042 275H203.852V266.041H205.042V275ZM208.403 269.781V275H207.213V266.041H208.318V267.724C208.896 266.619 209.984 265.871 211.276 265.871C213.146 265.871 214.353 267.061 214.353 269.186V275H213.163V269.594C213.163 267.877 212.381 266.908 210.919 266.908C209.525 266.908 208.403 268.115 208.403 269.781ZM217.64 275H216.45V262.794H217.64V270.206L221.958 266.041H223.369L218.847 270.427L223.743 275H222.196L217.64 270.699V275ZM231.174 272.501C231.174 274.15 229.848 275.17 227.638 275.17C225.411 275.17 224.051 274.048 223.881 272.195H225.02C225.105 273.47 226.108 274.269 227.638 274.269C229.1 274.269 229.984 273.708 229.984 272.688C229.984 271.804 229.474 271.396 228.114 271.124L226.822 270.869C225.122 270.546 224.221 269.713 224.221 268.421C224.221 266.925 225.547 265.871 227.502 265.871C229.559 265.871 230.919 266.976 231.055 268.761H229.933C229.814 267.52 228.913 266.789 227.502 266.789C226.244 266.789 225.377 267.384 225.377 268.319C225.377 269.203 225.921 269.628 227.247 269.883L228.59 270.138C230.375 270.478 231.174 271.226 231.174 272.501ZM234.805 274.014C234.805 274.626 234.363 275.085 233.734 275.085C233.122 275.085 232.663 274.626 232.663 274.014C232.663 273.368 233.122 272.926 233.734 272.926C234.363 272.926 234.805 273.368 234.805 274.014ZM239.875 275.187C237.512 275.187 235.863 273.266 235.863 270.512C235.863 267.792 237.529 265.871 239.875 265.871C241.966 265.871 243.462 267.265 243.819 269.509H242.612C242.34 267.877 241.32 266.908 239.875 266.908C238.209 266.908 237.07 268.37 237.07 270.512C237.07 272.688 238.209 274.15 239.875 274.15C241.337 274.15 242.34 273.198 242.612 271.532H243.819C243.496 273.81 241.983 275.187 239.875 275.187ZM248.803 275.17C246.338 275.17 244.553 273.215 244.553 270.512C244.553 267.826 246.338 265.888 248.803 265.888C251.285 265.888 253.07 267.826 253.07 270.512C253.07 273.215 251.285 275.17 248.803 275.17ZM248.803 274.133C250.554 274.133 251.863 272.739 251.863 270.512C251.863 268.319 250.554 266.925 248.803 266.925C247.069 266.925 245.76 268.319 245.76 270.512C245.76 272.739 247.069 274.133 248.803 274.133ZM255.776 275H254.586V266.041H255.691V267.724C256.286 266.568 257.34 265.871 258.615 265.871C260.009 265.871 261.046 266.636 261.42 267.945C261.981 266.687 263.103 265.871 264.514 265.871C266.367 265.871 267.523 267.095 267.523 269.186V275H266.35V269.577C266.35 267.877 265.568 266.908 264.123 266.908C262.763 266.908 261.658 268.098 261.658 269.747V275H260.468V269.577C260.468 267.877 259.686 266.908 258.241 266.908C256.864 266.908 255.776 268.098 255.776 269.747V275Z" fill="white"/>
<path d="M313 269.601C313 273.706 316.345 277 320.504 277C324.664 277 328 273.706 328 269.601C328 269.2 327.711 268.907 327.295 268.907C326.896 268.907 326.633 269.2 326.633 269.601C326.633 272.962 323.908 275.654 320.504 275.654C317.1 275.654 314.367 272.962 314.367 269.601C314.367 266.248 317.1 263.565 320.504 263.565C321.149 263.565 321.752 263.615 322.253 263.732L319.715 266.207C319.587 266.34 319.52 266.508 319.52 266.683C319.52 267.068 319.808 267.352 320.19 267.352C320.402 267.352 320.564 267.285 320.683 267.16L324.18 263.699C324.333 263.556 324.392 263.389 324.392 263.197C324.392 263.013 324.316 262.829 324.18 262.695L320.683 259.201C320.564 259.067 320.394 259 320.19 259C319.808 259 319.52 259.301 319.52 259.686C319.52 259.861 319.587 260.028 319.706 260.162L321.964 262.361C321.523 262.277 321.022 262.219 320.504 262.219C316.345 262.219 313 265.504 313 269.601Z" fill="white"/>
<path d="M79.7794 274C80.3063 274 80.5857 273.776 80.7613 273.216L81.6555 270.72H86.2139L87.1 273.216C87.2756 273.776 87.555 274 88.0819 274C88.6408 274 89 273.664 89 273.136C89 272.944 88.9681 272.784 88.8962 272.568L85.3517 263C85.1122 262.328 84.6651 262 83.9387 262C83.2441 262 82.7891 262.328 82.5576 262.992L78.9971 272.608C78.9252 272.816 78.8933 272.984 78.8933 273.152C78.8933 273.68 79.2286 274 79.7794 274ZM82.1105 269.24L83.9147 264.04H83.9626L85.7668 269.24H82.1105ZM70.8143 273.976C71.2294 273.976 71.4849 273.76 71.6366 273.264L72.2113 271.544H75.3168L75.8836 273.272C76.0353 273.776 76.2987 273.976 76.7298 273.976C77.2088 273.976 77.5361 273.672 77.5361 273.216C77.5361 273.032 77.4962 272.848 77.4244 272.64L75.0055 266.16C74.7739 265.528 74.3668 265.224 73.7521 265.224C73.1613 265.224 72.7622 265.52 72.5307 266.16L70.1118 272.64C70.0399 272.832 70 273.04 70 273.216C70 273.688 70.3113 273.976 70.8143 273.976ZM72.5945 270.296L73.6643 266.96H73.8399L74.9256 270.296H72.5945Z" fill="white"/>
</g>
<g filter="url(#filter7_d_2317_10769)">
<path d="M350 264C350 258.399 350 255.599 351.09 253.46C352.049 251.578 353.578 250.049 355.46 249.09C357.599 248 360.399 248 366 248V248V288V288C360.399 288 357.599 288 355.46 286.91C353.578 285.951 352.049 284.422 351.09 282.54C350 280.401 350 277.601 350 272V264Z" fill="#545454"/>
</g>
<defs>
<filter id="filter0_d_2317_10769" x="12" y="16" width="374" height="80" filterUnits="userSpaceOnUse" color-interpolation-filters="sRGB">
<feFlood flood-opacity="0" result="BackgroundImageFix"/>
<feColorMatrix in="SourceAlpha" type="matrix" values="0 0 0 0 0 0 0 0 0 0 0 0 0 0 0 0 0 0 127 0" result="hardAlpha"/>
<feOffset dy="4"/>
<feGaussianBlur stdDeviation="10"/>
<feColorMatrix type="matrix" values="0 0 0 0 0 0 0 0 0 0 0 0 0 0 0 0 0 0 0.1 0"/>
<feBlend mode="normal" in2="BackgroundImageFix" result="effect1_dropShadow_2317_10769"/>
<feBlend mode="normal" in="SourceGraphic" in2="effect1_dropShadow_2317_10769" result="shape"/>
</filter>
<filter id="filter1_d_2317_10769" x="12" y="88" width="56" height="80" filterUnits="userSpaceOnUse" color-interpolation-filters="sRGB">
<feFlood flood-opacity="0" result="BackgroundImageFix"/>
<feColorMatrix in="SourceAlpha" type="matrix" values="0 0 0 0 0 0 0 0 0 0 0 0 0 0 0 0 0 0 127 0" result="hardAlpha"/>
<feOffset dy="4"/>
<feGaussianBlur stdDeviation="10"/>
<feColorMatrix type="matrix" values="0 0 0 0 0 0 0 0 0 0 0 0 0 0 0 0 0 0 0.1 0"/>
<feBlend mode="normal" in2="BackgroundImageFix" result="effect1_dropShadow_2317_10769"/>
<feBlend mode="normal" in="SourceGraphic" in2="effect1_dropShadow_2317_10769" result="shape"/>
</filter>
<filter id="filter2_d_2317_10769" x="38" y="88" width="322" height="80" filterUnits="userSpaceOnUse" color-interpolation-filters="sRGB">
<feFlood flood-opacity="0" result="BackgroundImageFix"/>
<feColorMatrix in="SourceAlpha" type="matrix" values="0 0 0 0 0 0 0 0 0 0 0 0 0 0 0 0 0 0 127 0" result="hardAlpha"/>
<feOffset dy="4"/>
<feGaussianBlur stdDeviation="10"/>
<feColorMatrix type="matrix" values="0 0 0 0 0 0 0 0 0 0 0 0 0 0 0 0 0 0 0.1 0"/>
<feBlend mode="normal" in2="BackgroundImageFix" result="effect1_dropShadow_2317_10769"/>
<feBlend mode="normal" in="SourceGraphic" in2="effect1_dropShadow_2317_10769" result="shape"/>
</filter>
<filter id="filter3_d_2317_10769" x="330" y="88" width="56" height="80" filterUnits="userSpaceOnUse" color-interpolation-filters="sRGB">
<feFlood flood-opacity="0" result="BackgroundImageFix"/>
<feColorMatrix in="SourceAlpha" type="matrix" values="0 0 0 0 0 0 0 0 0 0 0 0 0 0 0 0 0 0 127 0" result="hardAlpha"/>
<feOffset dy="4"/>
<feGaussianBlur stdDeviation="10"/>
<feColorMatrix type="matrix" values="0 0 0 0 0 0 0 0 0 0 0 0 0 0 0 0 0 0 0.1 0"/>
<feBlend mode="normal" in2="BackgroundImageFix" result="effect1_dropShadow_2317_10769"/>
<feBlend mode="normal" in="SourceGraphic" in2="effect1_dropShadow_2317_10769" result="shape"/>
</filter>
<filter id="filter4_d_2317_10769" x="12" y="160" width="374" height="80" filterUnits="userSpaceOnUse" color-interpolation-filters="sRGB">
<feFlood flood-opacity="0" result="BackgroundImageFix"/>
<feColorMatrix in="SourceAlpha" type="matrix" values="0 0 0 0 0 0 0 0 0 0 0 0 0 0 0 0 0 0 127 0" result="hardAlpha"/>
<feOffset dy="4"/>
<feGaussianBlur stdDeviation="10"/>
<feColorMatrix type="matrix" values="0 0 0 0 0 0 0 0 0 0 0 0 0 0 0 0 0 0 0.1 0"/>
<feBlend mode="normal" in2="BackgroundImageFix" result="effect1_dropShadow_2317_10769"/>
<feBlend mode="normal" in="SourceGraphic" in2="effect1_dropShadow_2317_10769" result="shape"/>
</filter>
<filter id="filter5_d_2317_10769" x="12" y="232" width="56" height="80" filterUnits="userSpaceOnUse" color-interpolation-filters="sRGB">
<feFlood flood-opacity="0" result="BackgroundImageFix"/>
<feColorMatrix in="SourceAlpha" type="matrix" values="0 0 0 0 0 0 0 0 0 0 0 0 0 0 0 0 0 0 127 0" result="hardAlpha"/>
<feOffset dy="4"/>
<feGaussianBlur stdDeviation="10"/>
<feColorMatrix type="matrix" values="0 0 0 0 0 0 0 0 0 0 0 0 0 0 0 0 0 0 0.1 0"/>
<feBlend mode="normal" in2="BackgroundImageFix" result="effect1_dropShadow_2317_10769"/>
<feBlend mode="normal" in="SourceGraphic" in2="effect1_dropShadow_2317_10769" result="shape"/>
</filter>
<filter id="filter6_d_2317_10769" x="38" y="232" width="322" height="80" filterUnits="userSpaceOnUse" color-interpolation-filters="sRGB">
<feFlood flood-opacity="0" result="BackgroundImageFix"/>
<feColorMatrix in="SourceAlpha" type="matrix" values="0 0 0 0 0 0 0 0 0 0 0 0 0 0 0 0 0 0 127 0" result="hardAlpha"/>
<feOffset dy="4"/>
<feGaussianBlur stdDeviation="10"/>
<feColorMatrix type="matrix" values="0 0 0 0 0 0 0 0 0 0 0 0 0 0 0 0 0 0 0.1 0"/>
<feBlend mode="normal" in2="BackgroundImageFix" result="effect1_dropShadow_2317_10769"/>
<feBlend mode="normal" in="SourceGraphic" in2="effect1_dropShadow_2317_10769" result="shape"/>
</filter>
<filter id="filter7_d_2317_10769" x="330" y="232" width="56" height="80" filterUnits="userSpaceOnUse" color-interpolation-filters="sRGB">
<feFlood flood-opacity="0" result="BackgroundImageFix"/>
<feColorMatrix in="SourceAlpha" type="matrix" values="0 0 0 0 0 0 0 0 0 0 0 0 0 0 0 0 0 0 127 0" result="hardAlpha"/>
<feOffset dy="4"/>
<feGaussianBlur stdDeviation="10"/>
<feColorMatrix type="matrix" values="0 0 0 0 0 0 0 0 0 0 0 0 0 0 0 0 0 0 0.1 0"/>
<feBlend mode="normal" in2="BackgroundImageFix" result="effect1_dropShadow_2317_10769"/>
<feBlend mode="normal" in="SourceGraphic" in2="effect1_dropShadow_2317_10769" result="shape"/>
</filter>
</defs>
</svg>
