<svg width="92" height="92" viewBox="0 0 92 92" fill="none" xmlns="http://www.w3.org/2000/svg">
<rect x="0.689453" y="0.5" width="90.56" height="90.5618" rx="19.5" fill="white" stroke="#C4CFE3"/>
<path d="M48.8477 46.1232L53.8187 51.5398L60.5031 55.612L61.6686 46.1565L60.5031 36.9121L53.6905 40.4899L48.8477 46.1232Z" fill="#00832D"/>
<path d="M20 54.734V62.7896C20 64.6312 21.5647 66.1229 23.4966 66.1229H31.9468L33.6951 60.034L31.9468 54.734L26.1482 53.0674L20 54.734Z" fill="#0066DA"/>
<path d="M31.9468 26.123L20 37.5119L26.1482 39.1785L31.9468 37.5119L33.666 32.2841L31.9468 26.123Z" fill="#E94235"/>
<path d="M31.9468 37.5127H20V54.7348H31.9468V37.5127Z" fill="#2684FC"/>
<path d="M68.1373 30.9456L60.503 36.9122V55.6121L68.1723 61.6065C69.3204 62.4621 70.9987 61.6815 70.9987 60.2899V32.2344C70.9987 30.8261 69.2825 30.0539 68.1373 30.9456ZM48.8476 46.1233V54.7343H31.9473V66.1232H57.0064C58.9383 66.1232 60.503 64.6315 60.503 62.7899V55.6121L48.8476 46.1233Z" fill="#00AC47"/>
<path d="M57.0064 26.123H31.9473V37.5119H48.8476V46.123L60.503 36.9174V29.4564C60.503 27.6147 58.9383 26.123 57.0064 26.123Z" fill="#FFBA00"/>
</svg>
