<svg width="45" height="45" viewBox="0 0 45 45" fill="none" xmlns="http://www.w3.org/2000/svg">
<rect width="45" height="45" rx="22.5" fill="url(#paint0_linear_1132_7678)"/>
<path d="M17.5586 30.2344C20.8496 30.2344 22.9395 28.5645 22.9395 25.9082C22.9395 23.8574 21.7285 22.6758 18.7695 22.0508L17.2363 21.7285C15.4102 21.3379 14.6777 20.6543 14.6777 19.6289C14.6777 18.3398 15.8984 17.5391 17.5488 17.5391C18.9551 17.5391 20.0293 18.0957 20.5078 19.3945C20.7324 19.9023 21.0547 20.1465 21.582 20.1465C22.1484 20.1465 22.5488 19.7754 22.5488 19.209C22.5488 19.0039 22.5195 18.8379 22.4707 18.7012C21.9238 16.8164 20.0098 15.6738 17.5781 15.6738C14.5801 15.6738 12.4609 17.334 12.4609 19.7461C12.4609 21.7773 13.7402 23.0859 16.5527 23.6816L18.0957 24.0039C19.9805 24.4141 20.7227 25.0977 20.7227 26.1914C20.7227 27.4512 19.4434 28.3691 17.6562 28.3691C16.0254 28.3691 14.7461 27.7539 14.3066 26.4355C14.0918 25.9082 13.7695 25.6836 13.2715 25.6836C12.6758 25.6836 12.2852 26.0938 12.2852 26.7285C12.2852 26.9629 12.334 27.1973 12.4023 27.4121C12.9492 29.0527 14.8242 30.2344 17.5586 30.2344Z" fill="white"/>
<path d="M27.8322 30.2344C30.5763 30.2344 32.217 28.6133 32.217 25.8203V16.8848C32.217 16.1816 31.797 15.752 31.1232 15.752C30.4396 15.752 30.0295 16.1816 30.0295 16.8848V25.8105C30.0295 27.4121 29.2482 28.2812 27.8127 28.2812C26.7482 28.2812 25.9963 27.6758 25.6935 26.582C25.5177 25.9375 25.1857 25.6543 24.6291 25.6543C24.0041 25.6543 23.6037 26.0645 23.6037 26.7285C23.6037 27.1191 23.6818 27.4023 23.8088 27.7539C24.3849 29.2871 25.9084 30.2344 27.8322 30.2344Z" fill="white"/>
<defs>
<linearGradient id="paint0_linear_1132_7678" x1="22.5" y1="0" x2="22.5" y2="45" gradientUnits="userSpaceOnUse">
<stop stop-color="#F19FB4"/>
<stop offset="1" stop-color="#EE7B95"/>
</linearGradient>
</defs>
</svg>
