<svg width="32" height="32" viewBox="0 0 32 32" fill="none" xmlns="http://www.w3.org/2000/svg">
<path d="M15.4167 30H16.5833C22.93 30 26.0917 30 28.0517 28.04C30 26.08 30 22.9067 30 16.5833V15.3933C30 9.09333 30 5.92 28.0517 3.96C26.0917 2 22.9183 2 16.5833 2H15.4167C9.07 2 5.90833 2 3.94833 3.96C2 5.92 2 9.09333 2 15.4167V16.6067C2 22.9067 2 26.08 3.96 28.04C5.92 30 9.09333 30 15.4167 30Z" fill="#1275B1"/>
<path d="M12.6186 10.6921C12.6186 11.6267 11.8085 12.3843 10.8093 12.3843C9.81004 12.3843 9 11.6267 9 10.6921C9 9.7576 9.81004 9 10.8093 9C11.8085 9 12.6186 9.7576 12.6186 10.6921Z" fill="white"/>
<path d="M9.24742 13.6281H12.3402V23H9.24742V13.6281Z" fill="white"/>
<path d="M17.3196 13.6281H14.2268V23H17.3196C17.3196 23 17.3196 20.0496 17.3196 18.2049C17.3196 17.0976 17.6977 15.9855 19.2062 15.9855C20.911 15.9855 20.9008 17.4345 20.8928 18.5571C20.8824 20.0244 20.9072 21.5219 20.9072 23H24V18.0537C23.9738 14.8954 23.1508 13.4401 20.4433 13.4401C18.8354 13.4401 17.8387 14.1701 17.3196 14.8305V13.6281Z" fill="white"/>
</svg>
