<svg width="390" height="98" viewBox="0 0 390 98" fill="none" xmlns="http://www.w3.org/2000/svg">
<path d="M0 8C0 3.58172 3.58172 0 8 0H382C386.418 0 390 3.58172 390 8V90C390 94.4183 386.418 98 382 98H8C3.58172 98 0 94.4183 0 90V8Z" fill="white"/>
<rect x="16.75" y="38.75" width="20.5" height="20.5" rx="10.25" stroke="#3C3C43" stroke-opacity="0.3" stroke-width="1.5"/>
<mask id="path-4-inside-1_2318_10943" fill="white">
<path d="M68 0H390V98H68V0Z"/>
</mask>
<path d="M68 0.5H390V-0.5H68V0.5Z" fill="#EBEBF5" fill-opacity="0.6" mask="url(#path-4-inside-1_2318_10943)"/>
<path d="M74.664 26.255C71.23 26.255 68.544 23.467 68.544 19.88C68.544 16.31 71.23 13.539 74.664 13.539C77.877 13.539 80.393 15.681 80.818 18.809H78.081C77.792 17.058 76.432 15.851 74.698 15.851C72.607 15.851 71.196 17.5 71.196 19.88C71.196 22.277 72.607 23.943 74.698 23.943C76.432 23.943 77.775 22.719 78.081 20.968H80.818C80.393 24.13 77.877 26.255 74.664 26.255ZM86.0223 26.17C83.3873 26.17 81.4153 24.096 81.4153 21.461C81.4153 18.809 83.3873 16.752 86.0223 16.752C88.6573 16.752 90.6293 18.809 90.6293 21.461C90.6293 24.096 88.6573 26.17 86.0223 26.17ZM86.0223 24.079C87.1953 24.079 88.1983 23.144 88.1983 21.461C88.1983 19.778 87.1953 18.86 86.0223 18.86C84.8493 18.86 83.8463 19.778 83.8463 21.461C83.8463 23.144 84.8493 24.079 86.0223 24.079ZM94.0922 26H91.7292V16.922H93.9052V18.214C94.5682 17.296 95.4182 16.752 96.6252 16.752C97.8662 16.752 98.8182 17.33 99.2772 18.367C99.9912 17.364 100.909 16.752 102.269 16.752C104.105 16.752 105.346 17.959 105.346 20.135V26H103V20.883C103 19.608 102.456 18.843 101.419 18.843C100.484 18.843 99.7192 19.574 99.7192 20.934V26H97.3732V20.883C97.3732 19.608 96.8292 18.843 95.7922 18.843C94.8402 18.843 94.0922 19.574 94.0922 20.934V26ZM109.323 26H106.96V16.922H109.136V18.214C109.799 17.296 110.649 16.752 111.856 16.752C113.097 16.752 114.049 17.33 114.508 18.367C115.222 17.364 116.14 16.752 117.5 16.752C119.336 16.752 120.577 17.959 120.577 20.135V26H118.231V20.883C118.231 19.608 117.687 18.843 116.65 18.843C115.715 18.843 114.95 19.574 114.95 20.934V26H112.604V20.883C112.604 19.608 112.06 18.843 111.023 18.843C110.071 18.843 109.323 19.574 109.323 20.934V26ZM126.135 26.153C123.415 26.153 121.596 24.266 121.596 21.427C121.596 18.724 123.483 16.752 126.101 16.752C128.974 16.752 130.878 19.081 130.453 22.039H124.01C124.163 23.518 124.877 24.334 126.084 24.334C127.121 24.334 127.818 23.824 128.09 22.923H130.436C129.926 24.98 128.345 26.153 126.135 26.153ZM126.05 18.486C124.945 18.486 124.248 19.2 124.044 20.543H127.954C127.886 19.285 127.172 18.486 126.05 18.486ZM133.99 21.597V26H131.627V16.922H133.803V18.673C134.466 17.517 135.877 16.82 137.339 16.82V19.268C135.333 19.115 133.99 19.591 133.99 21.597ZM141.917 26.17C139.299 26.17 137.497 24.232 137.497 21.461C137.497 18.741 139.367 16.752 141.917 16.752C144.28 16.752 146.031 18.35 146.32 20.798H143.838C143.719 19.591 142.988 18.843 141.917 18.843C140.693 18.843 139.911 19.846 139.911 21.461C139.911 23.093 140.676 24.079 141.917 24.079C143.005 24.079 143.702 23.365 143.838 22.124H146.32C146.048 24.623 144.348 26.17 141.917 26.17ZM150.166 14.814C150.166 15.613 149.52 16.208 148.585 16.208C147.667 16.208 147.021 15.613 147.021 14.814C147.021 13.981 147.667 13.386 148.585 13.386C149.52 13.386 150.166 13.981 150.166 14.814ZM149.792 26H147.429V16.922H149.792V26ZM154.7 26H152.354V18.945H150.518V16.922H152.354V16.429C152.354 14.627 153.323 13.607 155.21 13.607C155.788 13.607 156.281 13.709 156.672 13.879V15.749C156.417 15.647 156.077 15.596 155.771 15.596C155.125 15.596 154.7 15.851 154.7 16.48V16.922H157.063V18.945H154.7V26ZM166.179 16.922L161.759 29.281H159.192L160.484 25.898L156.914 16.922H159.464L161.742 23.144L163.816 16.922H166.179ZM172.741 26H170.157V13.794H172.741V18.605H178.028V13.794H180.612V26H178.028V20.832H172.741V26ZM188.24 26.255C184.721 26.255 182.001 23.535 182.001 19.88C182.001 16.225 184.721 13.539 188.24 13.539C191.776 13.539 194.513 16.225 194.513 19.88C194.513 22.277 193.34 24.266 191.538 25.354L193.578 29.094H190.96L189.328 26.17C188.971 26.221 188.614 26.255 188.24 26.255ZM188.24 23.943C190.484 23.943 191.844 22.124 191.844 19.88C191.844 17.636 190.484 15.851 188.24 15.851C186.013 15.851 184.653 17.636 184.653 19.88C184.653 22.124 186.013 23.943 188.24 23.943Z" fill="black"/>
<path d="M315.851 14.095C318.056 14.095 319.676 15.625 319.676 17.62C319.676 18.94 319.136 19.765 318.206 20.89L314.861 25H313.676L317.021 20.875C316.556 21.04 316.091 21.13 315.641 21.13C313.586 21.13 311.996 19.75 311.996 17.635C311.996 15.625 313.631 14.095 315.851 14.095ZM315.851 14.965C314.231 14.965 313.061 16.105 313.061 17.62C313.061 19.225 314.231 20.32 315.851 20.32C317.426 20.32 318.626 19.375 318.626 17.635C318.626 16.105 317.426 14.965 315.851 14.965ZM323.142 18.025C323.142 18.58 322.752 18.97 322.197 18.97C321.657 18.97 321.252 18.58 321.252 18.025C321.252 17.47 321.657 17.065 322.197 17.065C322.752 17.065 323.142 17.47 323.142 18.025ZM323.142 24.13C323.142 24.67 322.752 25.075 322.197 25.075C321.657 25.075 321.252 24.67 321.252 24.13C321.252 23.56 321.657 23.17 322.197 23.17C322.752 23.17 323.142 23.56 323.142 24.13ZM332.38 22.405H330.895V25H329.86V22.405H324.43V21.715L330.175 14.23H330.895V21.505H332.38V22.405ZM325.66 21.505H329.86V15.955L325.66 21.505ZM336.066 25H335.046V15.13H332.841V14.23H336.066V25ZM348.894 25L347.769 22.015H342.744L341.604 25H340.494L344.679 14.23H345.909L350.079 25H348.894ZM345.264 15.43L343.089 21.1H347.409L345.264 15.43ZM356.414 25L352.514 15.865V25H351.464V14.23H352.919L356.909 23.62L360.929 14.23H362.369V25H361.334V15.865L357.404 25H356.414Z" fill="#3C3C43" fill-opacity="0.6"/>
<path d="M374.469 24.5C374.714 24.5 374.922 24.4156 375.09 24.2469L379.685 19.698C379.9 19.4909 380 19.2685 380 19C380 18.7315 379.9 18.5014 379.693 18.302L375.09 13.7531C374.922 13.5844 374.714 13.5 374.469 13.5C373.978 13.5 373.579 13.8912 373.579 14.3821C373.579 14.6276 373.679 14.8501 373.855 15.0342L377.89 19.0077L373.855 22.9735C373.679 23.1499 373.579 23.3724 373.579 23.6179C373.579 24.1088 373.978 24.5 374.469 24.5Z" fill="#3C3C43" fill-opacity="0.3"/>
<path d="M73.865 46.225C70.865 46.225 68.6 43.78 68.6 40.6C68.6 37.435 70.865 35.005 73.865 35.005C76.43 35.005 78.545 36.73 78.965 39.295H77.78C77.435 37.375 75.845 36.01 73.865 36.01C71.48 36.01 69.755 37.96 69.755 40.6C69.755 43.27 71.48 45.22 73.865 45.22C75.86 45.22 77.45 43.84 77.78 41.92H78.965C78.545 44.485 76.43 46.225 73.865 46.225ZM83.6373 46.15C81.4623 46.15 79.8873 44.425 79.8873 42.04C79.8873 39.67 81.4623 37.96 83.6373 37.96C85.8273 37.96 87.4023 39.67 87.4023 42.04C87.4023 44.425 85.8273 46.15 83.6373 46.15ZM83.6373 45.235C85.1823 45.235 86.3373 44.005 86.3373 42.04C86.3373 40.105 85.1823 38.875 83.6373 38.875C82.1073 38.875 80.9523 40.105 80.9523 42.04C80.9523 44.005 82.1073 45.235 83.6373 45.235ZM89.9102 41.395V46H88.8602V38.095H89.8352V39.58C90.3452 38.605 91.3052 37.945 92.4452 37.945C94.0952 37.945 95.1602 38.995 95.1602 40.87V46H94.1102V41.23C94.1102 39.715 93.4202 38.86 92.1302 38.86C90.9002 38.86 89.9102 39.925 89.9102 41.395ZM98.8563 46H97.8063V38.98H95.9463V38.095H97.8063V37.375C97.8063 35.92 98.6013 35.11 99.9813 35.11C100.341 35.11 100.656 35.17 100.926 35.275V36.145C100.671 36.04 100.431 36.025 100.161 36.025C99.3213 36.025 98.8563 36.445 98.8563 37.375V38.095H101.181V38.98H98.8563V46ZM103.761 36.265C103.761 36.73 103.416 37.06 102.921 37.06C102.411 37.06 102.066 36.73 102.066 36.265C102.066 35.815 102.411 35.485 102.921 35.485C103.416 35.485 103.761 35.815 103.761 36.265ZM103.446 46H102.396V38.095H103.446V46ZM106.54 41.77V46H105.49V38.095H106.465V39.895C107.005 38.725 108.175 37.975 109.48 37.975V39.07C107.815 39.01 106.54 40.045 106.54 41.77ZM111.573 46H110.523V38.095H111.498V39.58C112.023 38.56 112.953 37.945 114.078 37.945C115.308 37.945 116.223 38.62 116.553 39.775C117.048 38.665 118.038 37.945 119.283 37.945C120.918 37.945 121.938 39.025 121.938 40.87V46H120.903V41.215C120.903 39.715 120.213 38.86 118.938 38.86C117.738 38.86 116.763 39.91 116.763 41.365V46H115.713V41.215C115.713 39.715 115.023 38.86 113.748 38.86C112.533 38.86 111.573 39.91 111.573 41.365V46ZM125.271 36.265C125.271 36.73 124.926 37.06 124.416 37.06C123.921 37.06 123.576 36.73 123.576 36.265C123.576 35.815 123.921 35.485 124.416 35.485C124.926 35.485 125.271 35.815 125.271 36.265ZM124.956 46H123.906V38.095H124.956V46ZM128.041 41.395V46H126.991V38.095H127.966V39.58C128.476 38.605 129.436 37.945 130.576 37.945C132.226 37.945 133.291 38.995 133.291 40.87V46H132.241V41.23C132.241 39.715 131.551 38.86 130.261 38.86C129.031 38.86 128.041 39.925 128.041 41.395ZM138.247 49.06C136.237 49.06 134.977 48.01 134.887 46.24H135.892C135.982 47.53 136.822 48.22 138.232 48.22C139.792 48.22 140.617 47.395 140.617 45.835V44.185C140.137 45.295 139.177 45.94 138.007 45.94C136.012 45.94 134.677 44.335 134.677 41.935C134.677 39.535 135.997 37.945 137.992 37.945C139.177 37.945 140.167 38.62 140.677 39.775V38.095H141.652V45.82C141.652 47.86 140.407 49.06 138.247 49.06ZM135.727 41.935C135.727 43.87 136.642 45.04 138.157 45.04C139.642 45.04 140.632 43.84 140.632 42.01C140.632 40.075 139.657 38.845 138.157 38.845C136.657 38.845 135.727 40.015 135.727 41.935ZM150.204 42.04H147.789V46H146.664V35.23H150.204C152.424 35.23 153.939 36.445 153.939 38.62C153.939 40.795 152.424 42.04 150.204 42.04ZM150.189 36.19H147.789V41.08H150.189C151.794 41.08 152.814 40.195 152.814 38.62C152.814 37.06 151.794 36.19 150.189 36.19ZM160.071 46V44.56C159.606 45.55 158.646 46.15 157.416 46.15C155.781 46.15 154.716 45.235 154.716 43.81C154.716 42.265 155.946 41.455 158.346 41.455C158.826 41.455 159.186 41.485 159.966 41.545V40.885C159.966 39.565 159.261 38.785 158.061 38.785C156.771 38.785 155.961 39.58 155.946 40.87H154.986C155.031 39.115 156.246 37.945 158.046 37.945C159.891 37.945 160.971 39.025 160.971 40.855V46H160.071ZM155.721 43.78C155.721 44.74 156.456 45.385 157.566 45.385C159.036 45.385 159.966 44.425 159.966 42.94V42.235C159.291 42.175 158.826 42.16 158.391 42.16C156.591 42.16 155.721 42.685 155.721 43.78ZM168.795 38.095L164.745 48.895H163.62L164.775 45.895L161.64 38.095H162.765L165.315 44.635L167.73 38.095H168.795ZM170.825 46H169.775V38.095H170.75V39.58C171.275 38.56 172.205 37.945 173.33 37.945C174.56 37.945 175.475 38.62 175.805 39.775C176.3 38.665 177.29 37.945 178.535 37.945C180.17 37.945 181.19 39.025 181.19 40.87V46H180.155V41.215C180.155 39.715 179.465 38.86 178.19 38.86C176.99 38.86 176.015 39.91 176.015 41.365V46H174.965V41.215C174.965 39.715 174.275 38.86 173 38.86C171.785 38.86 170.825 39.91 170.825 41.365V46ZM186.263 46.15C184.043 46.15 182.573 44.485 182.573 41.98C182.573 39.67 184.103 37.945 186.203 37.945C188.453 37.945 189.923 39.76 189.743 42.295H183.623C183.713 44.17 184.703 45.325 186.248 45.325C187.568 45.325 188.483 44.59 188.738 43.33H189.773C189.413 45.085 188.078 46.15 186.263 46.15ZM186.188 38.755C184.763 38.755 183.758 39.85 183.623 41.575H188.648C188.558 39.805 187.643 38.755 186.188 38.755ZM192.288 41.395V46H191.238V38.095H192.213V39.58C192.723 38.605 193.683 37.945 194.823 37.945C196.473 37.945 197.538 38.995 197.538 40.87V46H196.488V41.23C196.488 39.715 195.798 38.86 194.508 38.86C193.278 38.86 192.288 39.925 192.288 41.395ZM203.559 44.995V45.925C203.154 46.09 202.809 46.15 202.419 46.15C201.114 46.15 200.109 45.475 200.109 43.765V38.98H198.249V38.095H200.109V35.755H201.159V38.095H203.634V38.98H201.159V43.54C201.159 44.77 201.759 45.19 202.629 45.19C202.959 45.19 203.229 45.13 203.559 44.995ZM206.795 45.13C206.795 45.67 206.405 46.075 205.85 46.075C205.31 46.075 204.905 45.67 204.905 45.13C204.905 44.56 205.31 44.17 205.85 44.17C206.405 44.17 206.795 44.56 206.795 45.13ZM210.422 45.13C210.422 45.67 210.032 46.075 209.477 46.075C208.937 46.075 208.532 45.67 208.532 45.13C208.532 44.56 208.937 44.17 209.477 44.17C210.032 44.17 210.422 44.56 210.422 45.13ZM214.049 45.13C214.049 45.67 213.659 46.075 213.104 46.075C212.564 46.075 212.159 45.67 212.159 45.13C212.159 44.56 212.564 44.17 213.104 44.17C213.659 44.17 214.049 44.56 214.049 45.13Z" fill="black"/>
<path d="M73.19 61.965V66H72.065V61.965L68.15 55.23H69.38L72.665 60.915L75.965 55.23H77.135L73.19 61.965ZM79.9605 66.15C77.7855 66.15 76.2105 64.425 76.2105 62.04C76.2105 59.67 77.7855 57.96 79.9605 57.96C82.1505 57.96 83.7255 59.67 83.7255 62.04C83.7255 64.425 82.1505 66.15 79.9605 66.15ZM79.9605 65.235C81.5055 65.235 82.6605 64.005 82.6605 62.04C82.6605 60.105 81.5055 58.875 79.9605 58.875C78.4305 58.875 77.2755 60.105 77.2755 62.04C77.2755 64.005 78.4305 65.235 79.9605 65.235ZM90.2384 62.805V58.095H91.2734V66H90.2984V64.575C89.8934 65.49 88.9334 66.15 87.7784 66.15C86.1734 66.15 85.1084 65.235 85.1084 63.24V58.095H86.1584V63.015C86.1584 64.62 86.9534 65.235 88.0634 65.235C89.3234 65.235 90.2384 64.215 90.2384 62.805ZM97.5825 56.265C97.5825 56.73 97.2225 57.06 96.7275 57.06C96.2325 57.06 95.8725 56.73 95.8725 56.265C95.8725 55.815 96.2325 55.485 96.7275 55.485C97.2225 55.485 97.5825 55.815 97.5825 56.265ZM97.2375 58.095V66.75C97.2375 68.265 96.3825 69.045 95.0475 69.045C94.7625 69.045 94.4025 69.03 94.0725 68.895V67.935C94.3575 68.04 94.6125 68.085 94.9425 68.085C95.7075 68.085 96.2025 67.68 96.2025 66.735V58.095H97.2375ZM104.328 62.805V58.095H105.363V66H104.388V64.575C103.983 65.49 103.023 66.15 101.868 66.15C100.263 66.15 99.198 65.235 99.198 63.24V58.095H100.248V63.015C100.248 64.62 101.043 65.235 102.153 65.235C103.413 65.235 104.328 64.215 104.328 62.805ZM113.307 63.795C113.307 65.25 112.137 66.15 110.187 66.15C108.222 66.15 107.022 65.16 106.872 63.525H107.877C107.952 64.65 108.837 65.355 110.187 65.355C111.477 65.355 112.257 64.86 112.257 63.96C112.257 63.18 111.807 62.82 110.607 62.58L109.467 62.355C107.967 62.07 107.172 61.335 107.172 60.195C107.172 58.875 108.342 57.945 110.067 57.945C111.882 57.945 113.082 58.92 113.202 60.495H112.212C112.107 59.4 111.312 58.755 110.067 58.755C108.957 58.755 108.192 59.28 108.192 60.105C108.192 60.885 108.672 61.26 109.842 61.485L111.027 61.71C112.602 62.01 113.307 62.67 113.307 63.795ZM118.898 64.995V65.925C118.493 66.09 118.148 66.15 117.758 66.15C116.453 66.15 115.448 65.475 115.448 63.765V58.98H113.588V58.095H115.448V55.755H116.498V58.095H118.973V58.98H116.498V63.54C116.498 64.77 117.098 65.19 117.968 65.19C118.298 65.19 118.568 65.13 118.898 64.995ZM130.46 62.04C130.46 64.47 129.095 66.15 126.98 66.15C125.765 66.15 124.745 65.49 124.19 64.335V66H123.215V55.23H124.265V59.76C124.775 58.605 125.78 57.945 126.98 57.945C129.095 57.945 130.46 59.61 130.46 62.04ZM129.395 62.04C129.395 60.03 128.36 58.86 126.815 58.86C125.33 58.86 124.25 60.015 124.25 62.01C124.25 63.99 125.3 65.235 126.815 65.235C128.36 65.235 129.395 64.05 129.395 62.04ZM135.076 66.15C132.901 66.15 131.326 64.425 131.326 62.04C131.326 59.67 132.901 57.96 135.076 57.96C137.266 57.96 138.841 59.67 138.841 62.04C138.841 64.425 137.266 66.15 135.076 66.15ZM135.076 65.235C136.621 65.235 137.776 64.005 137.776 62.04C137.776 60.105 136.621 58.875 135.076 58.875C133.546 58.875 132.391 60.105 132.391 62.04C132.391 64.005 133.546 65.235 135.076 65.235ZM145.354 62.805V58.095H146.389V66H145.414V64.575C145.009 65.49 144.049 66.15 142.894 66.15C141.289 66.15 140.224 65.235 140.224 63.24V58.095H141.274V63.015C141.274 64.62 142.069 65.235 143.179 65.235C144.439 65.235 145.354 64.215 145.354 62.805ZM151.408 69.06C149.398 69.06 148.138 68.01 148.048 66.24H149.053C149.143 67.53 149.983 68.22 151.393 68.22C152.953 68.22 153.778 67.395 153.778 65.835V64.185C153.298 65.295 152.338 65.94 151.168 65.94C149.173 65.94 147.838 64.335 147.838 61.935C147.838 59.535 149.158 57.945 151.153 57.945C152.338 57.945 153.328 58.62 153.838 59.775V58.095H154.813V65.82C154.813 67.86 153.568 69.06 151.408 69.06ZM148.888 61.935C148.888 63.87 149.803 65.04 151.318 65.04C152.803 65.04 153.793 63.84 153.793 62.01C153.793 60.075 152.818 58.845 151.318 58.845C149.818 58.845 148.888 60.015 148.888 61.935ZM157.905 61.395V66H156.855V55.23H157.905V59.55C158.4 58.605 159.3 57.945 160.44 57.945C162.09 57.945 163.155 58.995 163.155 60.87V66H162.105V61.23C162.105 59.715 161.415 58.86 160.125 58.86C158.895 58.86 157.905 59.925 157.905 61.395ZM169.176 64.995V65.925C168.771 66.09 168.426 66.15 168.036 66.15C166.731 66.15 165.726 65.475 165.726 63.765V58.98H163.866V58.095H165.726V55.755H166.776V58.095H169.251V58.98H166.776V63.54C166.776 64.77 167.376 65.19 168.246 65.19C168.576 65.19 168.846 65.13 169.176 64.995ZM178.353 66V64.56C177.888 65.55 176.928 66.15 175.698 66.15C174.063 66.15 172.998 65.235 172.998 63.81C172.998 62.265 174.228 61.455 176.628 61.455C177.108 61.455 177.468 61.485 178.248 61.545V60.885C178.248 59.565 177.543 58.785 176.343 58.785C175.053 58.785 174.243 59.58 174.228 60.87H173.268C173.313 59.115 174.528 57.945 176.328 57.945C178.173 57.945 179.253 59.025 179.253 60.855V66H178.353ZM174.003 63.78C174.003 64.74 174.738 65.385 175.848 65.385C177.318 65.385 178.248 64.425 178.248 62.94V62.235C177.573 62.175 177.108 62.16 176.673 62.16C174.873 62.16 174.003 62.685 174.003 63.78ZM187.222 66.15C185.002 66.15 183.532 64.485 183.532 61.98C183.532 59.67 185.062 57.945 187.162 57.945C189.412 57.945 190.882 59.76 190.702 62.295H184.582C184.672 64.17 185.662 65.325 187.207 65.325C188.527 65.325 189.442 64.59 189.697 63.33H190.732C190.372 65.085 189.037 66.15 187.222 66.15ZM187.147 58.755C185.722 58.755 184.717 59.85 184.582 61.575H189.607C189.517 59.805 188.602 58.755 187.147 58.755ZM196.333 62.325H191.593V61.395H196.333V62.325ZM200.713 66.165C198.628 66.165 197.173 64.47 197.173 62.04C197.173 59.64 198.643 57.945 200.713 57.945C202.558 57.945 203.878 59.175 204.193 61.155H203.128C202.888 59.715 201.988 58.86 200.713 58.86C199.243 58.86 198.238 60.15 198.238 62.04C198.238 63.96 199.243 65.25 200.713 65.25C202.003 65.25 202.888 64.41 203.128 62.94H204.193C203.908 64.95 202.573 66.165 200.713 66.165ZM208.71 66.15C206.535 66.15 204.96 64.425 204.96 62.04C204.96 59.67 206.535 57.96 208.71 57.96C210.9 57.96 212.475 59.67 212.475 62.04C212.475 64.425 210.9 66.15 208.71 66.15ZM208.71 65.235C210.255 65.235 211.41 64.005 211.41 62.04C211.41 60.105 210.255 58.875 208.71 58.875C207.18 58.875 206.025 60.105 206.025 62.04C206.025 64.005 207.18 65.235 208.71 65.235ZM218.988 62.805V58.095H220.023V66H219.048V64.575C218.643 65.49 217.683 66.15 216.528 66.15C214.923 66.15 213.858 65.235 213.858 63.24V58.095H214.908V63.015C214.908 64.62 215.703 65.235 216.813 65.235C218.073 65.235 218.988 64.215 218.988 62.805ZM223.107 61.77V66H222.057V58.095H223.032V59.895C223.572 58.725 224.742 57.975 226.047 57.975V59.07C224.382 59.01 223.107 60.045 223.107 61.77ZM233.001 63.795C233.001 65.25 231.831 66.15 229.881 66.15C227.916 66.15 226.716 65.16 226.566 63.525H227.571C227.646 64.65 228.531 65.355 229.881 65.355C231.171 65.355 231.951 64.86 231.951 63.96C231.951 63.18 231.501 62.82 230.301 62.58L229.161 62.355C227.661 62.07 226.866 61.335 226.866 60.195C226.866 58.875 228.036 57.945 229.761 57.945C231.576 57.945 232.776 58.92 232.896 60.495H231.906C231.801 59.4 231.006 58.755 229.761 58.755C228.651 58.755 227.886 59.28 227.886 60.105C227.886 60.885 228.366 61.26 229.536 61.485L230.721 61.71C232.296 62.01 233.001 62.67 233.001 63.795ZM237.69 66.15C235.47 66.15 234 64.485 234 61.98C234 59.67 235.53 57.945 237.63 57.945C239.88 57.945 241.35 59.76 241.17 62.295H235.05C235.14 64.17 236.13 65.325 237.675 65.325C238.995 65.325 239.91 64.59 240.165 63.33H241.2C240.84 65.085 239.505 66.15 237.69 66.15ZM237.615 58.755C236.19 58.755 235.185 59.85 235.05 61.575H240.075C239.985 59.805 239.07 58.755 237.615 58.755ZM247.3 66H246.25V58.98H244.39V58.095H246.25V57.375C246.25 55.92 247.045 55.11 248.425 55.11C248.785 55.11 249.1 55.17 249.37 55.275V56.145C249.115 56.04 248.875 56.025 248.605 56.025C247.765 56.025 247.3 56.445 247.3 57.375V58.095H249.625V58.98H247.3V66ZM251.644 61.77V66H250.594V58.095H251.569V59.895C252.109 58.725 253.279 57.975 254.584 57.975V59.07C252.919 59.01 251.644 60.045 251.644 61.77ZM258.778 66.15C256.603 66.15 255.028 64.425 255.028 62.04C255.028 59.67 256.603 57.96 258.778 57.96C260.968 57.96 262.543 59.67 262.543 62.04C262.543 64.425 260.968 66.15 258.778 66.15ZM258.778 65.235C260.323 65.235 261.478 64.005 261.478 62.04C261.478 60.105 260.323 58.875 258.778 58.875C257.248 58.875 256.093 60.105 256.093 62.04C256.093 64.005 257.248 65.235 258.778 65.235ZM265.051 66H264.001V58.095H264.976V59.58C265.501 58.56 266.431 57.945 267.556 57.945C268.786 57.945 269.701 58.62 270.031 59.775C270.526 58.665 271.516 57.945 272.761 57.945C274.396 57.945 275.416 59.025 275.416 60.87V66H274.381V61.215C274.381 59.715 273.691 58.86 272.416 58.86C271.216 58.86 270.241 59.91 270.241 61.365V66H269.191V61.215C269.191 59.715 268.501 58.86 267.226 58.86C266.011 58.86 265.051 59.91 265.051 61.365V66ZM290.028 67.17V68.055C288.993 68.685 287.688 69.045 286.248 69.045C282.573 69.045 279.738 66.105 279.738 62.385C279.738 58.65 282.633 55.71 286.398 55.71C290.103 55.71 292.833 58.32 292.833 61.65C292.833 64.005 291.558 65.535 289.818 65.535C288.738 65.535 288.108 65.04 287.928 64.2C287.388 65.07 286.563 65.535 285.558 65.535C284.043 65.535 282.993 64.32 282.993 62.625C282.993 60.675 284.238 59.22 285.963 59.22C287.043 59.22 287.823 59.775 288.168 60.735L288.423 59.43H289.383L288.753 62.745C288.693 63.015 288.663 63.27 288.663 63.495C288.663 64.29 289.083 64.71 289.848 64.71C291.078 64.71 291.858 63.57 291.858 61.74C291.858 58.875 289.623 56.535 286.398 56.535C283.128 56.535 280.713 59.07 280.713 62.385C280.713 65.67 283.083 68.22 286.248 68.22C287.793 68.22 289.113 67.815 290.028 67.17ZM283.998 62.565C283.998 63.84 284.673 64.71 285.723 64.71C286.938 64.71 287.853 63.615 287.853 62.145C287.853 60.825 287.223 60.03 286.083 60.03C284.838 60.03 283.998 61.125 283.998 62.565ZM300.56 66H294.41V55.23H295.535V64.995H300.56V66ZM304.833 66.15C302.658 66.15 301.083 64.425 301.083 62.04C301.083 59.67 302.658 57.96 304.833 57.96C307.023 57.96 308.598 59.67 308.598 62.04C308.598 64.425 307.023 66.15 304.833 66.15ZM304.833 65.235C306.378 65.235 307.533 64.005 307.533 62.04C307.533 60.105 306.378 58.875 304.833 58.875C303.303 58.875 302.148 60.105 302.148 62.04C302.148 64.005 303.303 65.235 304.833 65.235ZM312.895 69.06C310.885 69.06 309.625 68.01 309.535 66.24H310.54C310.63 67.53 311.47 68.22 312.88 68.22C314.44 68.22 315.265 67.395 315.265 65.835V64.185C314.785 65.295 313.825 65.94 312.655 65.94C310.66 65.94 309.325 64.335 309.325 61.935C309.325 59.535 310.645 57.945 312.64 57.945C313.825 57.945 314.815 58.62 315.325 59.775V58.095H316.3V65.82C316.3 67.86 315.055 69.06 312.895 69.06ZM310.375 61.935C310.375 63.87 311.29 65.04 312.805 65.04C314.29 65.04 315.28 63.84 315.28 62.01C315.28 60.075 314.305 58.845 312.805 58.845C311.305 58.845 310.375 60.015 310.375 61.935ZM323.202 66V64.56C322.737 65.55 321.777 66.15 320.547 66.15C318.912 66.15 317.847 65.235 317.847 63.81C317.847 62.265 319.077 61.455 321.477 61.455C321.957 61.455 322.317 61.485 323.097 61.545V60.885C323.097 59.565 322.392 58.785 321.192 58.785C319.902 58.785 319.092 59.58 319.077 60.87H318.117C318.162 59.115 319.377 57.945 321.177 57.945C323.022 57.945 324.102 59.025 324.102 60.855V66H323.202ZM318.852 63.78C318.852 64.74 319.587 65.385 320.697 65.385C322.167 65.385 323.097 64.425 323.097 62.94V62.235C322.422 62.175 321.957 62.16 321.522 62.16C319.722 62.16 318.852 62.685 318.852 63.78ZM327.121 61.395V66H326.071V58.095H327.046V59.58C327.556 58.605 328.516 57.945 329.656 57.945C331.306 57.945 332.371 58.995 332.371 60.87V66H331.321V61.23C331.321 59.715 330.631 58.86 329.341 58.86C328.111 58.86 327.121 59.925 327.121 61.395ZM337.406 66H336.296V56.235H332.681V55.23H341.021V56.235H337.406V66ZM344.194 66.15C341.974 66.15 340.504 64.485 340.504 61.98C340.504 59.67 342.034 57.945 344.134 57.945C346.384 57.945 347.854 59.76 347.674 62.295H341.554C341.644 64.17 342.634 65.325 344.179 65.325C345.499 65.325 346.414 64.59 346.669 63.33H347.704C347.344 65.085 346.009 66.15 344.194 66.15ZM344.119 58.755C342.694 58.755 341.689 59.85 341.554 61.575H346.579C346.489 59.805 345.574 58.755 344.119 58.755ZM350.219 61.77V66H349.169V58.095H350.144V59.895C350.684 58.725 351.854 57.975 353.159 57.975V59.07C351.494 59.01 350.219 60.045 350.219 61.77ZM355.252 61.77V66H354.202V58.095H355.177V59.895C355.717 58.725 356.887 57.975 358.192 57.975V59.07C356.527 59.01 355.252 60.045 355.252 61.77ZM365.472 58.095L361.422 68.895H360.297L361.452 65.895L358.317 58.095H359.442L361.992 64.635L364.407 58.095H365.472ZM75.23 78.095L71.18 88.895H70.055L71.21 85.895L68.075 78.095H69.2L71.75 84.635L74.165 78.095H75.23ZM79.1402 86.15C76.9652 86.15 75.3902 84.425 75.3902 82.04C75.3902 79.67 76.9652 77.96 79.1402 77.96C81.3302 77.96 82.9052 79.67 82.9052 82.04C82.9052 84.425 81.3302 86.15 79.1402 86.15ZM79.1402 85.235C80.6852 85.235 81.8402 84.005 81.8402 82.04C81.8402 80.105 80.6852 78.875 79.1402 78.875C77.6102 78.875 76.4552 80.105 76.4552 82.04C76.4552 84.005 77.6102 85.235 79.1402 85.235ZM89.4181 82.805V78.095H90.4531V86H89.4781V84.575C89.0731 85.49 88.1131 86.15 86.9581 86.15C85.3531 86.15 84.2881 85.235 84.2881 83.24V78.095H85.3381V83.015C85.3381 84.62 86.1331 85.235 87.2431 85.235C88.5031 85.235 89.4181 84.215 89.4181 82.805ZM93.5374 81.77V86H92.4874V78.095H93.4624V79.895C94.0024 78.725 95.1724 77.975 96.4774 77.975V79.07C94.8124 79.01 93.5374 80.045 93.5374 81.77ZM101.466 81.77V86H100.416V78.095H101.391V79.895C101.931 78.725 103.101 77.975 104.406 77.975V79.07C102.741 79.01 101.466 80.045 101.466 81.77ZM108.539 86.15C106.319 86.15 104.849 84.485 104.849 81.98C104.849 79.67 106.379 77.945 108.479 77.945C110.729 77.945 112.199 79.76 112.019 82.295H105.899C105.989 84.17 106.979 85.325 108.524 85.325C109.844 85.325 110.759 84.59 111.014 83.33H112.049C111.689 85.085 110.354 86.15 108.539 86.15ZM108.464 78.755C107.039 78.755 106.034 79.85 105.899 81.575H110.924C110.834 79.805 109.919 78.755 108.464 78.755ZM116.323 86.165C114.238 86.165 112.783 84.47 112.783 82.04C112.783 79.64 114.253 77.945 116.323 77.945C118.168 77.945 119.488 79.175 119.803 81.155H118.738C118.498 79.715 117.598 78.86 116.323 78.86C114.853 78.86 113.848 80.15 113.848 82.04C113.848 83.96 114.853 85.25 116.323 85.25C117.613 85.25 118.498 84.41 118.738 82.94H119.803C119.518 84.95 118.183 86.165 116.323 86.165ZM122.623 76.265C122.623 76.73 122.278 77.06 121.768 77.06C121.273 77.06 120.928 76.73 120.928 76.265C120.928 75.815 121.273 75.485 121.768 75.485C122.278 75.485 122.623 75.815 122.623 76.265ZM122.308 86H121.258V78.095H122.308V86ZM127.448 86.15C125.228 86.15 123.758 84.485 123.758 81.98C123.758 79.67 125.288 77.945 127.388 77.945C129.638 77.945 131.108 79.76 130.928 82.295H124.808C124.898 84.17 125.888 85.325 127.433 85.325C128.753 85.325 129.668 84.59 129.923 83.33H130.958C130.598 85.085 129.263 86.15 127.448 86.15ZM127.373 78.755C125.948 78.755 124.943 79.85 124.808 81.575H129.833C129.743 79.805 128.828 78.755 127.373 78.755ZM138.279 78.095L135.234 86H134.139L131.124 78.095H132.249L134.724 84.77L137.199 78.095H138.279ZM140.624 76.265C140.624 76.73 140.279 77.06 139.769 77.06C139.274 77.06 138.929 76.73 138.929 76.265C138.929 75.815 139.274 75.485 139.769 75.485C140.279 75.485 140.624 75.815 140.624 76.265ZM140.309 86H139.259V78.095H140.309V86ZM143.394 81.395V86H142.344V78.095H143.319V79.58C143.829 78.605 144.789 77.945 145.929 77.945C147.579 77.945 148.644 78.995 148.644 80.87V86H147.594V81.23C147.594 79.715 146.904 78.86 145.614 78.86C144.384 78.86 143.394 79.925 143.394 81.395ZM153.6 89.06C151.59 89.06 150.33 88.01 150.24 86.24H151.245C151.335 87.53 152.175 88.22 153.585 88.22C155.145 88.22 155.97 87.395 155.97 85.835V84.185C155.49 85.295 154.53 85.94 153.36 85.94C151.365 85.94 150.03 84.335 150.03 81.935C150.03 79.535 151.35 77.945 153.345 77.945C154.53 77.945 155.52 78.62 156.03 79.775V78.095H157.005V85.82C157.005 87.86 155.76 89.06 153.6 89.06ZM151.08 81.935C151.08 83.87 151.995 85.04 153.51 85.04C154.995 85.04 155.985 83.84 155.985 82.01C155.985 80.075 155.01 78.845 153.51 78.845C152.01 78.845 151.08 80.015 151.08 81.935ZM166.006 84.995V85.925C165.601 86.09 165.256 86.15 164.866 86.15C163.561 86.15 162.556 85.475 162.556 83.765V78.98H160.696V78.095H162.556V75.755H163.606V78.095H166.081V78.98H163.606V83.54C163.606 84.77 164.206 85.19 165.076 85.19C165.406 85.19 165.676 85.13 166.006 84.995ZM168.479 81.395V86H167.429V75.23H168.479V79.55C168.974 78.605 169.874 77.945 171.014 77.945C172.664 77.945 173.729 78.995 173.729 80.87V86H172.679V81.23C172.679 79.715 171.989 78.86 170.699 78.86C169.469 78.86 168.479 79.925 168.479 81.395ZM177.065 76.265C177.065 76.73 176.72 77.06 176.21 77.06C175.715 77.06 175.37 76.73 175.37 76.265C175.37 75.815 175.715 75.485 176.21 75.485C176.72 75.485 177.065 75.815 177.065 76.265ZM176.75 86H175.7V78.095H176.75V86ZM184.695 83.795C184.695 85.25 183.525 86.15 181.575 86.15C179.61 86.15 178.41 85.16 178.26 83.525H179.265C179.34 84.65 180.225 85.355 181.575 85.355C182.865 85.355 183.645 84.86 183.645 83.96C183.645 83.18 183.195 82.82 181.995 82.58L180.855 82.355C179.355 82.07 178.56 81.335 178.56 80.195C178.56 78.875 179.73 77.945 181.455 77.945C183.27 77.945 184.47 78.92 184.59 80.495H183.6C183.495 79.4 182.7 78.755 181.455 78.755C180.345 78.755 179.58 79.28 179.58 80.105C179.58 80.885 180.06 81.26 181.23 81.485L182.415 81.71C183.99 82.01 184.695 82.67 184.695 83.795ZM192.279 86.15C190.059 86.15 188.589 84.485 188.589 81.98C188.589 79.67 190.119 77.945 192.219 77.945C194.469 77.945 195.939 79.76 195.759 82.295H189.639C189.729 84.17 190.719 85.325 192.264 85.325C193.584 85.325 194.499 84.59 194.754 83.33H195.789C195.429 85.085 194.094 86.15 192.279 86.15ZM192.204 78.755C190.779 78.755 189.774 79.85 189.639 81.575H194.664C194.574 79.805 193.659 78.755 192.204 78.755ZM198.304 86H197.254V78.095H198.229V79.58C198.754 78.56 199.684 77.945 200.809 77.945C202.039 77.945 202.954 78.62 203.284 79.775C203.779 78.665 204.769 77.945 206.014 77.945C207.649 77.945 208.669 79.025 208.669 80.87V86H207.634V81.215C207.634 79.715 206.944 78.86 205.669 78.86C204.469 78.86 203.494 79.91 203.494 81.365V86H202.444V81.215C202.444 79.715 201.754 78.86 200.479 78.86C199.264 78.86 198.304 79.91 198.304 81.365V86ZM215.497 86V84.56C215.032 85.55 214.072 86.15 212.842 86.15C211.207 86.15 210.142 85.235 210.142 83.81C210.142 82.265 211.372 81.455 213.772 81.455C214.252 81.455 214.612 81.485 215.392 81.545V80.885C215.392 79.565 214.687 78.785 213.487 78.785C212.197 78.785 211.387 79.58 211.372 80.87H210.412C210.457 79.115 211.672 77.945 213.472 77.945C215.317 77.945 216.397 79.025 216.397 80.855V86H215.497ZM211.147 83.78C211.147 84.74 211.882 85.385 212.992 85.385C214.462 85.385 215.392 84.425 215.392 82.94V82.235C214.717 82.175 214.252 82.16 213.817 82.16C212.017 82.16 211.147 82.685 211.147 83.78ZM219.731 76.265C219.731 76.73 219.386 77.06 218.876 77.06C218.381 77.06 218.036 76.73 218.036 76.265C218.036 75.815 218.381 75.485 218.876 75.485C219.386 75.485 219.731 75.815 219.731 76.265ZM219.416 86H218.366V78.095H219.416V86ZM222.501 86H221.451V75.23H222.501V86ZM229.171 86H228.121V78.98H226.261V78.095H228.121V77.375C228.121 75.92 228.916 75.11 230.296 75.11C230.656 75.11 230.971 75.17 231.241 75.275V76.145C230.986 76.04 230.746 76.025 230.476 76.025C229.636 76.025 229.171 76.445 229.171 77.375V78.095H231.496V78.98H229.171V86ZM235.41 86.15C233.235 86.15 231.66 84.425 231.66 82.04C231.66 79.67 233.235 77.96 235.41 77.96C237.6 77.96 239.175 79.67 239.175 82.04C239.175 84.425 237.6 86.15 235.41 86.15ZM235.41 85.235C236.955 85.235 238.11 84.005 238.11 82.04C238.11 80.105 236.955 78.875 235.41 78.875C233.88 78.875 232.725 80.105 232.725 82.04C232.725 84.005 233.88 85.235 235.41 85.235ZM241.683 81.77V86H240.633V78.095H241.608V79.895C242.148 78.725 243.318 77.975 244.623 77.975V79.07C242.958 79.01 241.683 80.045 241.683 81.77ZM251.516 86.165C249.431 86.165 247.976 84.47 247.976 82.04C247.976 79.64 249.446 77.945 251.516 77.945C253.361 77.945 254.681 79.175 254.996 81.155H253.931C253.691 79.715 252.791 78.86 251.516 78.86C250.046 78.86 249.041 80.15 249.041 82.04C249.041 83.96 250.046 85.25 251.516 85.25C252.806 85.25 253.691 84.41 253.931 82.94H254.996C254.711 84.95 253.376 86.165 251.516 86.165ZM259.513 86.15C257.338 86.15 255.763 84.425 255.763 82.04C255.763 79.67 257.338 77.96 259.513 77.96C261.703 77.96 263.278 79.67 263.278 82.04C263.278 84.425 261.703 86.15 259.513 86.15ZM259.513 85.235C261.058 85.235 262.213 84.005 262.213 82.04C262.213 80.105 261.058 78.875 259.513 78.875C257.983 78.875 256.828 80.105 256.828 82.04C256.828 84.005 257.983 85.235 259.513 85.235ZM265.786 81.395V86H264.736V78.095H265.711V79.58C266.221 78.605 267.181 77.945 268.321 77.945C269.971 77.945 271.036 78.995 271.036 80.87V86H269.986V81.23C269.986 79.715 269.296 78.86 268.006 78.86C266.776 78.86 265.786 79.925 265.786 81.395ZM274.732 86H273.682V78.98H271.822V78.095H273.682V77.375C273.682 75.92 274.477 75.11 275.857 75.11C276.217 75.11 276.532 75.17 276.802 75.275V76.145C276.547 76.04 276.307 76.025 276.037 76.025C275.197 76.025 274.732 76.445 274.732 77.375V78.095H277.057V78.98H274.732V86ZM279.637 76.265C279.637 76.73 279.292 77.06 278.797 77.06C278.287 77.06 277.942 76.73 277.942 76.265C277.942 75.815 278.287 75.485 278.797 75.485C279.292 75.485 279.637 75.815 279.637 76.265ZM279.322 86H278.272V78.095H279.322V86ZM282.416 81.77V86H281.366V78.095H282.341V79.895C282.881 78.725 284.051 77.975 285.356 77.975V79.07C283.691 79.01 282.416 80.045 282.416 81.77ZM287.449 86H286.399V78.095H287.374V79.58C287.899 78.56 288.829 77.945 289.954 77.945C291.184 77.945 292.099 78.62 292.429 79.775C292.924 78.665 293.914 77.945 295.159 77.945C296.794 77.945 297.814 79.025 297.814 80.87V86H296.779V81.215C296.779 79.715 296.089 78.86 294.814 78.86C293.614 78.86 292.639 79.91 292.639 81.365V86H291.589V81.215C291.589 79.715 290.899 78.86 289.624 78.86C288.409 78.86 287.449 79.91 287.449 81.365V86ZM304.642 86V84.56C304.177 85.55 303.217 86.15 301.987 86.15C300.352 86.15 299.287 85.235 299.287 83.81C299.287 82.265 300.517 81.455 302.917 81.455C303.397 81.455 303.757 81.485 304.537 81.545V80.885C304.537 79.565 303.832 78.785 302.632 78.785C301.342 78.785 300.532 79.58 300.517 80.87H299.557C299.602 79.115 300.817 77.945 302.617 77.945C304.462 77.945 305.542 79.025 305.542 80.855V86H304.642ZM300.292 83.78C300.292 84.74 301.027 85.385 302.137 85.385C303.607 85.385 304.537 84.425 304.537 82.94V82.235C303.862 82.175 303.397 82.16 302.962 82.16C301.162 82.16 300.292 82.685 300.292 83.78ZM311.532 84.995V85.925C311.127 86.09 310.782 86.15 310.392 86.15C309.087 86.15 308.082 85.475 308.082 83.765V78.98H306.222V78.095H308.082V75.755H309.132V78.095H311.607V78.98H309.132V83.54C309.132 84.77 309.732 85.19 310.602 85.19C310.932 85.19 311.202 85.13 311.532 84.995ZM314.32 76.265C314.32 76.73 313.975 77.06 313.465 77.06C312.97 77.06 312.625 76.73 312.625 76.265C312.625 75.815 312.97 75.485 313.465 75.485C313.975 75.485 314.32 75.815 314.32 76.265ZM314.005 86H312.955V78.095H314.005V86ZM319.205 86.15C317.03 86.15 315.455 84.425 315.455 82.04C315.455 79.67 317.03 77.96 319.205 77.96C321.395 77.96 322.97 79.67 322.97 82.04C322.97 84.425 321.395 86.15 319.205 86.15ZM319.205 85.235C320.75 85.235 321.905 84.005 321.905 82.04C321.905 80.105 320.75 78.875 319.205 78.875C317.675 78.875 316.52 80.105 316.52 82.04C316.52 84.005 317.675 85.235 319.205 85.235ZM325.478 81.395V86H324.428V78.095H325.403V79.58C325.913 78.605 326.873 77.945 328.013 77.945C329.663 77.945 330.728 78.995 330.728 80.87V86H329.678V81.23C329.678 79.715 328.988 78.86 327.698 78.86C326.468 78.86 325.478 79.925 325.478 81.395ZM338.758 86.15C336.583 86.15 335.008 84.425 335.008 82.04C335.008 79.67 336.583 77.96 338.758 77.96C340.948 77.96 342.523 79.67 342.523 82.04C342.523 84.425 340.948 86.15 338.758 86.15ZM338.758 85.235C340.303 85.235 341.458 84.005 341.458 82.04C341.458 80.105 340.303 78.875 338.758 78.875C337.228 78.875 336.073 80.105 336.073 82.04C336.073 84.005 337.228 85.235 338.758 85.235ZM345.501 86H344.451V78.98H342.591V78.095H344.451V77.375C344.451 75.92 345.246 75.11 346.626 75.11C346.986 75.11 347.301 75.17 347.571 75.275V76.145C347.316 76.04 347.076 76.025 346.806 76.025C345.966 76.025 345.501 76.445 345.501 77.375V78.095H347.826V78.98H345.501V86ZM358.935 82.04C358.935 84.485 357.57 86.15 355.47 86.15C354.285 86.15 353.28 85.505 352.74 84.38V88.895H351.69V78.095H352.665V79.805C353.205 78.635 354.255 77.945 355.47 77.945C357.57 77.945 358.935 79.625 358.935 82.04ZM357.87 82.04C357.87 80.045 356.835 78.86 355.29 78.86C353.82 78.86 352.725 80.03 352.725 82.04C352.725 84.005 353.79 85.235 355.29 85.235C356.835 85.235 357.87 84.065 357.87 82.04ZM365.245 86V84.56C364.78 85.55 363.82 86.15 362.59 86.15C360.955 86.15 359.89 85.235 359.89 83.81C359.89 82.265 361.12 81.455 363.52 81.455C364 81.455 364.36 81.485 365.14 81.545V80.885C365.14 79.565 364.435 78.785 363.235 78.785C361.945 78.785 361.135 79.58 361.12 80.87H360.16C360.205 79.115 361.42 77.945 363.22 77.945C365.065 77.945 366.145 79.025 366.145 80.855V86H365.245ZM360.895 83.78C360.895 84.74 361.63 85.385 362.74 85.385C364.21 85.385 365.14 84.425 365.14 82.94V82.235C364.465 82.175 364 82.16 363.565 82.16C361.765 82.16 360.895 82.685 360.895 83.78ZM373.97 78.095L369.92 88.895H368.795L369.95 85.895L366.815 78.095H367.94L370.49 84.635L372.905 78.095H373.97ZM376.689 85.13C376.689 85.67 376.299 86.075 375.744 86.075C375.204 86.075 374.799 85.67 374.799 85.13C374.799 84.56 375.204 84.17 375.744 84.17C376.299 84.17 376.689 84.56 376.689 85.13ZM380.934 85.13C380.934 85.67 380.544 86.075 379.989 86.075C379.449 86.075 379.044 85.67 379.044 85.13C379.044 84.56 379.449 84.17 379.989 84.17C380.544 84.17 380.934 84.56 380.934 85.13ZM385.179 85.13C385.179 85.67 384.789 86.075 384.234 86.075C383.694 86.075 383.289 85.67 383.289 85.13C383.289 84.56 383.694 84.17 384.234 84.17C384.789 84.17 385.179 84.56 385.179 85.13Z" fill="#3C3C43" fill-opacity="0.6"/>
<circle cx="54" cy="19" r="6" fill="#007AFF"/>
</svg>
