<svg width="94" height="94" viewBox="0 0 94 94" fill="none" xmlns="http://www.w3.org/2000/svg">
<rect x="0.5" y="0.5" width="92.56" height="92.56" rx="20.5" fill="white" stroke="#C4CFE3"/>
<path fill-rule="evenodd" clip-rule="evenodd" d="M27.0747 72.6095L20.411 64.308C18.8077 62.3106 17.9375 59.8545 17.9375 57.3266V27.2665C17.9375 23.48 20.9669 20.338 24.8751 20.0712L55.781 17.9611C58.0263 17.8078 60.2579 18.4046 62.1023 19.6516L72.961 26.9932C74.9048 28.3074 76.0625 30.4557 76.0625 32.7482V66.9236C76.0625 70.6293 73.0837 73.6974 69.2573 73.9329L34.9552 76.0444C31.9017 76.2324 28.9502 74.9459 27.0747 72.6095Z" fill="white"/>
<path d="M37.7933 42.3087V41.9152C37.7933 40.9176 38.5923 40.0902 39.622 40.0215L47.1228 39.5207L57.4956 54.7956V41.3893L54.8257 41.0334V40.8464C54.8257 39.8371 55.643 39.0043 56.6858 38.9509L63.5107 38.6013V39.5834C63.5107 40.0445 63.1678 40.4388 62.6979 40.5183L61.0556 40.7961V62.5072L58.9944 63.216C57.2724 63.8082 55.3554 63.1743 54.3696 61.6868L44.2994 46.4908V60.9945L47.399 61.5877L47.3558 61.8752C47.2205 62.7758 46.443 63.4569 45.5024 63.4987L37.7933 63.8419C37.6914 62.8734 38.4172 62.007 39.4185 61.9018L40.4325 61.7953V42.457L37.7933 42.3087Z" fill="black"/>
<path fill-rule="evenodd" clip-rule="evenodd" d="M56.0577 21.7481L25.1518 23.8582C23.3006 23.9846 21.8656 25.4729 21.8656 27.2665V57.3266C21.8656 59.0119 22.4457 60.6493 23.5146 61.9809L30.1784 70.2824C31.2558 71.6246 32.9513 72.3636 34.7054 72.2556L69.0075 70.1441C70.7656 70.0359 72.1342 68.6262 72.1342 66.9237V32.7483C72.1342 31.6949 71.6023 30.7078 70.7092 30.104L59.8505 22.7624C58.7439 22.0142 57.4049 21.6562 56.0577 21.7481ZM26.6844 27.7354C26.2546 27.4172 26.4591 26.7542 26.9991 26.7155L56.2656 24.6163C57.1981 24.5494 58.1247 24.8062 58.8788 25.3405L64.7509 29.5007C64.9738 29.6587 64.8692 29.9997 64.5933 30.0147L33.6001 31.7003C32.6622 31.7513 31.7364 31.4757 30.9906 30.9236L26.6844 27.7354ZM32.1464 36.9845C32.1464 35.9776 32.9599 35.1459 34 35.0893L66.7685 33.3047C67.7823 33.2495 68.6357 34.0291 68.6357 35.0104V64.6027C68.6357 65.6077 67.8251 66.4386 66.787 66.4977L34.226 68.3503C33.0978 68.4145 32.1464 67.5476 32.1464 66.4554V36.9845Z" fill="black"/>
</svg>
