<svg width="92" height="92" viewBox="0 0 92 92" fill="none" xmlns="http://www.w3.org/2000/svg">
<rect width="91.5618" height="91.5618" rx="20" fill="#FF0000"/>
<path d="M43.5415 23.1405C36.11 23.9906 28.7046 30.151 28.399 38.9509C28.2068 44.3239 29.6958 48.3548 34.6865 49.4866C36.8523 45.5721 33.9879 44.7086 33.5425 41.8767C31.713 30.2718 46.6067 22.3576 54.4007 30.4596C59.7932 36.0698 56.2433 53.3296 47.5455 51.5356C39.2145 49.8222 51.6237 36.0832 44.9737 33.3855C39.5681 31.1933 36.6951 40.0917 39.2581 44.5118C37.7561 52.1128 34.5206 59.2753 35.8305 68.8089C40.079 65.6504 41.5112 59.6019 42.6857 53.2938C44.8209 54.6225 45.9605 56.0049 48.6851 56.2197C58.7321 57.016 64.3429 45.9434 62.9719 35.7298C61.7537 26.6748 52.9336 22.0668 43.5415 23.1405Z" fill="white"/>
</svg>
