<svg width="55" height="56" viewBox="0 0 55 56" fill="none" xmlns="http://www.w3.org/2000/svg">
<path d="M26.4974 52.5H28.5026C39.4109 52.5 44.8451 52.5 48.2138 49.07C51.5625 45.64 51.5625 40.0867 51.5625 29.0208V26.9383C51.5625 15.9133 51.5625 10.36 48.2138 6.93C44.8451 3.5 39.3909 3.5 28.5026 3.5H26.4974C15.5891 3.5 10.1549 3.5 6.7862 6.93C3.4375 10.36 3.4375 15.9133 3.4375 26.9792V29.0617C3.4375 40.0867 3.4375 45.64 6.80625 49.07C10.175 52.5 15.6292 52.5 26.4974 52.5Z" fill="#0077FF"/>
<path d="M23.7887 40C20.5537 40 17.5382 39.0591 15 37.4356C17.155 37.5751 20.9581 37.2411 23.3236 34.9848C19.7651 34.8215 18.1603 32.0923 17.9509 30.926C18.2533 31.0426 19.6953 31.1826 20.5093 30.856C16.4159 29.8296 15.7879 26.2373 15.9275 25.141C16.695 25.6775 17.9975 25.8641 18.5091 25.8174C14.6948 23.0882 16.067 18.9828 16.7415 18.0963C19.4788 21.8887 23.5812 24.0186 28.6564 24.137C28.5607 23.7174 28.5102 23.2804 28.5102 22.8316C28.5102 19.6109 31.1134 17 34.3247 17C36.0025 17 37.5144 17.7128 38.5757 18.8528C39.6969 18.5901 41.3843 17.9751 42.2092 17.4432C41.7934 18.9361 40.4989 20.1815 39.7159 20.6431C39.7224 20.6588 39.7095 20.6273 39.7159 20.6431C40.4037 20.539 42.2648 20.1814 43 19.6826C42.6364 20.5213 41.264 21.9157 40.1377 22.6964C40.3473 31.9381 33.2765 40 23.7887 40Z" fill="white"/>
</svg>
