<svg width="92" height="92" viewBox="0 0 92 92" fill="none" xmlns="http://www.w3.org/2000/svg">
<rect width="91.5618" height="91.5618" rx="20" fill="#FF1A1A"/>
<path d="M39.677 52.2238L41.8249 51.7357C41.8698 51.7255 41.9457 51.7086 42.0354 51.6798C42.6287 51.5235 43.1371 51.1471 43.4534 50.6299C43.7698 50.1127 43.8694 49.495 43.7313 48.9071L43.7227 48.8698C43.6517 48.5881 43.5276 48.3219 43.357 48.0851C43.1164 47.7852 42.8187 47.5342 42.4805 47.3461C42.0823 47.1232 41.6656 46.9339 41.2349 46.7801L38.8799 45.9344C37.5584 45.4513 36.2368 44.9819 34.9015 44.5226C34.0371 44.2209 33.3039 43.9548 32.6673 43.7599C32.5461 43.727 32.4259 43.6908 32.3067 43.6514C31.5373 43.421 30.9955 43.3243 30.5383 43.321C30.2328 43.3098 29.9284 43.3642 29.6464 43.4803C29.3517 43.6056 29.0872 43.7904 28.87 44.0226C28.7622 44.1428 28.6609 44.2684 28.5664 44.3989C28.3826 44.6763 28.2309 44.973 28.1143 45.2836C27.6768 46.553 27.4587 47.8855 27.4691 49.2257C27.4777 50.4358 27.5105 51.9899 28.1885 53.0441C28.3524 53.3153 28.5715 53.5491 28.8321 53.7305C29.3151 54.0576 29.8016 54.1017 30.3106 54.1372C31.0697 54.1898 31.8029 54.0084 32.5362 53.8407L39.6718 52.2221L39.677 52.2238ZM63.6407 41.0228C63.0544 39.8138 62.266 38.7099 61.3082 37.7569C61.1844 37.6357 61.0518 37.5235 60.9114 37.4213C60.7817 37.3257 60.6469 37.2369 60.5077 37.1552C60.3643 37.0781 60.2169 37.0085 60.066 36.9468C59.7682 36.8317 59.4489 36.7797 59.1292 36.7942C58.8238 36.8112 58.5254 36.8959 58.2545 37.0366C57.8456 37.2366 57.4022 37.5586 56.8122 38.0959C56.7311 38.1755 56.6293 38.2653 56.5362 38.3501C56.0514 38.7992 55.5096 39.3534 54.8661 39.9974C53.8706 40.9855 52.8924 41.9787 51.9177 42.9803L50.1752 44.7565C49.857 45.0804 49.5672 45.4302 49.3091 45.8022C49.088 46.1169 48.9316 46.4709 48.8484 46.8445C48.8018 47.1314 48.8088 47.4243 48.8691 47.7088L48.8778 47.7461C49.0155 48.3335 49.3798 48.8454 49.894 49.1742C50.4082 49.5029 51.0323 49.6229 51.6347 49.5087C51.7072 49.4987 51.7792 49.4851 51.8504 49.468L61.1357 47.3597C61.8689 47.1936 62.6108 47.0411 63.2681 46.6648C63.7098 46.4157 64.129 46.1665 64.4171 45.6649C64.5706 45.3886 64.6634 45.0837 64.6897 44.77C64.8329 43.526 64.1721 42.1143 63.6407 41.0228ZM47.0179 44.8582C47.6908 44.0277 47.6908 42.7905 47.7494 41.777C47.953 38.3958 48.1652 35.0147 48.336 31.6318C48.3999 30.3506 48.5396 29.0862 48.462 27.7948C48.3981 26.7304 48.3912 25.5068 47.7063 24.6323C46.4986 23.09 43.9211 23.2171 42.1631 23.4578C41.6208 23.5314 41.0824 23.6309 40.55 23.756C40.0151 23.8815 39.4838 24.0187 38.9662 24.1831C37.2789 24.7255 34.9067 25.722 34.5064 27.6321C34.2787 28.7117 34.817 29.815 35.231 30.8014C35.7365 31.9945 36.4249 33.0707 37.0529 34.1944C38.7143 37.162 40.405 40.1127 42.0906 43.065C42.5961 43.9463 43.143 45.0615 44.1178 45.5191C44.1833 45.5462 44.2489 45.57 44.3162 45.592C44.7527 45.7547 45.2306 45.7852 45.6843 45.6818L45.7654 45.6649C46.1864 45.5513 46.5659 45.3259 46.8644 45.0158C46.9196 44.9649 46.9696 44.9141 47.0197 44.8582H47.0179ZM46.2122 53.9101C45.9496 53.5473 45.5769 53.2753 45.1474 53.1331C44.7179 52.991 44.2536 52.9859 43.821 53.1187C43.7193 53.1516 43.6201 53.1918 43.5243 53.239C43.376 53.3133 43.2346 53.4 43.1016 53.4983C42.7218 53.7923 42.3825 54.1336 42.0923 54.5135C42.0182 54.6067 41.9491 54.7304 41.8594 54.8118L40.3654 56.8286C39.52 57.9607 38.6832 59.0946 37.8568 60.2453C37.3151 60.9894 36.8493 61.6181 36.4784 62.1723C36.4094 62.2774 36.3369 62.3927 36.2713 62.4876C35.828 63.1587 35.5778 63.6502 35.4484 64.0875C35.3517 64.378 35.3211 64.6858 35.3587 64.9891C35.4001 65.3044 35.5088 65.6077 35.6761 65.8806C35.7658 66.0162 35.8625 66.1484 35.966 66.2755C36.1896 66.5283 36.4413 66.7557 36.7165 66.9534C37.7482 67.6585 38.8765 68.1652 40.0634 68.5567C41.052 68.8787 42.0785 69.0719 43.1171 69.1296C43.2948 69.138 43.4725 69.1346 43.6485 69.1194C43.8117 69.1044 43.974 69.0818 44.135 69.0516C44.2961 69.0148 44.4551 68.9695 44.6112 68.916C44.9148 68.8043 45.1911 68.631 45.4221 68.4076C45.6412 68.1923 45.8103 67.933 45.9155 67.6466C46.088 67.2229 46.2019 66.6873 46.2778 65.8908C46.283 65.7772 46.3002 65.6416 46.3123 65.5179C46.371 64.8569 46.3986 64.0773 46.44 63.1655C46.5142 61.7605 46.5711 60.3623 46.616 58.9607L46.7126 56.4659C46.735 55.8931 46.716 55.2558 46.5538 54.6847C46.4825 54.4103 46.3672 54.1489 46.2122 53.9101ZM63.0731 57.8133C62.7626 57.476 62.3209 57.1421 61.6239 56.7286C61.5239 56.6727 61.4048 56.5998 61.2961 56.5354C60.7164 56.1914 60.0177 55.8321 59.2017 55.3965C57.9474 54.7186 56.6932 54.061 55.4251 53.4068L53.1874 52.2408C53.0718 52.2069 52.9545 52.1255 52.8441 52.073C52.4138 51.8571 51.9569 51.697 51.4846 51.5967C51.3219 51.5659 51.1569 51.5489 50.9912 51.5459C50.8839 51.5453 50.7767 51.5516 50.6703 51.5645C50.2223 51.6325 49.8077 51.8377 49.4855 52.1509C49.1632 52.464 48.95 52.8692 48.876 53.3085C48.8432 53.5881 48.8536 53.8712 48.9088 54.1457C49.0175 54.7321 49.2832 55.3101 49.5592 55.8168L50.7531 58.0184C51.4191 59.259 52.0919 60.4928 52.782 61.7232C53.2271 62.5249 53.5981 63.2113 53.9448 63.7807C54.0104 63.8875 54.0846 64.0027 54.1415 64.1027C54.5642 64.7858 54.9023 65.2162 55.2457 65.5264C55.4743 65.7425 55.7488 65.9062 56.0495 66.0058C56.3502 66.1054 56.6695 66.1385 56.9847 66.1026C57.1489 66.083 57.3119 66.0547 57.473 66.0179C57.803 65.9311 58.1219 65.8077 58.4236 65.6501C59.3317 65.1501 60.1687 64.5346 60.9131 63.8197C61.8068 62.9554 62.597 62.013 63.2112 60.9351C63.2974 60.7826 63.3699 60.625 63.432 60.4606C63.4898 60.3101 63.5399 60.1568 63.5821 60.0013C63.6183 59.842 63.6459 59.6827 63.6649 59.5217C63.6958 59.2052 63.6588 58.8859 63.5562 58.5844C63.4549 58.2951 63.29 58.0312 63.0731 57.8116V57.8133Z" fill="white"/>
</svg>
