<svg width="240" height="96" viewBox="0 0 240 96" fill="none" xmlns="http://www.w3.org/2000/svg">
<path d="M78.2335 31.5739C77.4285 28.5488 75.0393 26.1632 72.0031 25.3435C66.5115 23.8769 44.4827 23.8769 44.4827 23.8769C44.4827 23.8769 22.4649 23.8769 16.9623 25.3472C13.9335 26.1522 11.5479 28.5414 10.7319 31.5739C9.2616 37.0655 9.2616 48.5302 9.2616 48.5302C9.2616 48.5302 9.2616 59.9949 10.7319 65.4828C11.5369 68.5079 13.9261 70.8935 16.9623 71.7132C22.4649 73.1835 44.4827 73.1835 44.4827 73.1835C44.4827 73.1835 66.5115 73.1835 72.0031 71.7132C75.0283 70.9082 77.4138 68.519 78.2335 65.4828C79.7038 59.9912 79.7038 48.5302 79.7038 48.5302C79.7038 48.5302 79.7038 37.0655 78.2335 31.5776V31.5739Z" fill="#999999"/>
<path d="M37.4437 37.9626V59.0982L55.7453 48.5304L37.4437 37.9626Z" fill="white"/>
<path d="M122.913 39.5649C121.534 38.6239 119.707 38.1534 117.421 38.1534C115.135 38.1534 113.231 38.6239 111.808 39.5429C110.386 40.4618 109.334 41.9284 108.658 43.9464C107.985 45.9644 107.647 48.633 107.647 51.9596V56.4403C107.647 59.7338 107.949 62.3693 108.533 64.3542C109.117 66.3391 110.114 67.7947 111.503 68.7357C112.892 69.6767 114.818 70.1472 117.263 70.1325C119.648 70.1325 121.545 69.662 122.935 68.7431C124.335 67.8242 125.346 66.3575 125.96 64.3616C126.577 62.3657 126.89 59.7228 126.89 56.4256V51.9449C126.89 48.6293 126.574 45.9608 125.938 43.9685C125.298 41.9762 124.291 40.5059 122.913 39.5649ZM119.898 58.9656C119.898 61.2409 119.696 62.8839 119.314 63.8948C118.924 64.9019 118.252 65.4055 117.263 65.4055C116.274 65.4055 115.616 64.9019 115.245 63.8948C114.877 62.8986 114.697 61.2519 114.697 58.9656V49.3388C114.697 47.1186 114.899 45.4939 115.282 44.4757C115.675 43.4539 116.337 42.9393 117.278 42.9393C118.219 42.9393 118.935 43.4539 119.318 44.4757C119.711 45.5086 119.902 47.1223 119.902 49.3388V58.9656H119.898Z" fill="#999999"/>
<path d="M142.383 63.2997C142.115 63.8694 141.699 64.3436 141.151 64.7112C140.604 65.0788 140.019 65.2589 139.413 65.2589C138.707 65.2589 138.204 64.9575 137.902 64.373C137.601 63.7886 137.454 62.8035 137.454 61.425V38.7567H130.506V61.8184C130.506 64.6781 130.988 66.7733 131.966 68.1149C132.94 69.4603 134.454 70.1329 136.505 70.1329C139.453 70.1329 141.67 68.7104 143.151 65.8507H143.298L143.905 69.6257H149.337V38.7567H142.387V63.296L142.383 63.2997Z" fill="#999999"/>
<path d="M102.527 27.3574L99.656 40.3548C98.851 44.1556 98.3327 46.8573 98.0975 48.4672H97.8953C97.5572 46.2177 97.0426 43.505 96.3368 40.3107L93.569 27.3684H86.6659L94.5798 55.9327V69.6359H101.424V55.9327L109.426 27.3574H102.523H102.527Z" fill="#999999"/>
<path d="M178.037 63.2997C177.769 63.8694 177.353 64.3436 176.806 64.7112C176.258 65.0788 175.674 65.2589 175.067 65.2589C174.361 65.2589 173.858 64.9575 173.556 64.373C173.255 63.7886 173.108 62.8035 173.108 61.425V38.7567H166.161V61.8184C166.161 64.6781 166.642 66.7733 167.62 68.1149C168.594 69.4603 170.109 70.1329 172.16 70.1329C175.108 70.1329 177.324 68.7104 178.805 65.8507H178.952L179.559 69.6257H184.992V38.7567H178.041V63.296L178.037 63.2997Z" fill="#999999"/>
<path d="M218.482 56.51H230.123V51.2206C230.123 47.9676 229.855 45.4129 229.34 43.5677C228.814 41.7188 227.917 40.3624 226.638 39.4876C225.359 38.6128 223.532 38.1754 221.147 38.1754C217.684 38.1754 215.24 39.2413 213.817 41.3696C212.395 43.5089 211.678 46.8832 211.678 51.522V56.9144C211.678 61.4172 212.362 64.7364 213.74 66.8867C215.115 69.0407 217.515 70.114 220.945 70.114C223.804 70.114 226.01 69.4083 227.568 67.9968C229.127 66.5853 229.91 64.457 229.91 61.5973C229.91 61.1268 229.895 60.7555 229.862 60.4872L223.867 60.138C223.834 62.02 223.621 63.3653 223.238 64.1703C222.86 64.9753 222.143 65.3796 221.099 65.3796C220.327 65.3796 219.754 65.1444 219.382 64.6959C219.015 64.2475 218.765 63.5197 218.655 62.5309C218.533 61.5348 218.474 60.0571 218.474 58.0722V56.5064L218.482 56.51ZM218.482 52.3858V50.1694C218.482 48.1624 218.541 46.648 218.662 45.6629C218.783 44.6778 219.018 43.961 219.368 43.5236C219.717 43.0862 220.265 42.8619 221.003 42.873C221.746 42.873 222.294 43.0862 222.639 43.5015C222.988 43.9169 223.231 44.6447 223.367 45.6665C223.499 46.6884 223.569 48.1881 223.569 50.173V52.3895H218.482V52.3858Z" fill="#999999"/>
<path d="M205.955 39.4658C205.014 38.591 203.724 38.1536 202.077 38.1536C200.798 38.1536 199.611 38.5101 198.501 39.2379C197.391 39.9547 196.542 40.9067 195.935 42.0867H195.876V25.8177H189.175V69.6401H194.913L195.619 66.7179H195.766C196.303 67.7618 197.111 68.5778 198.188 69.1843C199.262 69.7908 200.453 70.0922 201.765 70.0922C204.117 70.0922 205.845 69.0079 206.951 66.8429C208.061 64.6779 208.609 61.2962 208.609 56.6904V51.8054C208.616 48.3538 208.407 45.6521 207.992 43.704C207.565 41.7558 206.892 40.3443 205.951 39.4695L205.955 39.4658ZM201.338 61.5865C201.158 62.8657 200.846 63.7699 200.408 64.3103C199.971 64.8506 199.387 65.1153 198.648 65.1153C198.074 65.1153 197.549 64.9793 197.056 64.7109C196.575 64.4426 196.17 64.0383 195.869 63.5016V45.9646C196.104 45.1228 196.508 44.4428 197.078 43.9025C197.652 43.3658 198.265 43.0975 198.938 43.0975C199.644 43.0975 200.192 43.3768 200.574 43.9245C200.952 44.4722 201.221 45.4132 201.379 46.7144C201.526 48.0267 201.603 49.8866 201.603 52.3053V56.2971H201.614C201.614 58.554 201.526 60.3111 201.335 61.5902L201.338 61.5865Z" fill="#999999"/>
<path d="M168.216 27.3729H147.617V32.9637H154.521V69.6331H161.324V32.9637H168.216V27.3729Z" fill="#999999"/>
</svg>
