<svg width="92" height="92" viewBox="0 0 92 92" fill="none" xmlns="http://www.w3.org/2000/svg">
<rect y="0.123047" width="91.56" height="91.56" rx="20" fill="#3984FD"/>
<path d="M22.5293 36.3476C22.5293 34.6352 23.9994 33.2471 25.8129 33.2471H45.5146C50.9552 33.2471 55.3654 37.4115 55.3654 42.5486V54.9506C55.3654 56.663 53.8953 58.0511 52.0818 58.0511H32.3801C26.9397 58.0511 22.5293 53.8868 22.5293 48.7496V36.3476Z" fill="white"/>
<path d="M57.0098 44.8789C57.0098 43.377 57.587 41.926 58.6345 40.7955L64.1864 34.8046C65.6838 33.1887 68.5024 34.1887 68.5024 36.3359V54.9633C68.5024 57.1104 65.6838 58.1103 64.1864 56.4943L58.6345 50.5035C57.587 49.3731 57.0098 47.922 57.0098 46.4202V44.8789Z" fill="white"/>
</svg>
